<svg width="10" height="18" viewBox="0 0 10 18" fill="none" xmlns="http://www.w3.org/2000/svg">
<path id="path9513" d="M9.02857 8.78309C9.02361 8.95053 8.99015 9.11491 8.93034 9.26588C8.87052 9.41686 8.7856 9.55117 8.68096 9.66036L1.68 16.9464C1.58014 17.0501 1.46448 17.1289 1.33954 17.1783C1.2146 17.2277 1.08292 17.2468 0.951922 17.2343C0.820925 17.2219 0.693173 17.1783 0.576066 17.1059C0.458959 17.0335 0.354772 16.9339 0.269386 16.8126C0.184001 16.6913 0.119122 16.5508 0.0784597 16.399C0.0377989 16.2473 0.0220871 16.0873 0.032342 15.9282C0.0425968 15.7691 0.0785723 15.614 0.138182 15.4718C0.197791 15.3296 0.27995 15.2031 0.379836 15.0994L6.49834 8.73804L0.379836 2.37669C0.27995 2.27301 0.197791 2.14646 0.138182 2.00425C0.0785725 1.86204 0.042597 1.70696 0.0323421 1.54787C0.0220873 1.38878 0.0377991 1.2288 0.0784599 1.07706C0.119122 0.925314 0.184001 0.784784 0.269386 0.663496C0.354772 0.542206 0.458959 0.44253 0.576066 0.370163C0.693174 0.297794 0.820925 0.254152 0.951923 0.241726C1.08292 0.229301 1.2146 0.248335 1.33954 0.297743C1.46448 0.347151 1.58014 0.425964 1.68 0.529682L8.68096 7.81572C8.79511 7.9348 8.88572 8.08363 8.9459 8.25113C9.00608 8.41863 9.03432 8.60047 9.02857 8.78309Z" fill="#1428BF"/>
</svg>
