<svg width="12" height="21" viewBox="0 0 12 21" fill="none" xmlns="http://www.w3.org/2000/svg">
<g id="Frame" clip-path="url(#clip0_63_466)">
<g id="dollar">
<g id="Group 10327">
<path id="Path 64165" d="M6.60267 9.25008V4.80633C7.5534 4.96677 8.4506 5.35681 9.21642 5.94258C9.36893 6.04714 9.54903 6.10412 9.73392 6.10633C10.0197 6.10668 10.2942 5.99423 10.4976 5.79342C10.7009 5.5926 10.8169 5.31964 10.8202 5.03383C10.8214 4.77899 10.7216 4.53404 10.5427 4.35258C9.43521 3.40408 8.04715 2.84508 6.59142 2.76133V1.27133C6.59159 1.17 6.57175 1.06964 6.53305 0.975993C6.49435 0.882346 6.43755 0.797259 6.3659 0.725609C6.29425 0.653959 6.20916 0.597155 6.11551 0.558455C6.02186 0.519754 5.9215 0.499917 5.82018 0.500082H5.79392C5.69116 0.498594 5.58911 0.517364 5.4936 0.555319C5.39809 0.593275 5.311 0.649673 5.23729 0.721292C5.16358 0.792911 5.1047 0.878349 5.06402 0.972726C5.02333 1.0671 5.00164 1.16857 5.00017 1.27133V2.71008C2.16017 2.91258 0.227676 4.66633 0.227676 7.00258C0.227676 9.86883 2.66392 10.6638 5.00017 11.2951V16.3451C3.76757 16.1799 2.60741 15.6675 1.65517 14.8676C1.47695 14.7261 1.25764 14.6463 1.03017 14.6401C0.750008 14.6595 0.487931 14.7856 0.297771 14.9922C0.107611 15.1989 0.00380259 15.4705 0.00767281 15.7513C0.00646321 16.0062 0.10624 16.2511 0.285173 16.4326C1.58878 17.6066 3.26552 18.2818 5.01892 18.3388V19.7276C5.01892 19.7363 5.01892 19.7451 5.01892 19.7538C5.02373 19.8565 5.04874 19.9571 5.09251 20.0501C5.13628 20.1431 5.19795 20.2265 5.27401 20.2956C5.35006 20.3646 5.43899 20.418 5.53571 20.4527C5.63244 20.4874 5.73505 20.5026 5.83768 20.4976C6.04189 20.4976 6.23774 20.4165 6.38215 20.2721C6.52655 20.1277 6.60767 19.9318 6.60767 19.7276V18.3151C10.0539 18.0876 11.4427 15.9926 11.4427 13.7701C11.4377 10.7901 8.93768 9.88133 6.60267 9.25008ZM5.01392 8.84633C3.63892 8.44258 2.56517 8.02633 2.56517 6.84633C2.56517 5.66633 3.53767 4.82633 5.01392 4.71258V8.84633ZM6.60517 16.3701V11.7751C8.03142 12.1788 9.14267 12.7213 9.13017 14.0476C9.12767 15.0076 8.47143 16.1438 6.60267 16.3751L6.60517 16.3701Z" fill="white"/>
</g>
</g>
</g>
<defs>
<clipPath id="clip0_63_466">
<rect width="11.4388" height="20" fill="white" transform="translate(0 0.5)"/>
</clipPath>
</defs>
</svg>
