<svg width="72" height="41" viewBox="0 0 72 41" fill="none" xmlns="http://www.w3.org/2000/svg">
<g id="Frame" clip-path="url(#clip0_146_3082)">
<g id="Group 10494">
<path id="Path 64484" d="M2.59682 1.63208V40.2365H70.3887V22.9729L59.5499 11.9677L57.0948 12.6389L53.5403 16.937L52.356 18.1455H51.0906L46.822 15.9964L41.0756 12.6389L34.1789 10.7028L32.1407 11.9612L31.4675 13.3439C31.4675 13.3439 31.1512 14.3217 31.0421 14.3394C30.8861 14.5127 30.6924 14.6467 30.477 14.7307C30.2616 14.8147 30.0301 14.8464 29.8006 14.8234C28.9864 14.7153 28.5955 14.3184 28.1338 14.3394C27.9237 14.3603 27.7119 14.3373 27.5108 14.2718C27.3096 14.2064 27.1237 14.0998 26.9641 13.9587C26.4329 13.5973 25.332 12.634 25.332 12.634L16.6488 6.29327C16.6488 6.29327 14.0206 6.57561 13.4688 7.51624C12.917 8.45687 10.8871 8.87959 10.8871 8.87959C10.5494 8.84769 10.2095 8.84769 9.87181 8.87959C9.18718 8.93928 2.59682 1.63208 2.59682 1.63208Z" fill="url(#paint0_linear_146_3082)"/>
<path id="Path" d="M70.1191 22.9792L60.7224 13.0325C60.457 12.7507 60.1361 12.5294 59.7809 12.3833C59.4256 12.2372 59.0441 12.1696 58.6614 12.1848C58.2787 12.2001 57.9036 12.2979 57.5606 12.4718C57.2177 12.6457 56.9145 12.8918 56.6714 13.1938L53.3748 17.3032C52.9586 17.8224 52.3716 18.1695 51.7232 18.2799C51.0748 18.3903 50.4093 18.2565 49.8504 17.9034L42.7779 13.4423C42.5938 13.3264 42.3969 13.2333 42.1913 13.1648L35.2848 10.8721C34.9396 10.7572 34.5754 10.7143 34.2136 10.7459C33.8518 10.7775 33.4997 10.8829 33.1787 11.056C32.8576 11.2291 32.574 11.4662 32.3445 11.7534C32.1149 12.0405 31.9442 12.3718 31.8426 12.7275V12.7275C31.721 13.1522 31.5014 13.5409 31.2022 13.8611C30.903 14.1813 30.5331 14.4236 30.1233 14.5679C29.7134 14.7122 29.2755 14.7541 28.8465 14.6902C28.4175 14.6263 28.0097 14.4584 27.6574 14.2006L17.5632 6.80948C17.0895 6.46254 16.5188 6.28069 15.9358 6.29086C15.3527 6.30103 14.7885 6.5027 14.3266 6.86596L12.246 8.50358C11.7241 8.91444 11.0734 9.11716 10.4156 9.0738C9.75789 9.03045 9.13824 8.74398 8.67255 8.26803L2.47282 1.94019" stroke="#DF052A" stroke-width="1.5" stroke-linecap="round" stroke-linejoin="round"/>
</g>
</g>
<defs>
<linearGradient id="paint0_linear_146_3082" x1="36.4927" y1="1.63208" x2="36.4927" y2="40.2365" gradientUnits="userSpaceOnUse">
<stop stop-color="#DF052A" stop-opacity="0.502"/>
<stop offset="1" stop-color="#DF052A" stop-opacity="0"/>
</linearGradient>
<clipPath id="clip0_146_3082">
<rect width="71" height="40" fill="white" transform="matrix(-1 0 0 1 71.7949 0.238037)"/>
</clipPath>
</defs>
</svg>
