<svg width="14" height="18" viewBox="0 0 14 18" fill="none" xmlns="http://www.w3.org/2000/svg">
<path id="Vector" d="M0.553 15.616L1.317 17.459C2.498 17.066 4.422 16.511 5 16.511C5.838 16.511 6.462 16.719 7.184 16.959C7.959 17.218 8.838 17.511 10 17.511C11.177 17.511 13.078 16.59 13.447 16.406L12.552 14.617C11.831 14.977 10.521 15.511 10 15.511C9.162 15.511 8.538 15.303 7.816 15.063C7.041 14.804 6.162 14.511 5 14.511C4.771 14.511 4.474 14.548 4.143 14.61C4.702 13.461 5 12.072 5 10.511H8V8.51099H4.626C4.584 8.40399 4.542 8.29499 4.501 8.19399C4.243 7.56299 4 6.96599 4 5.51099C4 4.14199 4.521 2.51099 7 2.51099C9.224 2.51099 10.021 4.73799 10.052 4.82699L11.948 4.19399C11.898 4.04399 10.679 0.510986 7 0.510986C3.313 0.510986 2 3.09399 2 5.51099C2 7.00199 2.234 7.86099 2.478 8.51099H0V10.511H3C3 12.978 2.108 14.839 0.553 15.616Z" fill="white"/>
</svg>
