<svg width="21" height="21" viewBox="0 0 21 21" fill="none" xmlns="http://www.w3.org/2000/svg">
<g clip-path="url(#clip0_63_748)">
<path fill-rule="evenodd" clip-rule="evenodd" d="M0.280518 10.6673C0.280518 15.8027 4.01024 20.073 8.88824 20.9389V13.4786H6.30592V10.6097H8.88824V8.31398C8.88824 5.73167 10.5521 4.29762 12.9055 4.29762C13.6509 4.29762 14.4549 4.4121 15.2003 4.52659V7.16657H13.8807C12.618 7.16657 12.3313 7.79752 12.3313 8.60148V10.6097H15.0858L14.627 13.4786H12.3313V20.9389C17.2093 20.073 20.9391 15.8036 20.9391 10.6673C20.9391 4.95439 16.2909 0.280396 10.6098 0.280396C4.92869 0.280396 0.280518 4.95439 0.280518 10.6673Z" fill="#15141F"/>
</g>
<defs>
<clipPath id="clip0_63_748">
<rect width="20.6585" height="20.6585" fill="white" transform="translate(0.280518 0.280396)"/>
</clipPath>
</defs>
</svg>
