<svg width="92" height="28" viewBox="0 0 92 28" fill="none" xmlns="http://www.w3.org/2000/svg">
<g clip-path="url(#clip0_445_5906)">
<path d="M88.4779 0.0322266H3.75512C1.88348 0.0322266 0.366211 1.58398 0.366211 3.49816V24.2938C0.366211 26.2079 1.88348 27.7597 3.75512 27.7597H88.4779C90.3495 27.7597 91.8668 26.2079 91.8668 24.2938V3.49816C91.8668 1.58398 90.3495 0.0322266 88.4779 0.0322266Z" fill="white"/>
<path d="M32.5067 7.13071C32.5179 7.38492 32.4786 7.63881 32.3912 7.87707C32.3038 8.11533 32.1702 8.33304 31.9984 8.51709C31.8058 8.72039 31.5735 8.87983 31.3165 8.98495C31.0596 9.09007 30.7838 9.1385 30.5073 9.12709C30.2292 9.13343 29.9527 9.08133 29.6951 8.97402C29.4374 8.86671 29.204 8.70648 29.0094 8.50322C28.6144 8.09006 28.3933 7.53521 28.3933 6.95742C28.3933 6.37962 28.6144 5.82477 29.0094 5.41161C29.3113 5.10986 29.6937 4.90609 30.1086 4.82593C30.5234 4.74576 30.9522 4.79277 31.341 4.96104C31.5854 5.06379 31.8034 5.22271 31.9781 5.42547L31.6188 5.79286C31.4842 5.62703 31.3137 5.49558 31.1207 5.40894C30.9278 5.32231 30.7177 5.28287 30.5073 5.29377C30.2416 5.29565 29.9804 5.36405 29.7466 5.493C29.5127 5.62195 29.3133 5.80752 29.1657 6.03349C29.0182 6.25946 28.927 6.51895 28.9002 6.78927C28.8733 7.0596 28.9116 7.33254 29.0117 7.58424C29.1119 7.83593 29.2707 8.05871 29.4745 8.23312C29.6782 8.40752 29.9206 8.52823 30.1805 8.5847C30.4403 8.64117 30.7098 8.63168 30.9653 8.55706C31.2207 8.48243 31.4544 8.34495 31.646 8.15663C31.853 7.92448 31.973 7.62491 31.9848 7.31094H30.5073V6.81185H32.4796C32.4951 6.91747 32.5041 7.02396 32.5067 7.13071Z" fill="#010101" stroke="#010101" stroke-width="0.277275" stroke-miterlimit="10"/>
<path d="M35.6109 5.39748H33.7809V6.71453H35.4482V7.21363H33.7809V8.53068H35.6109V9.04364H33.2522V4.88452H35.6109V5.39748Z" fill="#010101" stroke="#010101" stroke-width="0.277275" stroke-miterlimit="10"/>
<path d="M37.8341 9.04364H37.3123V5.39748H36.1736V4.88452H38.9999V5.39748H37.8341V9.04364Z" fill="#010101" stroke="#010101" stroke-width="0.277275" stroke-miterlimit="10"/>
<path d="M40.9924 9.04364V4.88452H41.5143V9.04364H40.9924Z" fill="#010101" stroke="#010101" stroke-width="0.277275" stroke-miterlimit="10"/>
<path d="M43.8324 9.04364H43.3106V5.39748H42.1719V4.88452H44.9643V5.39748H43.8324V9.04364Z" fill="#010101" stroke="#010101" stroke-width="0.277275" stroke-miterlimit="10"/>
<path d="M50.2577 8.50294C50.0619 8.70331 49.8295 8.86227 49.5736 8.97072C49.3178 9.07917 49.0435 9.13499 48.7666 9.13499C48.4896 9.13499 48.2154 9.07917 47.9595 8.97072C47.7037 8.86227 47.4712 8.70331 47.2755 8.50294C46.8923 8.08637 46.679 7.53599 46.679 6.96407C46.679 6.39215 46.8923 5.84177 47.2755 5.4252C47.467 5.21918 47.6987 5.05658 47.9556 4.94792C48.2124 4.83926 48.4887 4.78696 48.7666 4.7944C49.0441 4.78991 49.3195 4.84356 49.5759 4.95204C49.8324 5.06053 50.0644 5.22155 50.2577 5.4252C50.4526 5.62795 50.6058 5.86858 50.7082 6.13289C50.8107 6.3972 50.8603 6.67982 50.8541 6.96407C50.863 7.24867 50.8147 7.53211 50.7121 7.79682C50.6095 8.06153 50.4548 8.30187 50.2577 8.50294ZM47.6618 8.15635C47.8062 8.30599 47.9782 8.42481 48.1678 8.50591C48.3575 8.58701 48.561 8.62877 48.7666 8.62877C48.9721 8.62877 49.1757 8.58701 49.3653 8.50591C49.555 8.42481 49.727 8.30599 49.8714 8.15635C50.1638 7.83133 50.3261 7.40577 50.3261 6.96407C50.3261 6.52237 50.1638 6.09681 49.8714 5.77179C49.727 5.62215 49.555 5.50333 49.3653 5.42223C49.1757 5.34113 48.9721 5.29937 48.7666 5.29937C48.561 5.29937 48.3575 5.34113 48.1678 5.42223C47.9782 5.50333 47.8062 5.62215 47.6618 5.77179C47.3693 6.09681 47.207 6.52237 47.207 6.96407C47.207 7.40577 47.3693 7.83133 47.6618 8.15635Z" fill="#010101" stroke="#010101" stroke-width="0.277275" stroke-miterlimit="10"/>
<path d="M51.593 9.04364V4.88452H52.2234L54.2025 8.1217V7.31761V4.88452H54.7244V9.04364H54.1821L52.1149 5.65396V6.45112V9.04364H51.593Z" fill="#010101" stroke="#010101" stroke-width="0.277275" stroke-miterlimit="10"/>
<path d="M46.5505 15.1091C45.9794 15.1105 45.4216 15.285 44.9475 15.6106C44.4734 15.9362 44.1044 16.3983 43.8871 16.9384C43.6698 17.4785 43.614 18.0724 43.7267 18.645C43.8394 19.2175 44.1156 19.743 44.5204 20.155C44.9251 20.567 45.4403 20.847 46.0006 20.9596C46.561 21.0722 47.1414 21.0124 47.6684 20.7876C48.1955 20.5628 48.6456 20.1833 48.9618 19.6969C49.2779 19.2105 49.4459 18.6392 49.4446 18.0551C49.4501 17.6655 49.3789 17.2788 49.2353 16.9179C49.0916 16.557 48.8784 16.2293 48.6084 15.9544C48.3383 15.6796 48.017 15.4631 47.6634 15.3178C47.3099 15.1726 46.9314 15.1016 46.5505 15.1091ZM46.5505 19.8436C46.2004 19.8686 45.8512 19.7854 45.548 19.6047C45.2448 19.424 45.0018 19.1542 44.8506 18.8304C44.6993 18.5066 44.6468 18.1438 44.6999 17.7891C44.753 17.4343 44.9091 17.1041 45.1481 16.8414C45.3871 16.5787 45.6978 16.3955 46.0399 16.3158C46.382 16.236 46.7397 16.2634 47.0664 16.3943C47.3931 16.5252 47.6737 16.7536 47.8718 17.0498C48.0699 17.346 48.1763 17.6963 48.1771 18.0551C48.1881 18.2825 48.1543 18.5098 48.078 18.7237C48.0017 18.9375 47.8842 19.1335 47.7326 19.3002C47.581 19.4669 47.3983 19.6009 47.1953 19.6942C46.9922 19.7875 46.773 19.8383 46.5505 19.8436ZM40.2335 15.1091C39.6625 15.1105 39.1046 15.285 38.6306 15.6106C38.1565 15.9362 37.7875 16.3983 37.5702 16.9384C37.3529 17.4785 37.2971 18.0724 37.4098 18.645C37.5225 19.2175 37.7987 19.743 38.2034 20.155C38.6082 20.567 39.1233 20.847 39.6837 20.9596C40.244 21.0722 40.8244 21.0124 41.3515 20.7876C41.8786 20.5628 42.3287 20.1833 42.6448 19.6969C42.961 19.2105 43.129 18.6392 43.1277 18.0551C43.1332 17.6655 43.062 17.2788 42.9183 16.9179C42.7747 16.557 42.5615 16.2293 42.2914 15.9544C42.0214 15.6796 41.7001 15.4631 41.3465 15.3178C40.993 15.1726 40.6145 15.1016 40.2335 15.1091ZM40.2335 19.8436C39.8835 19.8686 39.5342 19.7854 39.2311 19.6047C38.9279 19.424 38.6849 19.1542 38.5337 18.8304C38.3824 18.5066 38.3299 18.1438 38.383 17.7891C38.436 17.4343 38.5922 17.1041 38.8312 16.8414C39.0702 16.5787 39.3809 16.3955 39.723 16.3158C40.0651 16.236 40.4228 16.2634 40.7494 16.3943C41.0761 16.5252 41.3568 16.7536 41.5549 17.0498C41.753 17.346 41.8594 17.6963 41.8602 18.0551C41.8711 18.2825 41.8374 18.5098 41.7611 18.7237C41.6847 18.9375 41.5673 19.1335 41.4157 19.3002C41.2641 19.4669 41.0814 19.6009 40.8783 19.6942C40.6753 19.7875 40.4561 19.8383 40.2335 19.8436ZM32.7237 16.0172V17.2649H35.6517C35.6058 17.8526 35.3669 18.4071 34.9739 18.8384C34.6802 19.1445 34.327 19.3841 33.937 19.5417C33.547 19.6993 33.1291 19.7715 32.7101 19.7534C31.8473 19.7534 31.0198 19.4029 30.4097 18.7789C29.7996 18.1549 29.4568 17.3086 29.4568 16.4262C29.4568 15.5437 29.7996 14.6974 30.4097 14.0734C31.0198 13.4494 31.8473 13.0989 32.7101 13.0989C33.5373 13.0863 34.3361 13.4076 34.9333 13.9931L35.7941 13.1127C35.3901 12.7041 34.9104 12.382 34.3832 12.1654C33.856 11.9488 33.2918 11.8419 32.7237 11.8511C32.1212 11.8271 31.5201 11.9278 30.9565 12.1471C30.3929 12.3664 29.8784 12.6998 29.4437 13.1273C29.0091 13.5548 28.6634 14.0676 28.4272 14.6351C28.1911 15.2025 28.0693 15.8129 28.0693 16.4296C28.0693 17.0463 28.1911 17.6567 28.4272 18.2241C28.6634 18.7916 29.0091 19.3044 29.4437 19.732C29.8784 20.1595 30.3929 20.4929 30.9565 20.7121C31.5201 20.9314 32.1212 21.0321 32.7237 21.0081C33.3035 21.0318 33.8816 20.9298 34.4201 20.7088C34.9586 20.4878 35.4453 20.1527 35.8483 19.7257C36.56 18.9261 36.9393 17.8743 36.9056 16.7935C36.908 16.5334 36.8876 16.2736 36.8446 16.0172H32.7237ZM63.434 16.9876C63.2573 16.4558 62.9267 15.9914 62.4861 15.6559C62.0456 15.3205 61.5158 15.1298 60.9669 15.1091C60.5961 15.1084 60.2292 15.1854 59.8887 15.3354C59.5482 15.4855 59.2414 15.7054 58.9873 15.9815C58.7332 16.2576 58.5372 16.5841 58.4114 16.9408C58.2856 17.2974 58.2326 17.6767 58.2558 18.0551C58.25 18.6879 58.4445 19.3056 58.8103 19.816C59.176 20.3264 59.6935 20.7021 60.2852 20.8869C60.877 21.0717 61.5113 21.0558 62.0935 20.8415C62.6757 20.6273 63.1745 20.2261 63.5154 19.698L62.5326 19.0048C62.3861 19.2545 62.1783 19.4608 61.9298 19.603C61.6813 19.7453 61.4008 19.8187 61.116 19.8158C60.8222 19.8282 60.5317 19.7495 60.2825 19.5899C60.0333 19.4303 59.8371 19.1973 59.7198 18.9216L63.5764 17.2926L63.434 16.9876ZM59.5029 17.972C59.4891 17.7566 59.5175 17.5407 59.5864 17.3367C59.6553 17.1328 59.7633 16.9449 59.9041 16.7842C60.0448 16.6235 60.2155 16.4931 60.4062 16.4006C60.5968 16.3082 60.8036 16.2556 61.0143 16.2459C61.2327 16.2323 61.4502 16.2849 61.6395 16.3971C61.8288 16.5093 61.9815 16.6761 62.0785 16.8767L59.5029 17.972ZM56.3715 20.8279H57.639V12.1631H56.3715V20.8279ZM54.2975 15.7676H54.2501C54.0607 15.5471 53.8271 15.371 53.565 15.2513C53.303 15.1317 53.0188 15.0714 52.7318 15.0744C51.9911 15.1112 51.2927 15.438 50.7812 15.9871C50.2697 16.5362 49.9843 17.2655 49.9843 18.0239C49.9843 18.7824 50.2697 19.5117 50.7812 20.0608C51.2927 20.6099 51.9911 20.9367 52.7318 20.9735C53.0192 20.9793 53.3043 20.9203 53.5667 20.8004C53.8292 20.6806 54.0625 20.503 54.2501 20.2803H54.2975V20.7031C54.2975 21.833 53.7078 22.4361 52.7589 22.4361C52.442 22.429 52.1342 22.3257 51.8747 22.1393C51.6153 21.9529 51.4158 21.6919 51.3017 21.3894L50.2037 21.8538C50.4067 22.3752 50.7597 22.8214 51.2159 23.1333C51.6722 23.4452 52.2102 23.6082 52.7589 23.6006C54.2433 23.6006 55.4701 22.7064 55.4701 20.5298V15.2824H54.2975V15.7676ZM52.8403 19.8436C52.3962 19.8152 51.9794 19.6149 51.6747 19.2832C51.37 18.9516 51.2004 18.5137 51.2004 18.0586C51.2004 17.6036 51.37 17.1656 51.6747 16.834C51.9794 16.5023 52.3962 16.302 52.8403 16.2737C53.0573 16.2832 53.2703 16.3374 53.4665 16.4328C53.6626 16.5283 53.838 16.6632 53.9822 16.8294C54.1264 16.9956 54.2364 17.1897 54.3057 17.4003C54.375 17.6109 54.4022 17.8336 54.3856 18.0551C54.4041 18.2774 54.3783 18.5013 54.3098 18.7131C54.2413 18.9249 54.1315 19.1203 53.9871 19.2875C53.8426 19.4547 53.6665 19.5901 53.4694 19.6857C53.2723 19.7813 53.0583 19.835 52.8403 19.8436ZM69.3714 12.1631H66.3349V20.8279H67.6024V17.5422H69.3714C69.7326 17.5687 70.0953 17.5189 70.4369 17.3957C70.7784 17.2726 71.0915 17.0788 71.3566 16.8265C71.6217 16.5741 71.8331 16.2686 71.9777 15.929C72.1223 15.5894 72.1969 15.223 72.1969 14.8526C72.1969 14.4822 72.1223 14.1158 71.9777 13.7762C71.8331 13.4366 71.6217 13.1311 71.3566 12.8788C71.0915 12.6264 70.7784 12.4326 70.4369 12.3095C70.0953 12.1864 69.7326 12.1365 69.3714 12.1631ZM69.3714 16.3222H67.6024V13.3692H69.3985C69.589 13.3692 69.7776 13.4076 69.9536 13.4821C70.1295 13.5567 70.2894 13.6659 70.4241 13.8037C70.5588 13.9414 70.6657 14.105 70.7385 14.2849C70.8114 14.4649 70.849 14.6578 70.849 14.8526C70.849 15.0474 70.8114 15.2403 70.7385 15.4203C70.6657 15.6003 70.5588 15.7638 70.4241 15.9016C70.2894 16.0393 70.1295 16.1486 69.9536 16.2231C69.7776 16.2977 69.589 16.336 69.3985 16.336L69.3714 16.3222ZM77.193 15.0814C76.7314 15.0523 76.2716 15.1622 75.8705 15.3975C75.4694 15.6328 75.1445 15.9832 74.936 16.4054L76.0543 16.8837C76.1673 16.6753 76.3369 16.5048 76.5426 16.3929C76.7483 16.281 76.9812 16.2323 77.2133 16.2529C77.3742 16.2336 77.5373 16.2474 77.6929 16.2933C77.8486 16.3392 77.9937 16.4163 78.1199 16.5202C78.2461 16.6241 78.3508 16.7527 78.4279 16.8984C78.5049 17.0441 78.5529 17.204 78.5689 17.3689V17.4521C78.1613 17.233 77.7077 17.1188 77.2472 17.1193C76.0408 17.1193 74.8072 17.8125 74.8072 19.0741C74.8191 19.3423 74.8836 19.6052 74.9969 19.8474C75.1101 20.0896 75.2698 20.306 75.4664 20.4838C75.6631 20.6616 75.8926 20.7972 76.1415 20.8825C76.3903 20.9678 76.6534 21.0011 76.9151 20.9804C77.2332 20.9984 77.5502 20.9295 77.8336 20.7809C78.1171 20.6323 78.3568 20.4093 78.5282 20.1347H78.5689V20.8279H79.7889V17.4937C79.7889 15.9756 78.6638 15.0952 77.2201 15.0952L77.193 15.0814ZM77.0371 19.8297C76.6237 19.8297 76.0476 19.6148 76.0476 19.0949C76.0476 18.4017 76.766 18.1661 77.4031 18.1661C77.8057 18.1559 78.2037 18.2564 78.5553 18.4572C78.5128 18.8336 78.3383 19.1815 78.0641 19.4365C77.7899 19.6914 77.4347 19.836 77.0642 19.8436L77.0371 19.8297ZM84.2352 15.2824L82.7847 19.0395H82.744L81.2394 15.2824H79.8838L82.1408 20.5367L80.853 23.4551H82.1747L85.645 15.2824H84.2352ZM72.8484 20.8279H74.1091V12.1631H72.8484V20.8279Z" fill="#010101"/>
<path d="M7.44208 5.25897C7.21873 5.52905 7.10477 5.87623 7.12352 6.22943V21.5627C7.10046 21.9165 7.21495 22.2653 7.44208 22.5332L7.48952 22.5886L15.8872 14.0001V13.7921L7.48952 5.21045L7.44208 5.25897Z" fill="url(#paint0_linear_445_5906)"/>
<path d="M18.6664 16.8629L15.8875 14V13.7921L18.6664 10.9292L18.7274 10.9708L22.0553 12.8978C23.0042 13.4455 23.0042 14.3466 22.0553 14.9012L18.7409 16.8282L18.6664 16.8629Z" fill="url(#paint1_linear_445_5906)"/>
<path d="M18.7478 16.8212L15.8876 13.896L7.44238 22.5331C7.63391 22.7075 7.87905 22.8078 8.13532 22.8166C8.39158 22.8255 8.64279 22.7423 8.84539 22.5816L18.7478 16.8212Z" fill="url(#paint2_linear_445_5906)"/>
<path d="M18.7478 10.9707L8.84539 5.2173C8.64411 5.05434 8.39309 4.96918 8.13648 4.97679C7.87987 4.98439 7.6341 5.08428 7.44238 5.25889L15.8876 13.896L18.7478 10.9707Z" fill="url(#paint3_linear_445_5906)"/>
<path opacity="0.2" d="M18.6665 16.7588L8.84539 22.4776C8.65015 22.6283 8.41221 22.7098 8.16761 22.7098C7.92301 22.7098 7.68507 22.6283 7.48983 22.4776L7.44238 22.5261L7.48983 22.5816C7.68507 22.7323 7.92301 22.8138 8.16761 22.8138C8.41221 22.8138 8.65015 22.7323 8.84539 22.5816L18.7478 16.8212L18.6665 16.7588Z" fill="white"/>
<path opacity="0.12" d="M7.44201 22.4361C7.2243 22.1612 7.11761 21.8115 7.14378 21.4587V21.5627C7.12072 21.9165 7.23521 22.2653 7.46234 22.5332L7.50978 22.4847L7.44201 22.4361Z" fill="white"/>
<path opacity="0.12" d="M22.0552 14.7971L18.6663 16.7589L18.7273 16.8212L22.0552 14.8942C22.2516 14.8092 22.422 14.6717 22.5485 14.496C22.6749 14.3204 22.7527 14.1131 22.7736 13.896C22.7312 14.0933 22.6442 14.2776 22.5194 14.4341C22.3946 14.5906 22.2356 14.715 22.0552 14.7971Z" fill="white"/>
<path opacity="0.25" d="M8.84535 5.3144L22.0553 12.9949C22.2357 13.0771 22.3947 13.2014 22.5195 13.3579C22.6443 13.5145 22.7314 13.6988 22.7738 13.8961C22.7528 13.679 22.675 13.4717 22.5486 13.296C22.4222 13.1204 22.2518 12.9828 22.0553 12.8979L8.84535 5.21736C7.90323 4.66281 7.12378 5.12031 7.12378 6.22941V6.33339C7.14411 5.22429 7.90323 4.76679 8.84535 5.3144Z" fill="#010101"/>
</g>
<defs>
<linearGradient id="paint0_linear_445_5906" x1="15.1417" y1="6.07" x2="3.51295" y2="17.4403" gradientUnits="userSpaceOnUse">
<stop stop-color="#00A0FF"/>
<stop offset="0.01" stop-color="#00A1FF"/>
<stop offset="0.26" stop-color="#00BEFF"/>
<stop offset="0.51" stop-color="#00D2FF"/>
<stop offset="0.76" stop-color="#00DFFF"/>
<stop offset="1" stop-color="#00E3FF"/>
</linearGradient>
<linearGradient id="paint1_linear_445_5906" x1="23.2956" y1="13.896" x2="6.90006" y2="13.896" gradientUnits="userSpaceOnUse">
<stop stop-color="#FFE000"/>
<stop offset="0.41" stop-color="#FFBD00"/>
<stop offset="0.78" stop-color="#FFA500"/>
<stop offset="1" stop-color="#FF9C00"/>
</linearGradient>
<linearGradient id="paint2_linear_445_5906" x1="17.1957" y1="15.4903" x2="1.42288" y2="30.9058" gradientUnits="userSpaceOnUse">
<stop stop-color="#FF3A44"/>
<stop offset="1" stop-color="#C31162"/>
</linearGradient>
<linearGradient id="paint3_linear_445_5906" x1="5.31415" y1="0.157041" x2="12.3551" y2="7.04157" gradientUnits="userSpaceOnUse">
<stop stop-color="#32A071"/>
<stop offset="0.07" stop-color="#2DA771"/>
<stop offset="0.48" stop-color="#15CF74"/>
<stop offset="0.8" stop-color="#06E775"/>
<stop offset="1" stop-color="#00F076"/>
</linearGradient>
<clipPath id="clip0_445_5906">
<rect width="91.5006" height="27.7275" fill="white" transform="translate(0.366211 0.0322266)"/>
</clipPath>
</defs>
</svg>
