<svg width="199" height="47" viewBox="0 0 199 47" fill="none" xmlns="http://www.w3.org/2000/svg">
<g id="Frame" clip-path="url(#clip0_63_729)">
<g id="Group">
<path id="Vector" d="M99.8821 25.3146C95.8773 25.3146 92.6035 28.3658 92.6035 32.5614C92.6035 36.7569 95.8667 39.8082 99.8821 39.8082C103.897 39.8082 107.161 36.7357 107.161 32.5614C107.161 28.387 103.897 25.3146 99.8821 25.3146ZM99.8821 36.9582C97.689 36.9582 95.7925 35.1465 95.7925 32.5614C95.7925 29.9762 97.689 28.1645 99.8821 28.1645C102.075 28.1645 103.972 29.9445 103.972 32.5614C103.972 35.1783 102.075 36.9582 99.8821 36.9582ZM84.0111 25.3146C80.0063 25.3146 76.7326 28.3658 76.7326 32.5614C76.7326 36.7569 79.9957 39.8082 84.0111 39.8082C88.0266 39.8082 91.2897 36.7357 91.2897 32.5614C91.2897 28.387 88.0266 25.3146 84.0111 25.3146ZM84.0111 36.9582C81.818 36.9582 79.9216 35.1465 79.9216 32.5614C79.9216 29.9762 81.818 28.1645 84.0111 28.1645C86.2043 28.1645 88.1007 29.9445 88.1007 32.5614C88.1007 35.1783 86.2043 36.9582 84.0111 36.9582ZM65.1313 27.5395V30.6119H72.4841C72.2616 32.3389 71.6895 33.5996 70.8101 34.479C69.74 35.5491 68.0661 36.7251 65.1313 36.7251C60.5968 36.7251 57.0581 33.0699 57.0581 28.546C57.0581 24.022 60.5968 20.3668 65.1313 20.3668C67.5787 20.3668 69.3586 21.3309 70.6724 22.5599L72.8443 20.388C71.0008 18.6293 68.564 17.2838 65.1313 17.2838C58.9228 17.2838 53.7102 22.3374 53.7102 28.5354C53.7102 34.7333 58.9228 39.787 65.1313 39.787C68.4793 39.787 71.0114 38.6851 72.982 36.6297C75.0162 34.5955 75.6413 31.7456 75.6413 29.4359C75.6413 28.7261 75.5883 28.0586 75.4718 27.5183H65.1207L65.1313 27.5395ZM142.335 29.9233C141.731 28.3023 139.888 25.3146 136.127 25.3146C132.366 25.3146 129.293 28.2493 129.293 32.5614C129.293 36.6191 132.366 39.8082 136.487 39.8082C139.814 39.8082 141.731 37.774 142.526 36.5979L140.057 34.9558C139.231 36.1636 138.108 36.9582 136.487 36.9582C134.866 36.9582 133.711 36.2165 132.969 34.7651L142.664 30.7603L142.335 29.9339V29.9233ZM132.45 32.3389C132.366 29.5419 134.622 28.1116 136.243 28.1116C137.504 28.1116 138.574 28.7473 138.934 29.6478L132.461 32.3389H132.45ZM124.568 39.3632H127.757V18.0678H124.568V39.3738V39.3632ZM119.355 26.925H119.249C118.539 26.0774 117.162 25.304 115.435 25.304C111.812 25.304 108.485 28.493 108.485 32.5825C108.485 36.6721 111.812 39.7976 115.435 39.7976C117.162 39.7976 118.539 39.0241 119.249 38.1554H119.355V39.1937C119.355 41.9695 117.872 43.4527 115.488 43.4527C113.539 43.4527 112.331 42.0542 111.833 40.8676L109.057 42.0225C109.852 43.9401 111.971 46.3027 115.478 46.3027C119.207 46.3027 122.364 44.1096 122.364 38.7487V25.7383H119.345V26.9144L119.355 26.925ZM115.7 36.9476C113.507 36.9476 111.663 35.1041 111.663 32.5825C111.663 30.061 113.507 28.1645 115.7 28.1645C117.893 28.1645 119.567 30.0292 119.567 32.5825C119.567 35.1359 117.861 36.9476 115.7 36.9476ZM157.242 18.0572H149.624V39.3632H152.803V31.29H157.242C160.77 31.29 164.234 28.7367 164.234 24.6789C164.234 20.6211 160.77 18.0678 157.242 18.0678V18.0572ZM157.327 28.3235H152.803V21.0237H157.327C159.7 21.0237 161.056 22.9943 161.056 24.6789C161.056 26.3634 159.711 28.3341 157.327 28.3341V28.3235ZM176.98 25.2616C174.681 25.2616 172.297 26.2787 171.312 28.5248L174.13 29.7008C174.734 28.5248 175.857 28.1434 177.033 28.1434C178.675 28.1434 180.349 29.1287 180.381 30.8874V31.1099C179.809 30.7814 178.569 30.2835 177.065 30.2835C174.024 30.2835 170.93 31.9575 170.93 35.0829C170.93 37.9329 173.42 39.7658 176.217 39.7658C178.357 39.7658 179.533 38.8017 180.275 37.6786H180.381V39.3208H183.453V31.1523C183.453 27.3699 180.635 25.2616 176.991 25.2616H176.98ZM176.599 36.937C175.56 36.937 174.109 36.4178 174.109 35.1253C174.109 33.4831 175.92 32.8474 177.478 32.8474C178.876 32.8474 179.533 33.1441 180.381 33.5573C180.137 35.5279 178.431 36.9264 176.599 36.9264V36.937ZM194.631 25.7278L190.986 34.9664H190.88L187.098 25.7278H183.676L189.344 38.6321L186.113 45.8154H189.429L198.169 25.7278H194.631ZM165.993 39.3526H169.172V18.0678H165.993V39.3738V39.3526Z" fill="white"/>
<g id="Group_2">
<path id="Vector_2" d="M1.55232 1.10559C1.05437 1.62473 0.768311 2.44052 0.768311 3.5V41.1537C0.768311 42.2131 1.06496 43.0183 1.55232 43.5481L1.67946 43.6752L22.7736 22.5811V22.0832L1.67946 0.989044L1.55232 1.11618V1.10559Z" fill="#5BC9F4"/>
<path id="Vector_3" d="M29.8083 29.6159L22.7734 22.581V22.0831L29.8083 15.0482L29.9673 15.1435L38.2947 19.8794C40.6785 21.2355 40.6785 23.4392 38.2947 24.7953L29.9673 29.5312L29.8083 29.6265V29.6159Z" fill="url(#paint0_linear_63_729)"/>
<path id="Vector_4" d="M29.9673 29.5206L22.7735 22.3267L1.55225 43.548C2.33626 44.3744 3.62881 44.4803 5.09089 43.6539L29.9673 29.5206Z" fill="url(#paint1_linear_63_729)"/>
<path id="Vector_5" d="M29.9673 15.1435L5.09089 1.01013C3.63941 0.173145 2.33626 0.279092 1.55225 1.10548L22.7735 22.3267L29.9673 15.1329V15.1435Z" fill="url(#paint2_linear_63_729)"/>
</g>
</g>
<g id="Group_3">
<path id="Vector_6" d="M61.9 2.31346C61.2644 1.74134 60.4168 1.38112 59.4844 1.38112C57.3867 1.38112 55.7763 3.10806 55.7763 5.2376C55.7763 7.36714 57.3867 9.0729 59.4844 9.0729C61.2856 9.0729 62.5993 8.02402 62.6841 6.37124H59.8341V5.19522H64.2309C64.2309 8.71267 62.3556 10.376 59.4844 10.376C56.6133 10.376 54.4202 8.07699 54.4202 5.2376C54.4202 2.39821 56.6345 0.088562 59.4844 0.088562C60.8088 0.088562 62.006 0.597109 62.8748 1.4129L61.9 2.31346Z" fill="white"/>
<path id="Vector_7" d="M72.0074 0.204926V1.4657H67.4198V4.66531H71.4247V5.93668H67.4198V8.96677H72.1451V10.2275H66.0637V0.204926H71.9968H72.0074Z" fill="white"/>
<path id="Vector_8" d="M80.7904 0.204926V1.48689H77.7497V10.2275H76.383V1.48689H73.3423V0.204926H80.7904Z" fill="white"/>
<path id="Vector_9" d="M87.2743 0.204926V10.2275H85.9182V0.204926H87.2743Z" fill="white"/>
<path id="Vector_10" d="M96.5025 0.204926V1.48689H93.4618V10.2275H92.0951V1.48689H89.0544V0.204926H96.5025Z" fill="white"/>
<path id="Vector_11" d="M106.048 0.0885315C108.92 0.0885315 111.144 2.38759 111.144 5.23757C111.144 8.08755 108.92 10.376 106.048 10.376C103.177 10.376 100.984 8.07696 100.984 5.23757C100.984 2.39818 103.198 0.0885315 106.048 0.0885315V0.0885315ZM106.048 9.06227C108.157 9.06227 109.778 7.35652 109.778 5.23757C109.778 3.11863 108.167 1.39168 106.048 1.39168C103.929 1.39168 102.34 3.10803 102.34 5.23757C102.34 7.36711 103.951 9.06227 106.048 9.06227Z" fill="white"/>
<path id="Vector_12" d="M119.143 10.2275L114.577 2.6735V10.2275H113.221V0.204926H114.556L119.08 7.6954V0.204926H120.436V10.2275H119.143Z" fill="white"/>
</g>
</g>
<defs>
<linearGradient id="paint0_linear_63_729" x1="36.7479" y1="22.3268" x2="-4.44443" y2="22.3268" gradientUnits="userSpaceOnUse">
<stop stop-color="#FEE000"/>
<stop offset="0.42" stop-color="#FBBC0E"/>
<stop offset="0.78" stop-color="#F9A318"/>
<stop offset="1" stop-color="#F99B1C"/>
</linearGradient>
<linearGradient id="paint1_linear_63_729" x1="26.0579" y1="26.2362" x2="-12.6871" y2="64.9917" gradientUnits="userSpaceOnUse">
<stop stop-color="#EF4547"/>
<stop offset="1" stop-color="#C6186D"/>
</linearGradient>
<linearGradient id="paint2_linear_63_729" x1="-12.8672" y1="-20.4972" x2="18.7793" y2="11.1387" gradientUnits="userSpaceOnUse">
<stop stop-color="#279E6F"/>
<stop offset="0.04" stop-color="#2B9F6E"/>
<stop offset="0.46" stop-color="#52B16B"/>
<stop offset="0.8" stop-color="#6BBC69"/>
<stop offset="1" stop-color="#74C169"/>
</linearGradient>
<clipPath id="clip0_63_729">
<rect width="197.401" height="46.2248" fill="white" transform="translate(0.768311 0.0885925)"/>
</clipPath>
</defs>
</svg>
