<svg width="22" height="21" viewBox="0 0 22 21" fill="none" xmlns="http://www.w3.org/2000/svg">
<g clip-path="url(#clip0_63_753)">
<path fill-rule="evenodd" clip-rule="evenodd" d="M6.92573 1.19795C7.93542 1.15147 8.25735 1.14114 10.8293 1.14114C13.4013 1.14114 13.7233 1.15233 14.7321 1.19795C15.7409 1.24358 16.4295 1.40454 17.0321 1.63781C17.663 1.87624 18.2354 2.24896 18.7088 2.73099C19.1909 3.20355 19.5627 3.77511 19.8003 4.40691C20.0344 5.00945 20.1945 5.69807 20.241 6.70518C20.2875 7.71658 20.2978 8.03851 20.2978 10.6096C20.2978 13.1816 20.2866 13.5036 20.241 14.5132C20.1954 15.5203 20.0344 16.209 19.8003 16.8115C19.5627 17.4434 19.1903 18.0159 18.7088 18.4891C18.2354 18.9712 17.663 19.343 17.0321 19.5806C16.4295 19.8147 15.7409 19.9748 14.7338 20.0213C13.7233 20.0678 13.4013 20.0781 10.8293 20.0781C8.25735 20.0781 7.93542 20.0669 6.92573 20.0213C5.91863 19.9757 5.23001 19.8147 4.62747 19.5806C3.9956 19.343 3.4231 18.9705 2.94983 18.4891C2.46812 18.0163 2.09535 17.4441 1.85751 16.8124C1.62424 16.2098 1.46413 15.5212 1.41765 14.5141C1.37117 13.5027 1.36084 13.1808 1.36084 10.6096C1.36084 8.03765 1.37203 7.71572 1.41765 6.7069C1.46327 5.69807 1.62424 5.00945 1.85751 4.40691C2.0957 3.77518 2.46876 3.20296 2.95069 2.73013C3.42329 2.24853 3.99521 1.87576 4.62661 1.63781C5.22915 1.40454 5.91777 1.24444 6.92487 1.19795H6.92573ZM14.6555 2.90228C13.657 2.85666 13.3574 2.84719 10.8293 2.84719C8.30125 2.84719 8.0017 2.85666 7.0032 2.90228C6.07959 2.94446 5.57862 3.09854 5.24464 3.22852C4.80307 3.40067 4.48716 3.60467 4.15577 3.93607C3.84162 4.24169 3.59986 4.61374 3.44821 5.02495C3.31824 5.35893 3.16416 5.8599 3.12198 6.78351C3.07636 7.782 3.06689 8.08155 3.06689 10.6096C3.06689 13.1377 3.07636 13.4373 3.12198 14.4358C3.16416 15.3594 3.31824 15.8604 3.44821 16.1943C3.59971 16.6049 3.84159 16.9776 4.15577 17.2832C4.46134 17.5974 4.83406 17.8393 5.24464 17.9908C5.57862 18.1207 6.07959 18.2748 7.0032 18.317C8.0017 18.3626 8.30039 18.3721 10.8293 18.3721C13.3583 18.3721 13.657 18.3626 14.6555 18.317C15.5791 18.2748 16.08 18.1207 16.414 17.9908C16.8556 17.8186 17.1715 17.6146 17.5029 17.2832C17.8171 16.9776 18.059 16.6049 18.2105 16.1943C18.3404 15.8604 18.4945 15.3594 18.5367 14.4358C18.5823 13.4373 18.5918 13.1377 18.5918 10.6096C18.5918 8.08155 18.5823 7.782 18.5367 6.78351C18.4945 5.8599 18.3404 5.35893 18.2105 5.02495C18.0383 4.58337 17.8343 4.26747 17.5029 3.93607C17.1973 3.62195 16.8252 3.38019 16.414 3.22852C16.08 3.09854 15.5791 2.94446 14.6555 2.90228ZM9.61995 13.5285C10.2954 13.8097 11.0474 13.8476 11.7477 13.6359C12.448 13.4241 13.053 12.9758 13.4595 12.3675C13.866 11.7593 14.0487 11.0287 13.9764 10.3007C13.904 9.5727 13.5812 8.89237 13.063 8.37594C12.7327 8.04581 12.3333 7.79303 11.8935 7.6358C11.4538 7.47856 10.9846 7.42079 10.5199 7.46663C10.0551 7.51247 9.60631 7.66079 9.20575 7.9009C8.80519 8.14102 8.46285 8.46696 8.20338 8.85526C7.94391 9.24356 7.77376 9.68456 7.70518 10.1465C7.6366 10.6085 7.67129 11.0799 7.80677 11.5268C7.94224 11.9737 8.17513 12.3851 8.48866 12.7312C8.80218 13.0773 9.18855 13.3496 9.61995 13.5285ZM7.38797 7.16827C7.83989 6.71634 8.37641 6.35786 8.96688 6.11328C9.55735 5.86869 10.1902 5.74281 10.8293 5.74281C11.4685 5.74281 12.1013 5.86869 12.6918 6.11328C13.2823 6.35786 13.8188 6.71634 14.2707 7.16827C14.7226 7.6202 15.0811 8.15671 15.3257 8.74718C15.5703 9.33766 15.6962 9.97052 15.6962 10.6096C15.6962 11.2488 15.5703 11.8816 15.3257 12.4721C15.0811 13.0626 14.7226 13.5991 14.2707 14.051C13.358 14.9637 12.1201 15.4765 10.8293 15.4765C9.53857 15.4765 8.30067 14.9637 7.38797 14.051C6.47526 13.1383 5.96251 11.9004 5.96251 10.6096C5.96251 9.31888 6.47526 8.08098 7.38797 7.16827ZM16.7756 6.4676C16.8875 6.36196 16.9772 6.23492 17.0392 6.09401C17.1012 5.95309 17.1343 5.80117 17.1366 5.64723C17.1388 5.49329 17.1102 5.34046 17.0523 5.1978C16.9944 5.05514 16.9085 4.92554 16.7996 4.81668C16.6908 4.70781 16.5612 4.6219 16.4185 4.56402C16.2758 4.50614 16.123 4.47748 15.9691 4.47972C15.8151 4.48196 15.6632 4.51507 15.5223 4.57709C15.3814 4.6391 15.2543 4.72875 15.1487 4.84074C14.9432 5.05854 14.8307 5.34784 14.8351 5.64723C14.8395 5.94661 14.9603 6.23251 15.1721 6.44423C15.3838 6.65595 15.6697 6.77682 15.9691 6.78118C16.2685 6.78555 16.5578 6.67306 16.7756 6.4676Z" fill="white"/>
</g>
<defs>
<clipPath id="clip0_63_753">
<rect width="20.6585" height="20.6585" fill="white" transform="translate(0.500244 0.280396)"/>
</clipPath>
</defs>
</svg>
