<svg width="183" height="50" viewBox="0 0 183 50" fill="none" xmlns="http://www.w3.org/2000/svg">
<g id="Frame" clip-path="url(#clip0_63_698)">
<g id="Group">
<path id="Vector" d="M54.4235 9.84053L53.4864 12.9092H51.4475L54.9178 2.07611H57.4407L60.9625 12.9092H58.8412L57.8629 9.84053H54.4235ZM57.5231 8.34737L56.6684 5.68028C56.4625 5.02124 56.2874 4.27981 56.1226 3.65165H56.0917C55.927 4.27981 55.7725 5.03153 55.5769 5.68028L54.7428 8.34737H57.5231Z" fill="#100F2B"/>
<path id="Vector_2" d="M63.918 5.08299L65.1846 9.05788C65.4111 9.74782 65.5656 10.376 65.7201 11.0144H65.7716C65.9157 10.376 66.0908 9.75812 66.307 9.05788L67.5634 5.08299H69.6332L66.6469 12.9092H64.7006L61.7864 5.08299H63.9283H63.918Z" fill="#100F2B"/>
<path id="Vector_3" d="M77.5211 11.035C77.5211 11.7455 77.552 12.4355 77.6447 12.9195H75.8632L75.719 12.0545H75.6675C75.2041 12.662 74.3803 13.0945 73.3505 13.0945C71.775 13.0945 70.8894 11.9515 70.8894 10.7673C70.8894 8.81072 72.64 7.79125 75.5336 7.81185V7.68828C75.5336 7.1734 75.3277 6.31869 73.9375 6.31869C73.1652 6.31869 72.362 6.55554 71.8368 6.89536L71.4558 5.60815C72.0324 5.25803 73.0519 4.91821 74.2876 4.91821C76.8003 4.91821 77.5211 6.51435 77.5211 8.23405V11.0453V11.035ZM75.5954 9.08876C74.1949 9.06816 72.8666 9.36679 72.8666 10.551C72.8666 11.3233 73.3608 11.6735 73.989 11.6735C74.7922 11.6735 75.3586 11.1586 75.5439 10.5922C75.5954 10.448 75.5954 10.3039 75.5954 10.1597V9.07846V9.08876Z" fill="#100F2B"/>
<path id="Vector_4" d="M81.29 3.96063C80.631 3.96063 80.1985 3.47665 80.1985 2.89998C80.1985 2.29242 80.6516 1.81873 81.3106 1.81873C81.9697 1.81873 82.4022 2.28212 82.4228 2.89998C82.4228 3.47665 81.9903 3.96063 81.3106 3.96063H81.29ZM80.3118 12.9093V5.08308H82.2889V12.9093H80.3118Z" fill="#100F2B"/>
<path id="Vector_5" d="M85.1311 1.48917H87.1082V12.9195H85.1311V1.48917Z" fill="#100F2B"/>
<path id="Vector_6" d="M96.0465 11.035C96.0465 11.7455 96.0774 12.4355 96.17 12.9195H94.3885L94.2444 12.0545H94.1929C93.7295 12.662 92.9057 13.0945 91.8759 13.0945C90.3004 13.0945 89.4148 11.9515 89.4148 10.7673C89.4148 8.81072 91.1654 7.79125 94.059 7.81185V7.68828C94.059 7.1734 93.8531 6.31869 92.4732 6.31869C91.7009 6.31869 90.8977 6.55554 90.3725 6.89536L89.9915 5.60815C90.5681 5.25803 91.5876 4.91821 92.8233 4.91821C95.3256 4.91821 96.0568 6.51435 96.0568 8.23405V11.0453L96.0465 11.035ZM94.1208 9.08876C92.7203 9.06816 91.3919 9.36679 91.3919 10.551C91.3919 11.3233 91.8862 11.6735 92.5144 11.6735C93.3176 11.6735 93.884 11.1586 94.0693 10.5922C94.1208 10.448 94.1208 10.3039 94.1208 10.1597V9.07846V9.08876Z" fill="#100F2B"/>
<path id="Vector_7" d="M98.8476 1.48917H100.825V6.1643H100.856C101.34 5.41257 102.194 4.90798 103.368 4.90798C105.284 4.90798 106.643 6.50412 106.633 8.88287C106.633 11.6941 104.851 13.0946 103.08 13.0946C102.071 13.0946 101.165 12.7033 100.609 11.7456H100.578L100.485 12.9195H98.7961C98.827 12.3841 98.8579 11.5191 98.8579 10.7364V1.48917H98.8476ZM100.825 9.68609C100.825 9.85085 100.845 10.0053 100.876 10.1495C101.082 10.9527 101.772 11.5294 102.627 11.5294C103.863 11.5294 104.625 10.5511 104.625 8.95496C104.625 7.57507 103.966 6.45263 102.647 6.45263C101.844 6.45263 101.103 7.0293 100.897 7.8943C100.866 8.03847 100.835 8.21353 100.835 8.40918V9.67579L100.825 9.68609Z" fill="#100F2B"/>
<path id="Vector_8" d="M108.949 1.48917H110.927V12.9195H108.949V1.48917Z" fill="#100F2B"/>
<path id="Vector_9" d="M115.19 9.5521C115.241 10.9629 116.343 11.5807 117.6 11.5807C118.516 11.5807 119.155 11.4366 119.772 11.2306L120.061 12.5796C119.381 12.8679 118.454 13.0739 117.332 13.0739C114.788 13.0739 113.295 11.519 113.295 9.1196C113.295 6.9468 114.613 4.90787 117.126 4.90787C119.639 4.90787 120.504 6.99829 120.504 8.71799C120.504 9.08871 120.473 9.37704 120.442 9.5521H115.2H115.19ZM118.629 8.17222C118.65 7.45138 118.32 6.25686 117.002 6.25686C115.777 6.25686 115.262 7.369 115.19 8.17222H118.629Z" fill="#100F2B"/>
<path id="Vector_10" d="M130.245 13.0945C128.041 13.0945 126.322 11.5807 126.322 9.05782C126.322 6.53489 128.01 4.90787 130.369 4.90787C132.727 4.90787 134.261 6.54519 134.261 8.92395C134.261 11.797 132.232 13.0842 130.255 13.0842H130.235L130.245 13.0945ZM130.307 11.6631C131.429 11.6631 132.222 10.5716 132.222 8.97544C132.222 7.75002 131.676 6.33924 130.327 6.33924C128.978 6.33924 128.36 7.70883 128.36 9.00633C128.36 10.5201 129.112 11.6631 130.286 11.6631H130.307Z" fill="#100F2B"/>
<path id="Vector_11" d="M136.588 7.42054C136.588 6.52464 136.558 5.76262 136.527 5.09327H138.246L138.339 6.2672H138.39C138.741 5.65964 139.595 4.91821 140.903 4.91821C142.211 4.91821 143.683 5.80381 143.683 8.27524V12.9195H141.706V8.49149C141.706 7.36905 141.284 6.51435 140.213 6.51435C139.431 6.51435 138.885 7.08072 138.669 7.66768C138.607 7.83244 138.576 8.06929 138.576 8.29584V12.9092H136.599V7.42054H136.588Z" fill="#100F2B"/>
<path id="Vector_12" d="M152.787 3.07509V5.08313H154.671V6.56599H152.787V10.0054C152.787 10.9734 153.044 11.4471 153.796 11.4471C154.146 11.4471 154.342 11.4265 154.568 11.3647L154.599 12.8578C154.311 12.9711 153.775 13.0638 153.168 13.0638C152.426 13.0638 151.839 12.827 151.469 12.4253C151.036 11.9722 150.84 11.2514 150.84 10.2216V6.55569H149.728V5.07283H150.84V3.61056L152.787 3.06479V3.07509Z" fill="#100F2B"/>
<path id="Vector_13" d="M156.875 1.48917H158.852V6.1437H158.883C159.12 5.77298 159.46 5.46406 159.861 5.2581C160.263 5.03155 160.726 4.90798 161.231 4.90798C162.559 4.90798 163.96 5.79358 163.96 8.29591V12.9093H161.982V8.51216C161.982 7.38971 161.56 6.51441 160.469 6.51441C159.696 6.51441 159.151 7.0293 158.924 7.62656C158.862 7.80162 158.842 8.01787 158.842 8.22382V12.9195H156.865V1.48917H156.875Z" fill="#100F2B"/>
<path id="Vector_14" d="M168.171 9.5521C168.223 10.9629 169.324 11.5807 170.581 11.5807C171.497 11.5807 172.136 11.4366 172.754 11.2306L173.042 12.5796C172.362 12.8679 171.435 13.0739 170.313 13.0739C167.77 13.0739 166.276 11.519 166.276 9.1196C166.276 6.9468 167.594 4.90787 170.107 4.90787C172.62 4.90787 173.485 6.99829 173.485 8.71799C173.485 9.08871 173.454 9.37704 173.423 9.5521H168.181H168.171ZM171.611 8.17222C171.631 7.45138 171.302 6.25686 169.984 6.25686C168.758 6.25686 168.243 7.369 168.171 8.17222H171.611Z" fill="#100F2B"/>
</g>
<g id="Group_2">
<g id="Group_3">
<path id="Vector_15" d="M29.8325 23.4232C29.781 18.0581 34.2193 15.4528 34.4253 15.3293C31.9126 11.6633 28.0098 11.1587 26.6402 11.1175C23.3656 10.7777 20.1939 13.0741 18.5257 13.0741C16.8575 13.0741 14.2522 11.1484 11.4924 11.1999C7.92942 11.2617 4.60329 13.3212 2.77031 16.5135C-0.998629 23.0422 1.81263 32.6293 5.4271 37.912C7.23948 40.4967 9.3505 43.38 12.1103 43.2771C14.8082 43.1638 15.8174 41.5573 19.0818 41.5573C22.3461 41.5573 23.2626 43.2771 26.0842 43.2153C28.9881 43.1638 30.8108 40.6203 32.5511 38.015C34.6415 35.0492 35.4756 32.135 35.5168 31.9908C35.4447 31.9702 29.884 29.8489 29.8222 23.4129" fill="#100F2B"/>
<path id="Vector_16" d="M24.5088 7.65766C25.9607 5.83498 26.9596 3.36355 26.6816 0.850922C24.5809 0.9436 21.9447 2.30289 20.4309 4.08438C19.0922 5.64962 17.8874 8.22403 18.1963 10.6337C20.5648 10.8087 22.9847 9.43915 24.5088 7.64736" fill="#100F2B"/>
</g>
<g id="Group_4">
<path id="Vector_17" d="M68.9019 42.8652H65.1329L63.0734 36.3777H55.9062L53.9394 42.8652H50.2734L57.3788 20.787H61.7656L68.9019 42.8652ZM62.4555 33.6591L60.5917 27.8924C60.396 27.3055 60.0253 25.9153 59.4795 23.7322H59.4177C59.2015 24.6693 58.8514 26.0594 58.3674 27.8924L56.5344 33.6591H62.4658H62.4555Z" fill="#100F2B"/>
<path id="Vector_18" d="M87.1801 34.7095C87.1801 37.4178 86.449 39.5597 84.9867 41.125C83.6789 42.5255 82.0519 43.2154 80.1056 43.2154C78.0049 43.2154 76.5015 42.4637 75.585 40.9602H75.5232V49.3425H71.9808V32.1866C71.9808 30.4875 71.9396 28.7369 71.8469 26.9451H74.9568L75.1525 29.468H75.2245C76.3985 27.563 78.1903 26.6156 80.5896 26.6156C82.4638 26.6156 84.0393 27.357 85.2853 28.8399C86.5417 30.3228 87.1698 32.2793 87.1698 34.6992M83.5656 34.8331C83.5656 33.2885 83.2155 32.0013 82.5153 31.0024C81.7533 29.952 80.7235 29.4269 79.4363 29.4269C78.561 29.4269 77.7681 29.7152 77.0575 30.2919C76.347 30.8788 75.8836 31.6306 75.6673 32.5676C75.5541 33.0104 75.5026 33.3606 75.5026 33.6489V36.3057C75.5026 37.459 75.8527 38.4373 76.5632 39.2302C77.2738 40.0334 78.2006 40.4247 79.3333 40.4247C80.6617 40.4247 81.7018 39.9202 82.4432 38.8904C83.1846 37.8606 83.5553 36.5116 83.5553 34.8228" fill="#100F2B"/>
<path id="Vector_19" d="M105.489 34.7095C105.489 37.4178 104.758 39.5597 103.296 41.125C101.988 42.5255 100.361 43.2154 98.4149 43.2154C96.3245 43.2154 94.8107 42.4637 93.8943 40.9602H93.8325V49.3425H90.3004V32.1866C90.3004 30.4875 90.2592 28.7369 90.1665 26.9451H93.2764L93.472 29.468H93.5441C94.7181 27.563 96.5098 26.6156 98.9092 26.6156C100.783 26.6156 102.349 27.357 103.605 28.8399C104.861 30.3228 105.489 32.2793 105.489 34.6992M101.885 34.8331C101.885 33.2885 101.535 32.0013 100.835 31.0024C100.073 29.952 99.0431 29.4269 97.7559 29.4269C96.8806 29.4269 96.0877 29.7152 95.3771 30.2919C94.6666 30.8788 94.2032 31.6306 93.9869 32.5676C93.8737 33.0104 93.8222 33.3606 93.8222 33.6489V36.3057C93.8222 37.459 94.1723 38.4373 94.8828 39.2302C95.5934 40.0334 96.5099 40.4247 97.6529 40.4247C98.9813 40.4247 100.021 39.9202 100.763 38.8904C101.504 37.8606 101.875 36.5116 101.875 34.8228" fill="#100F2B"/>
<path id="Vector_20" d="M125.961 36.6764C125.961 38.5506 125.312 40.0849 123.994 41.2588C122.553 42.546 120.555 43.1948 117.98 43.1948C115.602 43.1948 113.697 42.7417 112.255 41.8252L113.079 38.8801C114.634 39.8172 116.333 40.2909 118.197 40.2909C119.525 40.2909 120.565 39.9922 121.307 39.395C122.048 38.7874 122.419 37.9842 122.419 36.9853C122.419 36.0894 122.11 35.3377 121.502 34.7198C120.895 34.102 119.875 33.5356 118.454 33.0104C114.592 31.5688 112.656 29.4577 112.656 26.6774C112.656 24.865 113.336 23.3718 114.685 22.2185C116.034 21.0549 117.836 20.4782 120.091 20.4782C122.099 20.4782 123.768 20.8283 125.096 21.5286L124.21 24.4119C122.964 23.7322 121.554 23.3924 119.988 23.3924C118.742 23.3924 117.774 23.7014 117.074 24.3089C116.487 24.8547 116.189 25.524 116.189 26.3067C116.189 27.182 116.528 27.9028 117.198 28.4692C117.785 28.9943 118.856 29.5607 120.411 30.1786C122.305 30.9406 123.706 31.8365 124.602 32.8663C125.498 33.896 125.94 35.1729 125.94 36.697" fill="#100F2B"/>
<path id="Vector_21" d="M137.649 29.602H133.756V37.3356C133.756 39.3024 134.446 40.2807 135.826 40.2807C136.454 40.2807 136.98 40.2292 137.391 40.1159L137.484 42.8036C136.794 43.0611 135.867 43.1949 134.735 43.1949C133.334 43.1949 132.243 42.7727 131.46 41.918C130.677 41.0633 130.276 39.6319 130.276 37.6239V29.602H127.948V26.9452H130.276V24.031L133.746 22.9807V26.9452H137.639V29.602H137.649Z" fill="#100F2B"/>
<path id="Vector_22" d="M155.248 34.7817C155.248 37.2325 154.547 39.2406 153.157 40.8058C151.695 42.4225 149.749 43.2257 147.329 43.2257C144.909 43.2257 143.127 42.4534 141.747 40.8985C140.357 39.3538 139.667 37.3973 139.667 35.0391C139.667 32.5677 140.378 30.5493 141.809 28.9841C143.241 27.4086 145.166 26.6259 147.586 26.6259C150.006 26.6259 151.798 27.3983 153.219 28.9532C154.578 30.467 155.248 32.4029 155.248 34.7817ZM151.582 34.895C151.582 33.4327 151.262 32.1661 150.634 31.1157C149.893 29.8491 148.832 29.2107 147.463 29.2107C146.093 29.2107 144.96 29.8491 144.219 31.1157C143.58 32.1661 143.271 33.443 143.271 34.9567C143.271 36.4705 143.58 37.6856 144.219 38.736C144.981 40.0026 146.052 40.641 147.432 40.641C148.812 40.641 149.841 39.9923 150.603 38.7051C151.262 37.6341 151.582 36.3675 151.582 34.895Z" fill="#100F2B"/>
<path id="Vector_23" d="M166.74 30.055C166.39 29.9932 166.019 29.9623 165.628 29.9623C164.382 29.9623 163.424 30.436 162.744 31.3731C162.157 32.2072 161.859 33.2473 161.859 34.5139V42.8653H158.327L158.358 31.9601C158.358 30.1271 158.316 28.4589 158.224 26.9451H161.303L161.436 29.9932H161.529C161.9 28.9429 162.497 28.0985 163.3 27.4703C164.083 26.9039 164.938 26.6156 165.854 26.6156C166.184 26.6156 166.472 26.6362 166.74 26.6774V30.055Z" fill="#100F2B"/>
<path id="Vector_24" d="M182.557 34.1534C182.557 34.7918 182.516 35.317 182.433 35.7598H171.827C171.868 37.3353 172.383 38.5299 173.361 39.364C174.257 40.1054 175.41 40.4761 176.831 40.4761C178.397 40.4761 179.828 40.229 181.125 39.7244L181.682 42.1855C180.178 42.8446 178.397 43.1741 176.337 43.1741C173.876 43.1741 171.93 42.443 170.529 40.991C169.129 39.539 168.418 37.5928 168.418 35.1419C168.418 32.6911 169.077 30.7448 170.385 29.1487C171.755 27.4496 173.619 26.5949 175.946 26.5949C178.273 26.5949 179.982 27.4496 181.156 29.1487C182.093 30.508 182.557 32.1762 182.557 34.1637M179.19 33.2472C179.21 32.1968 178.984 31.2906 178.5 30.5286C177.892 29.5503 176.945 29.056 175.678 29.056C174.525 29.056 173.588 29.54 172.867 30.4977C172.28 31.2597 171.93 32.1762 171.827 33.2472H179.19Z" fill="#100F2B"/>
</g>
</g>
</g>
<defs>
<clipPath id="clip0_63_698">
<rect width="181.568" height="48.5019" fill="white" transform="translate(0.989014 0.850845)"/>
</clipPath>
</defs>
</svg>
