<svg width="6" height="9" viewBox="0 0 6 9" fill="none" xmlns="http://www.w3.org/2000/svg">
<path id="path9513" d="M0.000487403 4.47615C0.00379036 4.38751 0.0260961 4.30048 0.065974 4.22055C0.105852 4.14062 0.162465 4.06952 0.232227 4.01171L4.89953 0.154401C4.9661 0.099491 5.04321 0.0577662 5.12651 0.0316091C5.2098 0.00545197 5.29759 -0.00462505 5.38492 0.00195343C5.47225 0.00853192 5.55742 0.031637 5.63549 0.0699493C5.71356 0.108262 5.78302 0.161031 5.83994 0.225243C5.89686 0.289455 5.94012 0.363853 5.96723 0.444187C5.99433 0.524521 6.00481 0.609219 5.99797 0.693442C5.99113 0.777665 5.96715 0.859765 5.92741 0.935052C5.88767 1.01034 5.8329 1.07734 5.76631 1.13223L1.68731 4.5L5.76631 7.86777C5.8329 7.92266 5.88767 7.98966 5.92741 8.06495C5.96715 8.14024 5.99113 8.22234 5.99797 8.30656C6.00481 8.39078 5.99433 8.47548 5.96722 8.55581C5.94012 8.63615 5.89686 8.71054 5.83994 8.77476C5.78302 8.83897 5.71356 8.89174 5.63549 8.93005C5.55742 8.96836 5.47225 8.99147 5.38492 8.99805C5.29759 9.00462 5.2098 8.99455 5.12651 8.96839C5.04321 8.94223 4.9661 8.90051 4.89953 8.8456L0.232227 4.98829C0.156127 4.92524 0.0957185 4.84645 0.0555976 4.75777C0.0154767 4.6691 -0.00334749 4.57283 0.000487403 4.47615Z" fill="#15141F" fill-opacity="0.25"/>
</svg>
