<svg width="26" height="25" viewBox="0 0 26 25" fill="none" xmlns="http://www.w3.org/2000/svg">
<path d="M22.8729 22.3972V15.1652C22.8729 11.6109 22.1077 8.89584 17.961 8.89584C15.9617 8.89584 14.6289 9.98188 14.0858 11.0185H14.0365V9.21672H10.1119V22.3972H14.2093V15.8563C14.2093 14.1286 14.5301 12.4748 16.6528 12.4748C18.7509 12.4748 18.7755 14.4248 18.7755 15.9551V22.3726H22.8729V22.3972Z" fill="#15141F"/>
<path d="M3.44763 9.21672H7.54495V22.3972H3.44763V9.21672Z" fill="#15141F"/>
<path d="M5.49636 2.65112C4.18818 2.65112 3.12683 3.71248 3.12683 5.02065C3.12683 6.32883 4.18818 7.41487 5.49636 7.41487C6.80454 7.41487 7.86589 6.32883 7.86589 5.02065C7.86589 3.71248 6.80454 2.65112 5.49636 2.65112Z" fill="#15141F"/>
</svg>
