<svg width="22" height="21" viewBox="0 0 22 21" fill="none" xmlns="http://www.w3.org/2000/svg">
<g id="akar-icons:facebook-fill" clip-path="url(#clip0_242_537)">
<g id="Group">
<path id="Vector" fill-rule="evenodd" clip-rule="evenodd" d="M0.841797 10.6675C0.841797 15.8028 4.57152 20.0731 9.44952 20.9391V13.4787H6.8672V10.6098H9.44952V8.31411C9.44952 5.73179 11.1134 4.29774 13.4667 4.29774C14.2122 4.29774 15.0161 4.41223 15.7616 4.52671V7.1667H14.442C13.1792 7.1667 12.8926 7.79764 12.8926 8.6016V10.6098H15.6471L15.1883 13.4787H12.8926V20.9391C17.7706 20.0731 21.5003 15.8037 21.5003 10.6675C21.5003 4.95451 16.8522 0.280518 11.1711 0.280518C5.48997 0.280518 0.841797 4.95451 0.841797 10.6675Z" fill="#1E97CD"/>
</g>
</g>
<defs>
<clipPath id="clip0_242_537">
<rect width="20.6585" height="20.6585" fill="white" transform="translate(0.841797 0.280518)"/>
</clipPath>
</defs>
</svg>
