<svg width="25" height="25" viewBox="0 0 25 25" fill="none" xmlns="http://www.w3.org/2000/svg">
<g id="linkedin (3) 1">
<g id="_x31_0.Linkedin">
<path id="Vector" d="M22.4343 22.3971V15.1651C22.4343 11.6108 21.6691 8.89575 17.5224 8.89575C15.5231 8.89575 14.1903 9.98179 13.6472 11.0185H13.5979V9.21663H9.67334V22.3971H13.7707V15.8563C13.7707 14.1285 14.0915 12.4747 16.2142 12.4747C18.3123 12.4747 18.3369 14.4247 18.3369 15.955V22.3725H22.4343V22.3971Z" fill="#1E97CD"/>
<path id="Vector_2" d="M3.00879 9.2168H7.1061V22.3973H3.00879V9.2168Z" fill="#1E97CD"/>
<path id="Vector_3" d="M5.05752 2.65112C3.74934 2.65112 2.68799 3.71248 2.68799 5.02065C2.68799 6.32883 3.74934 7.41487 5.05752 7.41487C6.3657 7.41487 7.42705 6.32883 7.42705 5.02065C7.42705 3.71248 6.3657 2.65112 5.05752 2.65112Z" fill="#1E97CD"/>
</g>
</g>
</svg>
