<svg width="136" height="40" viewBox="0 0 136 40" fill="none" xmlns="http://www.w3.org/2000/svg">
<g clip-path="url(#clip0_242_725)">
<path d="M130.5 0H5.5C2.73858 0 0.5 2.23858 0.5 5V35C0.5 37.7614 2.73858 40 5.5 40H130.5C133.261 40 135.5 37.7614 135.5 35V5C135.5 2.23858 133.261 0 130.5 0Z" fill="black"/>
<path d="M130.5 0.8C131.614 0.8 132.682 1.2425 133.47 2.03015C134.258 2.8178 134.7 3.88609 134.7 5V35C134.7 36.1139 134.258 37.1822 133.47 37.9698C132.682 38.7575 131.614 39.2 130.5 39.2H5.5C4.38609 39.2 3.3178 38.7575 2.53015 37.9698C1.7425 37.1822 1.3 36.1139 1.3 35V5C1.3 3.88609 1.7425 2.8178 2.53015 2.03015C3.3178 1.2425 4.38609 0.8 5.5 0.8H130.5ZM130.5 0H5.5C4.17392 0 2.90215 0.526784 1.96447 1.46447C1.02678 2.40215 0.5 3.67392 0.5 5V35C0.5 36.3261 1.02678 37.5979 1.96447 38.5355C2.90215 39.4732 4.17392 40 5.5 40H130.5C131.826 40 133.098 39.4732 134.036 38.5355C134.973 37.5979 135.5 36.3261 135.5 35V5C135.5 3.67392 134.973 2.40215 134.036 1.46447C133.098 0.526784 131.826 0 130.5 0Z" fill="#A6A6A6"/>
<path d="M47.92 10.24C47.9364 10.6067 47.8785 10.9729 47.7496 11.3167C47.6207 11.6604 47.4235 11.9745 47.17 12.24C46.8859 12.5333 46.5431 12.7633 46.164 12.9149C45.7849 13.0666 45.378 13.1364 44.97 13.12C44.5597 13.1291 44.1518 13.054 43.7717 12.8991C43.3916 12.7443 43.0472 12.5132 42.76 12.22C42.1773 11.6239 41.8511 10.8235 41.8511 9.98996C41.8511 9.15643 42.1773 8.356 42.76 7.75996C43.2055 7.32465 43.7697 7.0307 44.3818 6.91505C44.9938 6.79941 45.6264 6.86722 46.2 7.10997C46.5606 7.2582 46.8823 7.48745 47.14 7.77997L46.61 8.30996C46.4114 8.07074 46.1598 7.8811 45.8751 7.75612C45.5904 7.63113 45.2805 7.57424 44.97 7.58996C44.578 7.59268 44.1927 7.69136 43.8477 7.87738C43.5026 8.0634 43.2084 8.33111 42.9907 8.65709C42.773 8.98308 42.6385 9.35742 42.5989 9.7474C42.5593 10.1374 42.6158 10.5311 42.7635 10.8942C42.9112 11.2573 43.1456 11.5787 43.4462 11.8303C43.7468 12.0819 44.1044 12.256 44.4878 12.3375C44.8713 12.419 45.2688 12.4053 45.6457 12.2976C46.0226 12.19 46.3675 11.9916 46.65 11.72C46.9555 11.3851 47.1326 10.9529 47.15 10.5H44.97V9.77997H47.88C47.9028 9.93233 47.9161 10.086 47.92 10.24Z" fill="white" stroke="white" stroke-width="0.2" stroke-miterlimit="10"/>
<path d="M52.5 7.74H49.8V9.64H52.26V10.36H49.8V12.26H52.5V13H49.02V7H52.5V7.74Z" fill="white" stroke="white" stroke-width="0.2" stroke-miterlimit="10"/>
<path d="M55.7801 13H55.0101V7.74H53.3301V7H57.5001V7.74H55.7801V13Z" fill="white" stroke="white" stroke-width="0.2" stroke-miterlimit="10"/>
<path d="M60.4399 13V7H61.2099V13H60.4399Z" fill="white" stroke="white" stroke-width="0.2" stroke-miterlimit="10"/>
<path d="M64.6302 13H63.8602V7.74H62.1802V7H66.3002V7.74H64.6302V13Z" fill="white" stroke="white" stroke-width="0.2" stroke-miterlimit="10"/>
<path d="M74.1102 12.2199C73.8213 12.509 73.4784 12.7383 73.1009 12.8947C72.7234 13.0512 72.3188 13.1317 71.9102 13.1317C71.5015 13.1317 71.0969 13.0512 70.7194 12.8947C70.3419 12.7383 69.999 12.509 69.7102 12.2199C69.1448 11.6189 68.8301 10.825 68.8301 9.9999C68.8301 9.17483 69.1448 8.38085 69.7102 7.7799C69.9928 7.4827 70.3346 7.24813 70.7136 7.09138C71.0925 6.93462 71.5002 6.85917 71.9102 6.8699C72.3196 6.86342 72.7259 6.94082 73.1043 7.09732C73.4826 7.25382 73.825 7.48612 74.1102 7.7799C74.3977 8.07239 74.6237 8.41953 74.7749 8.80083C74.926 9.18212 74.9992 9.58984 74.9902 9.9999C75.0033 10.4105 74.9319 10.8194 74.7806 11.2012C74.6292 11.5831 74.401 11.9298 74.1102 12.2199ZM70.2802 11.7199C70.4932 11.9358 70.747 12.1072 71.0268 12.2242C71.3066 12.3412 71.6069 12.4014 71.9102 12.4014C72.2135 12.4014 72.5137 12.3412 72.7935 12.2242C73.0733 12.1072 73.3271 11.9358 73.5402 11.7199C73.9717 11.251 74.2112 10.6371 74.2112 9.9999C74.2112 9.3627 73.9717 8.74877 73.5402 8.2799C73.3271 8.06402 73.0733 7.89261 72.7935 7.77562C72.5137 7.65862 72.2135 7.59838 71.9102 7.59838C71.6069 7.59838 71.3066 7.65862 71.0268 7.77562C70.747 7.89261 70.4932 8.06402 70.2802 8.2799C69.8487 8.74877 69.6092 9.3627 69.6092 9.9999C69.6092 10.6371 69.8487 11.251 70.2802 11.7199Z" fill="white" stroke="white" stroke-width="0.2" stroke-miterlimit="10"/>
<path d="M76.0801 13V7H77.0101L79.9301 11.67V10.51V7H80.7001V13H79.9001L76.8501 8.11V9.26V13H76.0801Z" fill="white" stroke="white" stroke-width="0.2" stroke-miterlimit="10"/>
<path d="M68.6401 21.7499C67.7976 21.7519 66.9745 22.0037 66.2751 22.4734C65.5756 22.9432 65.0312 23.6098 64.7106 24.3889C64.39 25.1681 64.3076 26.0248 64.4739 26.8508C64.6402 27.6768 65.0477 28.4349 65.6449 29.0293C66.2421 29.6236 67.0021 30.0276 67.8288 30.19C68.6556 30.3524 69.5119 30.2661 70.2896 29.9418C71.0672 29.6175 71.7313 29.07 72.1977 28.3683C72.6642 27.6667 72.9121 26.8425 72.9101 25.9999C72.9183 25.4379 72.8132 24.8799 72.6013 24.3593C72.3893 23.8386 72.0748 23.366 71.6764 22.9694C71.2779 22.5729 70.8038 22.2606 70.2822 22.051C69.7606 21.8415 69.2021 21.7391 68.6401 21.7499ZM68.6401 28.5799C68.1237 28.616 67.6083 28.496 67.1611 28.2353C66.7138 27.9747 66.3553 27.5855 66.1321 27.1184C65.909 26.6512 65.8315 26.1278 65.9098 25.6161C65.9881 25.1043 66.2185 24.628 66.5711 24.249C66.9237 23.8699 67.3821 23.6057 67.8869 23.4907C68.3916 23.3757 68.9193 23.4152 69.4013 23.604C69.8833 23.7929 70.2973 24.1223 70.5896 24.5496C70.8819 24.9769 71.0388 25.4822 71.0401 25.9999C71.0562 26.3279 71.0065 26.6559 70.8938 26.9643C70.7812 27.2728 70.6079 27.5556 70.3842 27.7961C70.1606 28.0366 69.891 28.2298 69.5914 28.3644C69.2919 28.499 68.9684 28.5723 68.6401 28.5799ZM59.3201 21.7499C58.4776 21.7519 57.6545 22.0037 56.9551 22.4734C56.2556 22.9432 55.7112 23.6098 55.3906 24.3889C55.07 25.1681 54.9876 26.0248 55.1539 26.8508C55.3202 27.6768 55.7277 28.4349 56.3249 29.0293C56.9221 29.6236 57.6821 30.0276 58.5088 30.19C59.3356 30.3524 60.1919 30.2661 60.9696 29.9418C61.7472 29.6175 62.4113 29.07 62.8777 28.3683C63.3442 27.6667 63.5921 26.8425 63.5901 25.9999C63.5982 25.4379 63.4932 24.8799 63.2813 24.3593C63.0693 23.8386 62.7548 23.366 62.3564 22.9694C61.9579 22.5729 61.4838 22.2606 60.9622 22.051C60.4406 21.8415 59.8821 21.7391 59.3201 21.7499ZM59.3201 28.5799C58.8037 28.616 58.2883 28.496 57.8411 28.2353C57.3938 27.9747 57.0353 27.5855 56.8121 27.1184C56.589 26.6512 56.5115 26.1278 56.5898 25.6161C56.6681 25.1043 56.8985 24.628 57.2511 24.249C57.6037 23.8699 58.0621 23.6057 58.5669 23.4907C59.0716 23.3757 59.5993 23.4152 60.0813 23.604C60.5633 23.7929 60.9773 24.1223 61.2696 24.5496C61.5619 24.9769 61.7188 25.4822 61.7201 25.9999C61.7362 26.3279 61.6865 26.6559 61.5738 26.9643C61.4612 27.2728 61.2879 27.5556 61.0642 27.7961C60.8406 28.0366 60.571 28.2298 60.2714 28.3644C59.9719 28.499 59.6484 28.5723 59.3201 28.5799ZM48.2401 23.0599V24.8599H52.5601C52.4924 25.7077 52.1399 26.5077 51.5601 27.1299C51.1268 27.5714 50.6056 27.9171 50.0302 28.1444C49.4549 28.3718 48.8382 28.4759 48.2201 28.4499C46.9471 28.4499 45.7262 27.9442 44.826 27.044C43.9258 26.1439 43.4201 24.923 43.4201 23.6499C43.4201 22.3769 43.9258 21.156 44.826 20.2558C45.7262 19.3556 46.9471 18.8499 48.2201 18.8499C49.4405 18.8318 50.619 19.2952 51.5001 20.1399L52.7701 18.8699C52.1741 18.2804 51.4664 17.8158 50.6886 17.5033C49.9107 17.1908 49.0783 17.0366 48.2401 17.0499C47.3511 17.0153 46.4643 17.1605 45.6327 17.4769C44.8012 17.7932 44.0421 18.2742 43.4009 18.8909C42.7596 19.5077 42.2495 20.2475 41.9011 21.0661C41.5527 21.8847 41.373 22.7652 41.373 23.6549C41.373 24.5446 41.5527 25.4251 41.9011 26.2437C42.2495 27.0623 42.7596 27.8022 43.4009 28.4189C44.0421 29.0357 44.8012 29.5166 45.6327 29.833C46.4643 30.1493 47.3511 30.2945 48.2401 30.2599C49.0955 30.2941 49.9485 30.1469 50.743 29.8281C51.5375 29.5092 52.2556 29.0259 52.8501 28.4099C53.9002 27.2563 54.4598 25.7391 54.4101 24.1799C54.4137 23.8046 54.3836 23.4298 54.3201 23.0599H48.2401ZM93.5501 24.4599C93.2893 23.6927 92.8016 23.0227 92.1516 22.5388C91.5016 22.0548 90.7199 21.7797 89.9101 21.7499C89.3631 21.7489 88.8217 21.86 88.3193 22.0765C87.817 22.2929 87.3644 22.6101 86.9895 23.0085C86.6146 23.4068 86.3254 23.8778 86.1397 24.3923C85.9541 24.9068 85.8759 25.454 85.9101 25.9999C85.9016 26.9128 86.1885 27.8039 86.7282 28.5402C87.2679 29.2765 88.0313 29.8184 88.9044 30.0851C89.7774 30.3517 90.7134 30.3288 91.5723 30.0196C92.4313 29.7105 93.1672 29.1318 93.6701 28.3699L92.2201 27.3699C92.0039 27.7302 91.6974 28.0277 91.3307 28.2329C90.9641 28.4382 90.5502 28.544 90.1301 28.5399C89.6967 28.5578 89.268 28.4442 88.9003 28.214C88.5327 27.9837 88.2432 27.6477 88.0701 27.2499L93.7601 24.8999L93.5501 24.4599ZM87.7501 25.8799C87.7298 25.5693 87.7717 25.2578 87.8734 24.9635C87.975 24.6693 88.1343 24.3983 88.342 24.1664C88.5497 23.9346 88.8015 23.7464 89.0828 23.6131C89.3641 23.4798 89.6691 23.4039 89.9801 23.3899C90.3023 23.3703 90.6231 23.4461 90.9024 23.608C91.1817 23.7699 91.407 24.0106 91.5501 24.2999L87.7501 25.8799ZM83.1301 29.9999H85.0001V17.4999H83.1301V29.9999ZM80.0701 22.6999H80.0001C79.7207 22.3818 79.376 22.1277 78.9894 21.9551C78.6028 21.7825 78.1835 21.6955 77.7601 21.6999C76.6673 21.7529 75.6367 22.2243 74.8821 23.0165C74.1274 23.8087 73.7064 24.8608 73.7064 25.9549C73.7064 27.049 74.1274 28.1012 74.8821 28.8933C75.6367 29.6855 76.6673 30.1569 77.7601 30.2099C78.1841 30.2184 78.6047 30.1332 78.9919 29.9603C79.3791 29.7875 79.7234 29.5312 80.0001 29.2099H80.0701V29.8199C80.0701 31.4499 79.2001 32.3199 77.8001 32.3199C77.3324 32.3096 76.8783 32.1606 76.4955 31.8918C76.1127 31.6229 75.8185 31.2464 75.6501 30.8099L74.0301 31.4799C74.3296 32.2322 74.8504 32.8758 75.5235 33.3258C76.1966 33.7757 76.9905 34.0108 77.8001 33.9999C79.9901 33.9999 81.8001 32.7099 81.8001 29.5699V21.9999H80.0701V22.6999ZM77.9201 28.5799C77.2649 28.5391 76.6499 28.25 76.2004 27.7716C75.7509 27.2932 75.5006 26.6614 75.5006 26.0049C75.5006 25.3485 75.7509 24.7167 76.2004 24.2383C76.6499 23.7598 77.2649 23.4708 77.9201 23.4299C78.2403 23.4437 78.5545 23.5218 78.844 23.6596C79.1334 23.7973 79.3922 23.9918 79.6049 24.2316C79.8176 24.4714 79.9799 24.7515 80.0822 25.0553C80.1844 25.3591 80.2245 25.6803 80.2001 25.9999C80.2274 26.3206 80.1893 26.6435 80.0883 26.9491C79.9872 27.2546 79.8252 27.5365 79.6121 27.7777C79.3989 28.0189 79.1391 28.2143 78.8483 28.3522C78.5575 28.4901 78.2417 28.5676 77.9201 28.5799ZM102.31 17.4999H97.8301V29.9999H99.7001V25.2599H102.31C102.843 25.2982 103.378 25.2263 103.882 25.0487C104.386 24.871 104.848 24.5915 105.239 24.2274C105.63 23.8634 105.942 23.4227 106.155 22.9328C106.369 22.4428 106.479 21.9142 106.479 21.3799C106.479 20.8456 106.369 20.317 106.155 19.8271C105.942 19.3372 105.63 18.8965 105.239 18.5324C104.848 18.1684 104.386 17.8888 103.882 17.7112C103.378 17.5336 102.843 17.4616 102.31 17.4999ZM102.31 23.4999H99.7001V19.2399H102.35C102.631 19.2399 102.909 19.2953 103.169 19.4028C103.429 19.5104 103.665 19.668 103.863 19.8667C104.062 20.0654 104.22 20.3013 104.327 20.561C104.435 20.8206 104.49 21.0989 104.49 21.3799C104.49 21.661 104.435 21.9392 104.327 22.1989C104.22 22.4585 104.062 22.6944 103.863 22.8931C103.665 23.0918 103.429 23.2495 103.169 23.357C102.909 23.4646 102.631 23.5199 102.35 23.5199L102.31 23.4999ZM113.85 21.7099C113.169 21.6679 112.491 21.8265 111.899 22.1659C111.307 22.5054 110.828 23.0109 110.52 23.6199L112.17 24.3099C112.337 24.0093 112.587 23.7634 112.89 23.602C113.194 23.4405 113.538 23.3703 113.88 23.3999C114.117 23.3722 114.358 23.392 114.588 23.4582C114.817 23.5245 115.031 23.6358 115.218 23.7856C115.404 23.9355 115.558 24.1209 115.672 24.3311C115.786 24.5413 115.856 24.7721 115.88 25.0099V25.1299C115.279 24.8138 114.609 24.6491 113.93 24.6499C112.15 24.6499 110.33 25.6499 110.33 27.4699C110.348 27.8568 110.443 28.2361 110.61 28.5855C110.777 28.9348 111.013 29.247 111.303 29.5035C111.593 29.7601 111.932 29.9557 112.299 30.0787C112.666 30.2018 113.054 30.2498 113.44 30.2199C113.909 30.2459 114.377 30.1466 114.795 29.9322C115.214 29.7178 115.567 29.3961 115.82 28.9999H115.88V29.9999H117.68V25.1899C117.68 22.9999 116.02 21.7299 113.89 21.7299L113.85 21.7099ZM113.62 28.5599C113.01 28.5599 112.16 28.2499 112.16 27.4999C112.16 26.4999 113.22 26.1599 114.16 26.1599C114.754 26.1453 115.341 26.2903 115.86 26.5799C115.797 27.123 115.54 27.6249 115.135 27.9926C114.731 28.3604 114.207 28.569 113.66 28.5799L113.62 28.5599ZM124.24 21.9999L122.1 27.4199H122.04L119.82 21.9999H117.82L121.15 29.5799L119.25 33.7899H121.2L126.32 21.9999H124.24ZM107.44 29.9999H109.3V17.4999H107.44V29.9999Z" fill="white"/>
<path d="M10.9401 7.53997C10.6106 7.92959 10.4424 8.43043 10.4701 8.93997V31.06C10.4361 31.5704 10.605 32.0735 10.9401 32.46L11.0101 32.54L23.4001 20.15V19.85L11.0101 7.46997L10.9401 7.53997Z" fill="url(#paint0_linear_242_725)"/>
<path d="M27.4999 24.28L23.3999 20.15V19.85L27.4999 15.72L27.5899 15.78L32.4999 18.56C33.8999 19.35 33.8999 20.65 32.4999 21.45L27.6099 24.23L27.4999 24.28Z" fill="url(#paint1_linear_242_725)"/>
<path d="M27.6199 24.22L23.3999 20L10.9399 32.46C11.2225 32.7115 11.5842 32.8562 11.9623 32.869C12.3404 32.8818 12.711 32.7619 13.0099 32.53L27.6199 24.22Z" fill="url(#paint2_linear_242_725)"/>
<path d="M27.6199 15.78L13.0099 7.47997C12.713 7.24488 12.3426 7.12203 11.964 7.133C11.5854 7.14397 11.2228 7.28808 10.9399 7.53997L23.3999 20L27.6199 15.78Z" fill="url(#paint3_linear_242_725)"/>
<path opacity="0.2" d="M27.4999 24.1299L13.0099 32.3799C12.7219 32.5973 12.3708 32.7149 12.0099 32.7149C11.6491 32.7149 11.298 32.5973 11.0099 32.3799L10.9399 32.4499L11.0099 32.5299C11.298 32.7473 11.6491 32.8649 12.0099 32.8649C12.3708 32.8649 12.7219 32.7473 13.0099 32.5299L27.6199 24.2199L27.4999 24.1299Z" fill="black"/>
<path opacity="0.12" d="M10.9399 32.3199C10.6187 31.9233 10.4613 31.4188 10.4999 30.9099V31.0599C10.4659 31.5703 10.6348 32.0735 10.9699 32.4599L11.0399 32.3899L10.9399 32.3199Z" fill="black"/>
<path opacity="0.12" d="M32.5 21.3L27.5 24.13L27.59 24.22L32.5 21.44C32.7898 21.3174 33.0413 21.119 33.2278 20.8656C33.4143 20.6122 33.5291 20.3132 33.56 20C33.4975 20.2846 33.369 20.5505 33.1849 20.7763C33.0007 21.0021 32.7662 21.1815 32.5 21.3Z" fill="black"/>
<path opacity="0.25" d="M13.0102 7.61998L32.5002 18.7C32.7664 18.8185 33.001 18.9979 33.1851 19.2237C33.3692 19.4495 33.4977 19.7154 33.5602 20C33.5293 19.6868 33.4146 19.3878 33.228 19.1344C33.0415 18.881 32.79 18.6825 32.5002 18.56L13.0102 7.47998C11.6202 6.67998 10.4702 7.33998 10.4702 8.93998V9.08998C10.5002 7.48998 11.6202 6.82998 13.0102 7.61998Z" fill="white"/>
</g>
<defs>
<linearGradient id="paint0_linear_242_725" x1="22.3001" y1="8.70997" x2="5.52012" y2="25.49" gradientUnits="userSpaceOnUse">
<stop stop-color="#00A0FF"/>
<stop offset="0.01" stop-color="#00A1FF"/>
<stop offset="0.26" stop-color="#00BEFF"/>
<stop offset="0.51" stop-color="#00D2FF"/>
<stop offset="0.76" stop-color="#00DFFF"/>
<stop offset="1" stop-color="#00E3FF"/>
</linearGradient>
<linearGradient id="paint1_linear_242_725" x1="34.3299" y1="20" x2="10.1399" y2="20" gradientUnits="userSpaceOnUse">
<stop stop-color="#FFE000"/>
<stop offset="0.41" stop-color="#FFBD00"/>
<stop offset="0.78" stop-color="#FFA500"/>
<stop offset="1" stop-color="#FF9C00"/>
</linearGradient>
<linearGradient id="paint2_linear_242_725" x1="25.3299" y1="22.3" x2="2.56994" y2="45.05" gradientUnits="userSpaceOnUse">
<stop stop-color="#FF3A44"/>
<stop offset="1" stop-color="#C31162"/>
</linearGradient>
<linearGradient id="paint3_linear_242_725" x1="7.79994" y1="0.17997" x2="17.9599" y2="10.34" gradientUnits="userSpaceOnUse">
<stop stop-color="#32A071"/>
<stop offset="0.07" stop-color="#2DA771"/>
<stop offset="0.48" stop-color="#15CF74"/>
<stop offset="0.8" stop-color="#06E775"/>
<stop offset="1" stop-color="#00F076"/>
</linearGradient>
<clipPath id="clip0_242_725">
<rect width="135" height="40" fill="white" transform="translate(0.5)"/>
</clipPath>
</defs>
</svg>
