<svg width="121" height="40" viewBox="0 0 121 40" fill="none" xmlns="http://www.w3.org/2000/svg">
<g clip-path="url(#clip0_242_724)">
<path d="M110.944 -0.000114141H10.0614C9.69372 -0.000114141 9.3304 -0.000114141 8.96364 0.00188586C8.65663 0.00388586 8.35207 0.00969586 8.04211 0.0145859C7.36874 0.0224877 6.69695 0.0815621 6.03259 0.191296C5.36915 0.303418 4.7265 0.514802 4.12637 0.818296C3.52697 1.12436 2.97929 1.52205 2.50318 1.99696C2.02457 2.47052 1.62561 3.0179 1.32165 3.61805C1.01685 4.21699 0.805496 4.85882 0.694896 5.52137C0.583244 6.18307 0.523163 6.85241 0.515193 7.52337C0.505886 7.82997 0.504904 8.13759 0.5 8.44423V31.5585C0.504904 31.869 0.505886 32.1698 0.515193 32.4804C0.523166 33.1513 0.583246 33.8206 0.694896 34.4823C0.80519 35.1452 1.01655 35.7874 1.32165 36.3866C1.62548 36.9848 2.02449 37.53 2.50318 38.0009C2.97748 38.4779 3.52552 38.8759 4.12637 39.1796C4.7265 39.4839 5.36908 39.6965 6.03259 39.8104C6.69707 39.9192 7.36879 39.9783 8.04211 39.9872C8.35207 39.994 8.65663 39.9979 8.96364 39.9979C9.33039 39.9999 9.69374 39.9999 10.0614 39.9999H110.944C111.304 39.9999 111.671 39.9999 112.031 39.9979C112.337 39.9979 112.65 39.994 112.955 39.9872C113.628 39.9788 114.298 39.9197 114.961 39.8104C115.627 39.6957 116.272 39.4831 116.875 39.1796C117.475 38.8757 118.022 38.4777 118.496 38.0009C118.974 37.5281 119.374 36.9833 119.681 36.3866C119.984 35.787 120.193 35.1448 120.302 34.4823C120.414 33.8205 120.476 33.1514 120.488 32.4804C120.492 32.1698 120.492 31.869 120.492 31.5585C120.5 31.1952 120.5 30.8339 120.5 30.4647V9.53602C120.5 9.16981 120.5 8.80653 120.492 8.44423C120.492 8.13759 120.492 7.82997 120.488 7.52333C120.476 6.85231 120.414 6.18312 120.302 5.52133C120.193 4.85917 119.984 4.21739 119.681 3.61801C119.062 2.41508 118.081 1.43591 116.875 0.818206C116.272 0.515453 115.627 0.304126 114.961 0.191206C114.298 0.0809886 113.628 0.0218936 112.955 0.0144459C112.65 0.00956586 112.337 0.00370586 112.031 0.00175586C111.671 -0.000244141 111.304 -0.000244141 110.944 -0.000244141V-0.000114141Z" fill="#A6A6A6"/>
<path d="M8.96856 39.125C8.66303 39.125 8.36487 39.1211 8.06174 39.1143C7.43376 39.1061 6.80725 39.0516 6.18735 38.9512C5.60932 38.8519 5.04937 38.6673 4.52596 38.4033C4.00735 38.1415 3.53433 37.7983 3.12504 37.3867C2.70981 36.98 2.36412 36.5082 2.10166 35.9902C1.83631 35.4688 1.65267 34.9099 1.55714 34.333C1.45397 33.7131 1.39816 33.0863 1.39017 32.458C1.38381 32.2471 1.37549 31.5449 1.37549 31.5449V8.44434C1.37549 8.44434 1.38435 7.75293 1.39022 7.5498C1.39787 6.92248 1.45336 6.29665 1.55621 5.67773C1.65192 5.09925 1.8357 4.53875 2.1012 4.01563C2.3627 3.49794 2.70647 3.02586 3.11919 2.61768C3.53145 2.20562 4.00597 1.8606 4.52547 1.59521C5.04767 1.33209 5.60657 1.14873 6.18343 1.05127C6.80537 0.949836 7.43405 0.894996 8.0642 0.88721L8.96906 0.875H112.026L112.942 0.8877C113.566 0.895099 114.189 0.94945 114.805 1.05029C115.388 1.14898 115.953 1.33362 116.481 1.59814C117.522 2.13299 118.369 2.97916 118.903 4.01807C119.164 4.53758 119.345 5.09351 119.439 5.66699C119.544 6.29099 119.602 6.92174 119.614 7.5542C119.617 7.8374 119.617 8.1416 119.617 8.44434C119.625 8.81934 119.625 9.17627 119.625 9.53613V30.4648C119.625 30.8281 119.625 31.1826 119.617 31.54C119.617 31.8652 119.617 32.1631 119.613 32.4697C119.601 33.0909 119.544 33.7104 119.441 34.3232C119.348 34.9043 119.165 35.4675 118.9 35.9932C118.636 36.5056 118.292 36.9733 117.881 37.3789C117.472 37.7927 116.998 38.1379 116.478 38.4014C115.951 38.6674 115.387 38.8527 114.805 38.9512C114.186 39.0522 113.559 39.1067 112.931 39.1143C112.637 39.1211 112.33 39.125 112.031 39.125L110.944 39.127L8.96856 39.125Z" fill="black"/>
<path d="M25.3384 20.3006C25.3492 19.4659 25.5715 18.6475 25.9847 17.9216C26.3978 17.1956 26.9885 16.5857 27.7015 16.1485C27.2485 15.5034 26.6509 14.9724 25.9561 14.5979C25.2614 14.2233 24.4886 14.0155 23.6992 13.9908C22.0152 13.8146 20.3827 14.9957 19.5246 14.9957C18.6499 14.9957 17.3287 14.0083 15.906 14.0375C14.9857 14.0672 14.0889 14.334 13.3028 14.8121C12.5167 15.2901 11.8682 15.9631 11.4205 16.7654C9.48105 20.1138 10.9277 25.0349 12.7855 27.7415C13.715 29.0668 14.8013 30.5473 16.2228 30.4948C17.6137 30.4372 18.1332 29.6103 19.8122 29.6103C21.4756 29.6103 21.963 30.4948 23.4133 30.4614C24.9058 30.4372 25.8462 29.1302 26.7431 27.7923C27.411 26.8479 27.9249 25.8042 28.2658 24.6997C27.3987 24.334 26.6587 23.7218 26.1381 22.9395C25.6175 22.1572 25.3394 21.2394 25.3384 20.3006Z" fill="white"/>
<path d="M22.5989 12.2108C23.4127 11.2366 23.8137 9.98445 23.7166 8.72021C22.4733 8.85044 21.3248 9.44299 20.5 10.3798C20.0967 10.8375 19.7879 11.3699 19.5911 11.9467C19.3943 12.5235 19.3134 13.1333 19.3531 13.7412C19.975 13.7476 20.5902 13.6132 21.1524 13.3481C21.7147 13.083 22.2092 12.6942 22.5989 12.2108Z" fill="white"/>
<path d="M42.921 27.1397H38.1743L37.0344 30.4961H35.0239L39.5199 18.0781H41.6088L46.1047 30.4961H44.0599L42.921 27.1397ZM38.666 25.5908H42.4285L40.5737 20.1436H40.5218L38.666 25.5908Z" fill="white"/>
<path d="M55.8145 25.9697C55.8145 28.7832 54.3044 30.5908 52.0256 30.5908C51.4483 30.6209 50.8742 30.4883 50.369 30.2082C49.8638 29.928 49.4479 29.5117 49.1689 29.0068H49.1258V33.4912H47.2622V21.4423H49.0661V22.9482H49.1004C49.3922 22.4457 49.8151 22.0316 50.3241 21.7497C50.8332 21.4679 51.4093 21.3289 51.9913 21.3476C54.2956 21.3476 55.8145 23.164 55.8145 25.9697ZM53.899 25.9697C53.899 24.1367 52.949 22.9316 51.4997 22.9316C50.0758 22.9316 49.118 24.1621 49.118 25.9697C49.118 27.7939 50.0758 29.0156 51.4997 29.0156C52.9491 29.0156 53.899 27.8193 53.899 25.9697Z" fill="white"/>
<path d="M65.8072 25.9697C65.8072 28.7832 64.2971 30.5908 62.0182 30.5908C61.441 30.6209 60.8669 30.4883 60.3617 30.2081C59.8565 29.928 59.4406 29.5117 59.1616 29.0068H59.1185V33.4912H57.2549V21.4423H59.0588V22.9482H59.093C59.3848 22.4457 59.8077 22.0315 60.3168 21.7497C60.8258 21.4679 61.402 21.3289 61.9839 21.3476C64.2883 21.3476 65.8072 23.164 65.8072 25.9697ZM63.8917 25.9697C63.8917 24.1367 62.9417 22.9316 61.4924 22.9316C60.0684 22.9316 59.1107 24.1621 59.1107 25.9697C59.1107 27.7939 60.0684 29.0156 61.4924 29.0156C62.9417 29.0156 63.8917 27.8193 63.8917 25.9697H63.8917Z" fill="white"/>
<path d="M72.4116 27.0362C72.5497 28.2676 73.7494 29.0762 75.3887 29.0762C76.9595 29.0762 78.0896 28.2676 78.0896 27.1572C78.0896 26.1934 77.408 25.6162 75.7941 25.2207L74.1803 24.833C71.8936 24.2822 70.832 23.2158 70.832 21.4854C70.832 19.3428 72.7044 17.8711 75.3632 17.8711C77.9946 17.8711 79.7985 19.3428 79.8592 21.4854H77.978C77.8653 20.2461 76.8381 19.4981 75.3368 19.4981C73.8355 19.4981 72.8082 20.2549 72.8082 21.3565C72.8082 22.2344 73.4644 22.751 75.0694 23.1465L76.4414 23.4824C78.9964 24.0849 80.058 25.1084 80.058 26.9248C80.058 29.248 78.2022 30.7031 75.2506 30.7031C72.489 30.7031 70.6244 29.2822 70.5039 27.0361L72.4116 27.0362Z" fill="white"/>
<path d="M84.0802 19.2998V21.4424H85.8067V22.9141H84.0802V27.9053C84.0802 28.6807 84.4259 29.042 85.1849 29.042C85.3898 29.0384 85.5945 29.0241 85.7979 28.999V30.4619C85.4567 30.5255 85.1099 30.5543 84.7628 30.5478C82.9247 30.5478 82.2078 29.8593 82.2078 28.1035V22.9141H80.8877V21.4424H82.2078V19.2998H84.0802Z" fill="white"/>
<path d="M86.8066 25.9697C86.8066 23.1211 88.4891 21.3311 91.1126 21.3311C93.745 21.3311 95.4196 23.1211 95.4196 25.9697C95.4196 28.8262 93.7538 30.6084 91.1126 30.6084C88.4724 30.6084 86.8066 28.8262 86.8066 25.9697ZM93.5207 25.9697C93.5207 24.0156 92.6227 22.8623 91.1126 22.8623C89.6025 22.8623 88.7055 24.0244 88.7055 25.9697C88.7055 27.9316 89.6025 29.0762 91.1126 29.0762C92.6227 29.0762 93.5207 27.9316 93.5207 25.9697H93.5207Z" fill="white"/>
<path d="M96.9561 21.4425H98.7335V22.9835H98.7766C98.8969 22.5022 99.1796 22.0769 99.5773 21.779C99.975 21.4811 100.463 21.3288 100.96 21.3478C101.175 21.347 101.389 21.3703 101.599 21.4171V23.1554C101.328 23.0728 101.045 23.0348 100.762 23.0431C100.491 23.0321 100.221 23.0797 99.9704 23.1826C99.7199 23.2855 99.4946 23.4412 99.3102 23.6391C99.1257 23.837 98.9863 24.0724 98.9016 24.3291C98.817 24.5857 98.789 24.8576 98.8197 25.1261V30.4962H96.9561L96.9561 21.4425Z" fill="white"/>
<path d="M110.191 27.8369C109.941 29.4805 108.336 30.6084 106.282 30.6084C103.641 30.6084 102.001 28.8437 102.001 26.0127C102.001 23.1729 103.65 21.3311 106.204 21.3311C108.716 21.3311 110.295 23.0518 110.295 25.7969V26.4336H103.883V26.5459C103.853 26.8791 103.895 27.2148 104.005 27.5306C104.116 27.8464 104.293 28.1352 104.524 28.3778C104.755 28.6203 105.035 28.8111 105.345 28.9374C105.656 29.0637 105.99 29.1226 106.325 29.1103C106.765 29.1515 107.207 29.0498 107.585 28.8203C107.963 28.5909 108.256 28.246 108.422 27.8369L110.191 27.8369ZM103.892 25.1348H108.431C108.447 24.8352 108.402 24.5354 108.297 24.2541C108.192 23.9729 108.03 23.7164 107.821 23.5006C107.611 23.2849 107.36 23.1145 107.082 23.0003C106.803 22.8861 106.504 22.8305 106.204 22.8369C105.9 22.8351 105.599 22.8933 105.319 23.008C105.038 23.1227 104.782 23.2918 104.567 23.5054C104.353 23.7191 104.182 23.973 104.066 24.2527C103.95 24.5323 103.891 24.8321 103.892 25.1348V25.1348Z" fill="white"/>
<path d="M38.4323 8.73065C38.823 8.70269 39.2151 8.76155 39.5802 8.90298C39.9454 9.04441 40.2745 9.26489 40.5438 9.54852C40.8131 9.83214 41.016 10.1718 41.1377 10.5431C41.2595 10.9144 41.2971 11.308 41.2478 11.6955C41.2478 13.6017 40.2147 14.6975 38.4323 14.6975H36.271V8.73065H38.4323ZM37.2003 13.8536H38.3285C38.6077 13.8703 38.8871 13.8246 39.1464 13.72C39.4056 13.6154 39.6382 13.4545 39.8273 13.2489C40.0163 13.0433 40.157 12.7983 40.239 12.5317C40.3211 12.2651 40.3426 11.9836 40.3018 11.7076C40.3396 11.4328 40.316 11.153 40.2327 10.8884C40.1493 10.6237 40.0083 10.3807 39.8197 10.1768C39.6311 9.97285 39.3996 9.81304 39.1418 9.70881C38.884 9.60457 38.6063 9.55849 38.3285 9.57386H37.2003V13.8536Z" fill="white"/>
<path d="M42.2977 12.444C42.2693 12.1481 42.3032 11.8496 42.3973 11.5675C42.4914 11.2854 42.6436 11.0261 42.8441 10.8061C43.0446 10.5861 43.289 10.4103 43.5616 10.2901C43.8343 10.1698 44.1291 10.1077 44.4272 10.1077C44.7253 10.1077 45.0201 10.1698 45.2927 10.2901C45.5653 10.4103 45.8097 10.5861 46.0102 10.8061C46.2107 11.0261 46.3629 11.2854 46.457 11.5675C46.5511 11.8496 46.5851 12.1481 46.5567 12.444C46.5856 12.7403 46.5521 13.0392 46.4582 13.3218C46.3643 13.6043 46.2123 13.8641 46.0117 14.0845C45.8111 14.3049 45.5666 14.4811 45.2937 14.6016C45.0208 14.7221 44.7256 14.7844 44.4272 14.7844C44.1287 14.7844 43.8336 14.7221 43.5607 14.6016C43.2878 14.4811 43.0432 14.3049 42.8426 14.0845C42.6421 13.8641 42.49 13.6043 42.3961 13.3218C42.3023 13.0392 42.2687 12.7403 42.2977 12.444ZM45.64 12.444C45.64 11.468 45.2003 10.8972 44.4286 10.8972C43.654 10.8972 43.2182 11.468 43.2182 12.4441C43.2182 13.4279 43.654 13.9943 44.4286 13.9943C45.2003 13.9943 45.64 13.424 45.64 12.444H45.64Z" fill="white"/>
<path d="M52.2181 14.6975H51.2937L50.3604 11.3811H50.2899L49.3605 14.6975H48.4449L47.2002 10.1946H48.1041L48.913 13.6306H48.9796L49.908 10.1946H50.7629L51.6913 13.6306H51.7618L52.5668 10.1946H53.4579L52.2181 14.6975Z" fill="white"/>
<path d="M54.5049 10.1946H55.3628V10.91H55.4293C55.5423 10.653 55.7329 10.4377 55.9744 10.2939C56.216 10.15 56.4965 10.085 56.7769 10.1077C56.9966 10.0912 57.2172 10.1243 57.4224 10.2044C57.6275 10.2845 57.812 10.4096 57.9621 10.5704C58.1122 10.7313 58.2241 10.9237 58.2895 11.1335C58.3549 11.3434 58.3721 11.5652 58.3398 11.7825V14.6975H57.4487V12.0057C57.4487 11.282 57.1333 10.9222 56.4743 10.9222C56.3251 10.9152 56.1762 10.9406 56.0377 10.9964C55.8993 11.0522 55.7746 11.1372 55.6722 11.2456C55.5698 11.354 55.4921 11.4832 55.4444 11.6243C55.3967 11.7655 55.3802 11.9152 55.396 12.0633V14.6976H54.5049L54.5049 10.1946Z" fill="white"/>
<path d="M59.7598 8.43677H60.6509V14.6975H59.7598V8.43677Z" fill="white"/>
<path d="M61.8894 12.4441C61.8611 12.1482 61.895 11.8496 61.9892 11.5675C62.0833 11.2854 62.2355 11.0261 62.436 10.8061C62.6366 10.5861 62.881 10.4104 63.1536 10.2901C63.4262 10.1698 63.7211 10.1077 64.0192 10.1077C64.3173 10.1077 64.6121 10.1698 64.8848 10.2901C65.1574 10.4104 65.4018 10.5861 65.6023 10.8061C65.8029 11.0261 65.9551 11.2854 66.0492 11.5675C66.1433 11.8496 66.1773 12.1482 66.1489 12.4441C66.1778 12.7404 66.1442 13.0393 66.0504 13.3219C65.9565 13.6044 65.8044 13.8642 65.6038 14.0846C65.4032 14.305 65.1586 14.4811 64.8857 14.6017C64.6128 14.7222 64.3177 14.7845 64.0192 14.7845C63.7207 14.7845 63.4255 14.7222 63.1527 14.6017C62.8798 14.4811 62.6352 14.305 62.4346 14.0846C62.234 13.8642 62.0819 13.6044 61.988 13.3219C61.8941 13.0393 61.8606 12.7404 61.8894 12.4441ZM65.2318 12.4441C65.2318 11.4681 64.7921 10.8973 64.0204 10.8973C63.2458 10.8973 62.81 11.4681 62.81 12.4441C62.81 13.428 63.2458 13.9944 64.0204 13.9944C64.7921 13.9944 65.2318 13.4241 65.2318 12.4441H65.2318Z" fill="white"/>
<path d="M67.0874 13.4241C67.0874 12.6135 67.6926 12.1462 68.7669 12.0798L69.9901 12.0095V11.6208C69.9901 11.1453 69.6747 10.8767 69.0656 10.8767C68.5681 10.8767 68.2234 11.0588 68.1245 11.3772H67.2617C67.3528 10.6038 68.0824 10.1077 69.1067 10.1077C70.2388 10.1077 70.8773 10.6697 70.8773 11.6208V14.6975H70.0194V14.0647H69.9489C69.8058 14.2917 69.6048 14.4767 69.3666 14.6009C69.1283 14.7252 68.8612 14.7841 68.5926 14.7717C68.403 14.7914 68.2114 14.7712 68.0302 14.7125C67.8489 14.6538 67.682 14.5579 67.5402 14.4309C67.3983 14.3039 67.2848 14.1487 67.2068 13.9753C67.1288 13.8019 67.0881 13.6141 67.0874 13.4241ZM69.9901 13.0393V12.6628L68.8874 12.7331C68.2655 12.7746 67.9835 12.9856 67.9835 13.3826C67.9835 13.7878 68.336 14.0237 68.8208 14.0237C68.9628 14.038 69.1063 14.0237 69.2427 13.9816C69.3791 13.9395 69.5056 13.8705 69.6147 13.7787C69.7238 13.6868 69.8132 13.574 69.8777 13.447C69.9422 13.32 69.9804 13.1813 69.9901 13.0393Z" fill="white"/>
<path d="M72.0483 12.4441C72.0483 11.0213 72.7818 10.1199 73.9227 10.1199C74.2049 10.1069 74.485 10.1743 74.7302 10.3142C74.9754 10.4541 75.1756 10.6607 75.3075 10.9099H75.3741V8.43677H76.2652V14.6975H75.4113V13.9861H75.3408C75.1988 14.2336 74.9916 14.4376 74.7416 14.5761C74.4917 14.7146 74.2085 14.7822 73.9227 14.7717C72.774 14.7718 72.0483 13.8704 72.0483 12.4441ZM72.9689 12.4441C72.9689 13.3992 73.4204 13.9739 74.1754 13.9739C74.9265 13.9739 75.3907 13.3909 75.3907 12.448C75.3907 11.5095 74.9217 10.9182 74.1754 10.9182C73.4252 10.9182 72.9689 11.4968 72.9689 12.4441H72.9689Z" fill="white"/>
<path d="M79.9525 12.444C79.9241 12.1481 79.958 11.8496 80.0521 11.5675C80.1462 11.2854 80.2984 11.0261 80.4989 10.8061C80.6994 10.5861 80.9438 10.4103 81.2164 10.2901C81.489 10.1698 81.7838 10.1077 82.082 10.1077C82.3801 10.1077 82.6749 10.1698 82.9475 10.2901C83.2201 10.4103 83.4645 10.5861 83.665 10.8061C83.8655 11.0261 84.0177 11.2854 84.1118 11.5675C84.2059 11.8496 84.2398 12.1481 84.2114 12.444C84.2404 12.7403 84.2068 13.0392 84.113 13.3218C84.0191 13.6043 83.867 13.8641 83.6665 14.0845C83.4659 14.3049 83.2213 14.4811 82.9485 14.6016C82.6756 14.7221 82.3804 14.7844 82.082 14.7844C81.7835 14.7844 81.4883 14.7221 81.2154 14.6016C80.9426 14.4811 80.698 14.3049 80.4974 14.0845C80.2969 13.8641 80.1448 13.6043 80.0509 13.3218C79.9571 13.0392 79.9235 12.7403 79.9525 12.444ZM83.2948 12.444C83.2948 11.468 82.8551 10.8972 82.0834 10.8972C81.3088 10.8972 80.873 11.468 80.873 12.4441C80.873 13.4279 81.3088 13.9943 82.0834 13.9943C82.8551 13.9943 83.2948 13.424 83.2948 12.444Z" fill="white"/>
<path d="M85.4072 10.1946H86.2651V10.91H86.3317C86.4447 10.653 86.6352 10.4377 86.8767 10.2939C87.1183 10.15 87.3988 10.085 87.6792 10.1077C87.8989 10.0912 88.1195 10.1243 88.3247 10.2044C88.5299 10.2845 88.7144 10.4096 88.8645 10.5704C89.0146 10.7313 89.1265 10.9237 89.1918 11.1335C89.2572 11.3434 89.2744 11.5652 89.2422 11.7825V14.6975H88.351V12.0057C88.351 11.282 88.0357 10.9222 87.3766 10.9222C87.2274 10.9152 87.0785 10.9406 86.9401 10.9964C86.8016 11.0522 86.6769 11.1372 86.5745 11.2456C86.4721 11.354 86.3944 11.4832 86.3467 11.6243C86.2991 11.7655 86.2826 11.9152 86.2984 12.0633V14.6976H85.4072V10.1946Z" fill="white"/>
<path d="M94.2775 9.07349V10.2151H95.2558V10.9636H94.2775V13.2791C94.2775 13.7507 94.4723 13.9573 94.916 13.9573C95.0295 13.9569 95.143 13.9501 95.2558 13.9368V14.677C95.0957 14.7055 94.9336 14.7207 94.771 14.7224C93.78 14.7224 93.3853 14.3747 93.3853 13.5066V10.9636H92.6685V10.215H93.3853V9.07349H94.2775Z" fill="white"/>
<path d="M96.4731 8.43677H97.3565V10.9182H97.427C97.5454 10.6589 97.7412 10.4423 97.9876 10.298C98.234 10.1536 98.519 10.0885 98.8038 10.1116C99.0224 10.0997 99.2409 10.1361 99.4438 10.2181C99.6466 10.3002 99.8288 10.4259 99.9773 10.5862C100.126 10.7465 100.237 10.9376 100.303 11.1457C100.369 11.3539 100.388 11.5739 100.359 11.7903V14.6975H99.4669V12.0095C99.4669 11.2903 99.131 10.926 98.5013 10.926C98.3482 10.9135 98.1941 10.9345 98.0499 10.9875C97.9057 11.0406 97.7749 11.1244 97.6666 11.2332C97.5583 11.3419 97.4752 11.4729 97.4229 11.6171C97.3707 11.7612 97.3507 11.915 97.3643 12.0676V14.6975H96.4732L96.4731 8.43677Z" fill="white"/>
<path d="M105.555 13.4818C105.434 13.8933 105.172 14.2493 104.814 14.4874C104.457 14.7256 104.026 14.8307 103.599 14.7845C103.301 14.7923 103.006 14.7355 102.732 14.618C102.459 14.5004 102.215 14.325 102.016 14.1039C101.818 13.8827 101.67 13.6212 101.583 13.3374C101.496 13.0535 101.472 12.7543 101.513 12.4603C101.473 12.1654 101.498 11.8655 101.584 11.5808C101.671 11.2961 101.818 11.0334 102.016 10.8103C102.213 10.5872 102.456 10.409 102.729 10.2878C103.001 10.1666 103.297 10.1052 103.595 10.1077C104.851 10.1077 105.609 10.9637 105.609 12.3777V12.6878H102.421V12.7376C102.407 12.9029 102.428 13.0692 102.482 13.226C102.536 13.3827 102.623 13.5264 102.736 13.6479C102.849 13.7693 102.987 13.8658 103.139 13.9312C103.292 13.9966 103.457 14.0295 103.623 14.0276C103.836 14.0532 104.052 14.0149 104.244 13.9177C104.435 13.8205 104.593 13.6687 104.698 13.4817L105.555 13.4818ZM102.421 12.0306H104.701C104.713 11.8795 104.692 11.7277 104.641 11.5849C104.59 11.4422 104.509 11.3117 104.405 11.2019C104.3 11.092 104.174 11.0052 104.033 10.9471C103.893 10.8889 103.742 10.8606 103.59 10.8641C103.436 10.8622 103.283 10.891 103.14 10.949C102.997 11.0069 102.868 11.0928 102.759 11.2015C102.65 11.3102 102.564 11.4396 102.506 11.582C102.448 11.7244 102.419 11.8769 102.421 12.0306H102.421Z" fill="white"/>
</g>
<defs>
<clipPath id="clip0_242_724">
<rect width="120" height="40" fill="white" transform="translate(0.5)"/>
</clipPath>
</defs>
</svg>
