<svg width="21" height="21" viewBox="0 0 21 21" fill="none" xmlns="http://www.w3.org/2000/svg">
<g id="akar-icons:twitter-fill" clip-path="url(#clip0_242_548)">
<g id="Group">
<path id="Vector" d="M20.6316 4.53018C19.9129 4.84867 19.1408 5.06386 18.329 5.16113C19.1666 4.65998 19.7932 3.87123 20.0919 2.94206C19.305 3.40945 18.4438 3.73844 17.5457 3.91473C16.9418 3.2699 16.1419 2.84249 15.2701 2.69887C14.3984 2.55525 13.5036 2.70345 12.7248 3.12046C11.9459 3.53747 11.3265 4.19996 10.9627 5.00508C10.5989 5.81019 10.5111 6.71289 10.7129 7.57302C9.11851 7.49296 7.55874 7.07854 6.13485 6.35666C4.71096 5.63478 3.45476 4.62157 2.4478 3.38278C2.10349 3.97671 1.90551 4.66533 1.90551 5.3987C1.90512 6.05891 2.06771 6.70901 2.37883 7.29131C2.68995 7.87362 3.14 8.37012 3.68903 8.73678C3.0523 8.71652 2.42961 8.54447 1.8728 8.23495V8.2866C1.87274 9.21256 2.19303 10.11 2.77935 10.8267C3.36567 11.5434 4.18188 12.0352 5.08951 12.2186C4.49883 12.3785 3.87955 12.402 3.27844 12.2875C3.53452 13.0842 4.03333 13.7809 4.70506 14.2801C5.37678 14.7793 6.18778 15.0559 7.02452 15.0712C5.6041 16.1863 3.8499 16.7911 2.04409 16.7884C1.72421 16.7885 1.4046 16.7699 1.08691 16.7325C2.91991 17.911 5.05365 18.5365 7.23283 18.5341C14.6096 18.5341 18.6424 12.4243 18.6424 7.12541C18.6424 6.95326 18.6381 6.77938 18.6303 6.60723C19.4147 6.03996 20.0918 5.3375 20.6299 4.53277L20.6316 4.53018Z" fill="#1E97CD"/>
</g>
</g>
<defs>
<clipPath id="clip0_242_548">
<rect width="20.6585" height="20.6585" fill="white" transform="translate(0.280273 0.280518)"/>
</clipPath>
</defs>
</svg>
