<svg width="21" height="21" viewBox="0 0 21 21" fill="none" xmlns="http://www.w3.org/2000/svg">
<g id="akar-icons:instagram-fill" clip-path="url(#clip0_242_542)">
<g id="Group">
<path id="Vector" fill-rule="evenodd" clip-rule="evenodd" d="M6.48628 1.19817C7.49597 1.15169 7.81789 1.14136 10.3899 1.14136C12.9619 1.14136 13.2838 1.15255 14.2926 1.19817C15.3014 1.24379 15.9901 1.40475 16.5926 1.63802C17.2236 1.87646 17.796 2.24917 18.2694 2.7312C18.7514 3.20377 19.1233 3.77532 19.3609 4.40713C19.595 5.00967 19.7551 5.69829 19.8016 6.70539C19.848 7.7168 19.8584 8.03873 19.8584 10.6099C19.8584 13.1818 19.8472 13.5038 19.8016 14.5135C19.7559 15.5206 19.595 16.2092 19.3609 16.8117C19.1233 17.4436 18.7508 18.0161 18.2694 18.4894C17.796 18.9714 17.2236 19.3433 16.5926 19.5808C15.9901 19.815 15.3014 19.9751 14.2943 20.0215C13.2838 20.068 12.9619 20.0783 10.3899 20.0783C7.81789 20.0783 7.49597 20.0672 6.48628 20.0215C5.47918 19.9759 4.79056 19.815 4.18802 19.5808C3.55614 19.3432 2.98364 18.9708 2.51037 18.4894C2.02867 18.0165 1.6559 17.4443 1.41805 16.8126C1.18478 16.21 1.02468 15.5214 0.978198 14.5143C0.931716 13.5029 0.921387 13.181 0.921387 10.6099C0.921387 8.03787 0.932577 7.71594 0.978198 6.70711C1.02382 5.69829 1.18478 5.00967 1.41805 4.40713C1.65625 3.77539 2.0293 3.20318 2.51123 2.73034C2.98383 2.24874 3.55576 1.87598 4.18716 1.63802C4.7897 1.40475 5.47832 1.24465 6.48542 1.19817H6.48628ZM14.216 2.9025C13.2175 2.85688 12.918 2.84741 10.3899 2.84741C7.86179 2.84741 7.56224 2.85688 6.56375 2.9025C5.64014 2.94468 5.13917 3.09875 4.80519 3.22873C4.36362 3.40088 4.04771 3.60489 3.71631 3.93629C3.40217 4.2419 3.16041 4.61396 3.00876 5.02516C2.87878 5.35914 2.7247 5.86011 2.68253 6.78372C2.63691 7.78222 2.62744 8.08176 2.62744 10.6099C2.62744 13.1379 2.63691 13.4375 2.68253 14.436C2.7247 15.3596 2.87878 15.8606 3.00876 16.1945C3.16026 16.6051 3.40213 16.9778 3.71631 17.2834C4.02189 17.5976 4.3946 17.8395 4.80519 17.991C5.13917 18.121 5.64014 18.275 6.56375 18.3172C7.56224 18.3628 7.86093 18.3723 10.3899 18.3723C12.9188 18.3723 13.2175 18.3628 14.216 18.3172C15.1396 18.275 15.6406 18.121 15.9746 17.991C16.4162 17.8188 16.7321 17.6148 17.0634 17.2834C17.3776 16.9778 17.6195 16.6051 17.771 16.1945C17.901 15.8606 18.0551 15.3596 18.0972 14.436C18.1429 13.4375 18.1523 13.1379 18.1523 10.6099C18.1523 8.08176 18.1429 7.78222 18.0972 6.78372C18.0551 5.86011 17.901 5.35914 17.771 5.02516C17.5989 4.58359 17.3948 4.26768 17.0634 3.93629C16.7578 3.62216 16.3858 3.38041 15.9746 3.22873C15.6406 3.09875 15.1396 2.94468 14.216 2.9025ZM9.1805 13.5287C9.85591 13.8099 10.608 13.8478 11.3083 13.6361C12.0085 13.4243 12.6136 12.976 13.0201 12.3678C13.4265 11.7595 13.6092 11.0289 13.5369 10.3009C13.4646 9.57291 13.1418 8.89259 12.6236 8.37615C12.2933 8.04602 11.8938 7.79324 11.4541 7.63601C11.0143 7.47878 10.5452 7.421 10.0804 7.46684C9.61567 7.51268 9.16686 7.661 8.7663 7.90111C8.36574 8.14123 8.0234 8.46717 7.76393 8.85547C7.50445 9.24377 7.3343 9.68477 7.26572 10.1467C7.19714 10.6087 7.23184 11.0801 7.36731 11.527C7.50279 11.974 7.73567 12.3853 8.0492 12.7314C8.36273 13.0775 8.7491 13.3498 9.1805 13.5287ZM6.94851 7.16849C7.40044 6.71656 7.93696 6.35807 8.52743 6.11349C9.1179 5.86891 9.75076 5.74302 10.3899 5.74302C11.029 5.74302 11.6619 5.86891 12.2523 6.11349C12.8428 6.35807 13.3793 6.71656 13.8313 7.16849C14.2832 7.62041 14.6417 8.15693 14.8862 8.7474C15.1308 9.33787 15.2567 9.97073 15.2567 10.6099C15.2567 11.249 15.1308 11.8818 14.8862 12.4723C14.6417 13.0628 14.2832 13.5993 13.8313 14.0512C12.9185 14.9639 11.6806 15.4767 10.3899 15.4767C9.09912 15.4767 7.86122 14.9639 6.94851 14.0512C6.03581 13.1385 5.52305 11.9006 5.52305 10.6099C5.52305 9.31909 6.03581 8.08119 6.94851 7.16849ZM16.3361 6.46782C16.4481 6.36217 16.5377 6.23513 16.5998 6.09422C16.6618 5.9533 16.6949 5.80138 16.6971 5.64744C16.6994 5.4935 16.6707 5.34068 16.6128 5.19801C16.5549 5.05535 16.469 4.92575 16.3602 4.81689C16.2513 4.70803 16.1217 4.62211 15.979 4.56423C15.8364 4.50636 15.6836 4.47769 15.5296 4.47993C15.3757 4.48218 15.2238 4.51529 15.0828 4.5773C14.9419 4.63931 14.8149 4.72897 14.7092 4.84096C14.5038 5.05876 14.3913 5.34806 14.3957 5.64744C14.4 5.94682 14.5209 6.23272 14.7326 6.44444C14.9443 6.65616 15.2302 6.77703 15.5296 6.78139C15.829 6.78576 16.1183 6.67327 16.3361 6.46782Z" fill="#1E97CD"/>
</g>
</g>
<defs>
<clipPath id="clip0_242_542">
<rect width="20.6585" height="20.6585" fill="white" transform="translate(0.0610352 0.280518)"/>
</clipPath>
</defs>
</svg>
