<svg width="113" height="46" viewBox="0 0 113 46" fill="none" xmlns="http://www.w3.org/2000/svg">
<g clip-path="url(#clip0_252_1530)">
<rect x="0.731934" y="0.672852" width="112.142" height="44.794" rx="3.13244" fill="#151822"/>
<rect x="-6.78589" y="-2.90088" width="122.792" height="51.6284"/>
<g style="mix-blend-mode:color" opacity="0.5">
<rect x="-6.78589" y="-2.90088" width="122.792" height="51.6284" fill="#015CFA"/>
</g>
<g filter="url(#filter0_b_252_1530)">
<rect x="5.7439" y="31.6838" width="34.7828" height="8.77085" rx="2.50596" fill="#6775A1" fill-opacity="0.16"/>
<path d="M10.1382 36.5693V33.9381H9.74726V36.5693H10.1382ZM10.5869 36.5693H10.9628V35.5469C10.9628 35.359 11.0192 35.2011 11.1282 35.077C11.2372 34.953 11.3763 34.8929 11.5454 34.8929C11.692 34.8929 11.8198 34.9455 11.9251 35.047C12.0266 35.1485 12.0792 35.2875 12.0792 35.4642V36.5693H12.4551V35.3552C12.4551 35.1109 12.3724 34.9116 12.207 34.765C12.0416 34.6184 11.8462 34.5433 11.6169 34.5433C11.3349 34.5433 11.1169 34.656 10.9628 34.8816V34.5771H10.5869V36.5693ZM13.4123 36.5693H14.04L14.7241 34.5771H14.3219L13.728 36.3889L13.1303 34.5771H12.7281L13.4123 36.5693ZM15.2544 34.8402C15.059 35.0394 14.9612 35.2838 14.9612 35.5732C14.9612 35.8551 15.059 36.0957 15.2544 36.2949C15.4461 36.4979 15.6829 36.5994 15.9573 36.5994C16.1039 36.5994 16.2355 36.5693 16.3558 36.5054C16.4723 36.4453 16.57 36.3626 16.6452 36.2536V36.5693H17.0211V34.5771H16.6452V34.8929C16.4798 34.6598 16.2505 34.5433 15.9573 34.5433C15.6829 34.5433 15.4461 34.641 15.2544 34.8402ZM15.3146 35.5732C15.3146 35.3815 15.3785 35.2199 15.51 35.0846C15.6416 34.953 15.7995 34.8853 15.9912 34.8853C16.1754 34.8853 16.337 34.953 16.4686 35.0883C16.6001 35.2236 16.6678 35.3853 16.6678 35.5732C16.6678 35.7574 16.6001 35.919 16.4686 36.0544C16.337 36.1897 16.1754 36.2573 15.9912 36.2573C15.8032 36.2573 15.6454 36.1897 15.5138 36.0544C15.3822 35.9228 15.3146 35.7612 15.3146 35.5732ZM17.7336 34.9041V35.9378C17.7336 36.216 17.8051 36.3964 17.9517 36.4829C18.0983 36.5693 18.2411 36.6107 18.3877 36.6107C18.4967 36.6107 18.6132 36.5919 18.7448 36.5581V36.1934C18.6208 36.2273 18.5155 36.2461 18.429 36.2461C18.3614 36.2461 18.29 36.2273 18.2185 36.1934C18.1434 36.1596 18.1058 36.0732 18.1058 35.9341V34.9041H18.7373V34.5771H18.1058V33.9682L17.7336 34.0772V34.5771H17.339V34.9041H17.7336ZM19.3219 34.844C19.1227 35.0432 19.0212 35.2875 19.0212 35.5732C19.0212 35.8551 19.1189 36.0995 19.3181 36.2987C19.5136 36.4979 19.7542 36.5994 20.0436 36.5994C20.2353 36.5994 20.4195 36.5505 20.5924 36.4528C20.7653 36.3551 20.8931 36.2273 20.9721 36.0656L20.6375 35.9792C20.5698 36.0656 20.4834 36.1371 20.3781 36.1859C20.2691 36.2385 20.1601 36.2649 20.0436 36.2649C19.8744 36.2649 19.7316 36.2122 19.6113 36.1107C19.4873 36.0093 19.4159 35.8777 19.3933 35.7085H21.0472C21.0585 35.6672 21.0623 35.6258 21.0623 35.5807C21.0623 35.5281 21.0548 35.4717 21.0435 35.4116C21.0059 35.1673 20.8931 34.9605 20.7052 34.7914C20.5135 34.626 20.2954 34.5433 20.0436 34.5433C19.7617 34.5433 19.5211 34.6448 19.3219 34.844ZM19.3933 35.4191C19.4159 35.265 19.4873 35.1372 19.6076 35.0319C19.7278 34.9304 19.8707 34.8778 20.0398 34.8778C20.2052 34.8778 20.3481 34.9304 20.4646 35.0319C20.5811 35.1372 20.6525 35.265 20.6789 35.4191H19.3933ZM22.4628 33.9381V36.5693H22.8424V34.1523L24.019 36.5693H24.6956V33.9381H24.3159V36.3137L23.1544 33.9381H22.4628ZM25.0742 35.5695C25.0742 35.8514 25.1757 36.0957 25.3749 36.2949C25.5741 36.4979 25.8147 36.5994 26.0966 36.5994C26.3785 36.5994 26.6229 36.4979 26.8221 36.2949C27.0213 36.0957 27.1191 35.8514 27.1191 35.5695C27.1191 35.2875 27.0213 35.047 26.8221 34.844C26.6229 34.6448 26.3785 34.5433 26.0966 34.5433C25.8147 34.5433 25.5741 34.6448 25.3749 34.844C25.1757 35.0432 25.0742 35.2875 25.0742 35.5695ZM25.4275 35.5695C25.4275 35.3815 25.4914 35.2199 25.623 35.0883C25.7508 34.9568 25.9087 34.8891 26.0966 34.8891C26.2846 34.8891 26.4424 34.9568 26.574 35.0883C26.7018 35.2199 26.7657 35.3815 26.7657 35.5695C26.7657 35.7574 26.7018 35.919 26.5703 36.0506C26.4387 36.1859 26.2808 36.2536 26.0966 36.2536C25.9124 36.2536 25.7546 36.1859 25.623 36.0544C25.4914 35.9228 25.4275 35.7612 25.4275 35.5695ZM27.8752 36.5693H28.4165L28.8074 34.8402L29.1946 36.5693H29.7321L30.2546 34.5771H29.875L29.4615 36.2874L29.0706 34.5771H28.5406L28.1459 36.2837L27.7324 34.5771H27.3527L27.8752 36.5693Z" fill="url(#paint0_linear_252_1530)"/>
<path d="M36.0367 36.0691H33.113M36.0367 36.0691L34.9925 37.1132M36.0367 36.0691L34.9925 35.0249" stroke="url(#paint1_linear_252_1530)" stroke-width="0.313244" stroke-linecap="round" stroke-linejoin="round"/>
<rect x="5.86136" y="31.8013" width="34.5478" height="8.53591" rx="2.38849" stroke="url(#paint2_linear_252_1530)" stroke-width="0.234933"/>
</g>
<g filter="url(#filter1_b_252_1530)">
<g filter="url(#filter2_dd_252_1530)">
<path d="M6.99687 11.6846V7.29915H6.15111V11.6846H6.99687ZM7.65875 11.6846H8.47319V9.97426C8.47319 9.71739 8.54836 9.49812 8.70499 9.32271C8.85534 9.15355 9.04956 9.06585 9.29389 9.06585C9.50063 9.06585 9.66978 9.13476 9.81387 9.27885C9.95796 9.42294 10.0269 9.61716 10.0269 9.84896V11.6846H10.8413V9.63595C10.8413 9.235 10.7035 8.91549 10.4341 8.67116C10.1647 8.42683 9.83893 8.30779 9.45677 8.30779C9.04956 8.30779 8.72378 8.45189 8.47319 8.74007V8.36418H7.65875V11.6846ZM12.2726 11.6846H13.5945L14.647 8.36418H13.7762L12.9367 11.1646L12.091 8.36418H11.2264L12.2726 11.6846ZM15.441 8.80272C15.1215 9.13476 14.9586 9.54198 14.9586 10.0244C14.9586 10.488 15.1215 10.8889 15.4472 11.2272C15.7667 11.5655 16.1552 11.7347 16.6062 11.7347C17.0072 11.7347 17.3392 11.5969 17.6024 11.3275V11.6846H18.4168V8.36418H17.6024V8.72754C17.333 8.44562 17.0009 8.30779 16.6062 8.30779C16.1489 8.30779 15.7605 8.47068 15.441 8.80272ZM15.7229 10.0244C15.7229 9.75498 15.8169 9.52945 16.0048 9.33524C16.1865 9.14102 16.4183 9.04705 16.6877 9.04705C16.9508 9.04705 17.1763 9.14102 17.3706 9.33524C17.5585 9.52945 17.6525 9.76125 17.6525 10.0244C17.6525 10.2875 17.5585 10.513 17.3706 10.7072C17.1763 10.9015 16.9508 10.9954 16.6877 10.9954C16.4183 10.9954 16.1865 10.9015 16.0048 10.7072C15.8169 10.5193 15.7229 10.2938 15.7229 10.0244ZM19.4729 9.06585V10.5945C19.4729 11.0769 19.6107 11.3901 19.8801 11.5342C20.1495 11.6783 20.4126 11.7535 20.6632 11.7535C20.8575 11.7535 21.0705 11.7222 21.3023 11.6595V10.8701C21.083 10.939 20.895 10.9704 20.7447 10.9704C20.6632 10.9704 20.563 10.9516 20.4502 10.9077C20.3375 10.8639 20.2811 10.7574 20.2811 10.5882V9.06585H21.2709V8.36418H20.2811V7.36806L19.4729 7.59986V8.36418H18.8777V9.06585H19.4729ZM22.1867 8.80272C21.8546 9.13476 21.6855 9.54198 21.6855 10.0244C21.6855 10.4942 21.8546 10.8952 22.1867 11.2272C22.5187 11.5655 22.9197 11.7347 23.3958 11.7347C23.7153 11.7347 24.0223 11.6532 24.323 11.4966C24.6175 11.34 24.8305 11.127 24.962 10.8639L24.2478 10.6697C24.0286 10.9015 23.7404 11.0142 23.3958 11.0142C23.164 11.0142 22.9698 10.9516 22.8069 10.8325C22.644 10.7135 22.5375 10.5444 22.4937 10.3251H25.0748C25.0936 10.2311 25.1061 10.1371 25.1061 10.0369C25.1061 9.9304 25.0936 9.81763 25.0685 9.6986C24.9934 9.30391 24.7991 8.97187 24.4859 8.70248C24.1664 8.43936 23.803 8.30779 23.3958 8.30779C22.9259 8.30779 22.5187 8.47068 22.1867 8.80272ZM22.4937 9.70487C22.5375 9.51065 22.644 9.35403 22.8069 9.22247C22.9635 9.09091 23.1577 9.02826 23.3895 9.02826C23.6213 9.02826 23.8156 9.09091 23.9722 9.22247C24.1288 9.35403 24.2353 9.51065 24.2792 9.70487H22.4937ZM28.6118 10.3126V11.6846H29.4576V10.2875L30.9612 7.29915H30.0653L29.0253 9.3603L27.9853 7.29915H27.0895L28.6118 10.3126ZM31.7751 8.80899C31.4431 9.14102 31.2739 9.54824 31.2739 10.0181C31.2739 10.488 31.4431 10.8889 31.7751 11.2272C32.1071 11.5655 32.5081 11.7347 32.978 11.7347C33.4478 11.7347 33.855 11.5655 34.1871 11.2272C34.5191 10.8952 34.6883 10.488 34.6883 10.0181C34.6883 9.54824 34.5191 9.14729 34.1871 8.80899C33.855 8.47695 33.4478 8.30779 32.978 8.30779C32.5081 8.30779 32.1071 8.47695 31.7751 8.80899ZM32.032 10.0181C32.032 9.75498 32.1259 9.52945 32.3076 9.33524C32.4893 9.14729 32.7148 9.05332 32.978 9.05332C33.2474 9.05332 33.4729 9.14729 33.6546 9.33524C33.8362 9.52318 33.9302 9.74872 33.9302 10.0181C33.9302 10.2875 33.8362 10.513 33.6546 10.701C33.4729 10.8952 33.2474 10.9892 32.978 10.9892C32.7148 10.9892 32.4893 10.8952 32.3076 10.701C32.1259 10.513 32.032 10.2875 32.032 10.0181ZM35.1536 10.4128C35.1536 10.8138 35.2915 11.1333 35.5609 11.3776C35.8302 11.6219 36.156 11.741 36.5382 11.741C36.9329 11.741 37.2649 11.5969 37.5218 11.3087V11.6846H38.3362V8.36418H37.5218V10.0745C37.5218 10.3314 37.4466 10.5506 37.2962 10.7198C37.1396 10.8952 36.9454 10.9829 36.7011 10.9829C36.4943 10.9829 36.3252 10.9077 36.1811 10.7636C36.037 10.6195 35.9681 10.4316 35.9681 10.1998V8.36418H35.1536V10.4128ZM38.9394 11.6846H39.7538V9.99305C39.7538 9.67354 39.8541 9.45427 40.0608 9.33524C40.2613 9.2162 40.4492 9.15982 40.6184 9.15982C40.7374 9.15982 40.8627 9.17861 40.9943 9.22247V8.35165C40.9003 8.33285 40.8063 8.32659 40.7186 8.32659C40.5369 8.32659 40.3553 8.37044 40.1798 8.45189C40.0044 8.53333 39.8603 8.67116 39.7538 8.8591V8.36418H38.9394V11.6846ZM6.09473 14.2991V18.6846H6.94049V16.8678H9.04549V16.1097H6.94049V15.0823H9.29609V14.2991H6.09473ZM9.76948 18.6846H10.5839V16.9931C10.5839 16.6735 10.6842 16.4543 10.8909 16.3352C11.0914 16.2162 11.2793 16.1598 11.4485 16.1598C11.5675 16.1598 11.6928 16.1786 11.8244 16.2225V15.3516C11.7304 15.3329 11.6364 15.3266 11.5487 15.3266C11.367 15.3266 11.1853 15.3704 11.0099 15.4519C10.8345 15.5333 10.6904 15.6712 10.5839 15.8591V15.3642H9.76948V18.6846ZM12.308 15.3642V18.6846H13.1225V15.3642H12.308ZM12.3582 14.1926C12.2579 14.2866 12.2078 14.4057 12.2078 14.5435C12.2078 14.6813 12.2579 14.7941 12.3582 14.888C12.4584 14.982 12.5774 15.0321 12.7215 15.0321C12.8656 15.0321 12.9846 14.982 13.0849 14.888C13.1851 14.7941 13.2352 14.6813 13.2352 14.5435C13.2352 14.4057 13.1851 14.2866 13.0849 14.1926C12.9846 14.0987 12.8656 14.0486 12.7215 14.0486C12.5774 14.0486 12.4584 14.0987 12.3582 14.1926ZM14.1444 15.8027C13.8123 16.1348 13.6432 16.542 13.6432 17.0244C13.6432 17.4942 13.8123 17.8952 14.1444 18.2272C14.4764 18.5655 14.8774 18.7347 15.3535 18.7347C15.673 18.7347 15.98 18.6532 16.2807 18.4966C16.5752 18.34 16.7882 18.127 16.9197 17.8639L16.2055 17.6697C15.9863 17.9015 15.6981 18.0142 15.3535 18.0142C15.1217 18.0142 14.9275 17.9516 14.7646 17.8325C14.6017 17.7135 14.4952 17.5444 14.4514 17.3251H17.0325C17.0513 17.2311 17.0638 17.1371 17.0638 17.0369C17.0638 16.9304 17.0513 16.8176 17.0262 16.6986C16.951 16.3039 16.7568 15.9719 16.4436 15.7025C16.1241 15.4394 15.7607 15.3078 15.3535 15.3078C14.8836 15.3078 14.4764 15.4707 14.1444 15.8027ZM14.4514 16.7049C14.4952 16.5107 14.6017 16.354 14.7646 16.2225C14.9212 16.0909 15.1154 16.0283 15.3472 16.0283C15.579 16.0283 15.7733 16.0909 15.9299 16.2225C16.0865 16.354 16.193 16.5107 16.2369 16.7049H14.4514ZM17.5472 18.6846H18.3617V16.9743C18.3617 16.7174 18.4369 16.4981 18.5935 16.3227C18.7438 16.1536 18.938 16.0658 19.1824 16.0658C19.3891 16.0658 19.5583 16.1348 19.7024 16.2789C19.8465 16.4229 19.9154 16.6172 19.9154 16.849V18.6846H20.7298V16.636C20.7298 16.235 20.592 15.9155 20.3226 15.6712C20.0532 15.4268 19.7274 15.3078 19.3453 15.3078C18.938 15.3078 18.6123 15.4519 18.3617 15.7401V15.3642H17.5472V18.6846ZM21.6662 15.8027C21.3467 16.1348 21.1838 16.542 21.1838 17.0244C21.1838 17.488 21.3467 17.8889 21.6725 18.2272C21.992 18.5655 22.3804 18.7347 22.8315 18.7347C23.2324 18.7347 23.5645 18.5969 23.8276 18.3275V18.6846H24.642V14.2991H23.8276V15.7275C23.5582 15.4456 23.2262 15.3078 22.8315 15.3078C22.3741 15.3078 21.9857 15.4707 21.6662 15.8027ZM21.9481 17.0244C21.9481 16.755 22.0421 16.5294 22.2301 16.3352C22.4117 16.141 22.6435 16.0471 22.9129 16.0471C23.1761 16.0471 23.4016 16.141 23.5958 16.3352C23.7837 16.5294 23.8777 16.7612 23.8777 17.0244C23.8777 17.2875 23.7837 17.513 23.5958 17.7072C23.4016 17.9015 23.1761 17.9954 22.9129 17.9954C22.6435 17.9954 22.4117 17.9015 22.2301 17.7072C22.0421 17.5193 21.9481 17.2938 21.9481 17.0244ZM25.1531 16.3227C25.1531 16.5921 25.2471 16.7988 25.435 16.9492C25.623 17.0996 25.9174 17.2186 26.3184 17.3C26.6003 17.3564 26.807 17.4191 26.9386 17.4817C27.0639 17.5444 27.1266 17.6258 27.1266 17.726C27.1266 17.82 27.0764 17.8952 26.9699 17.9453C26.8634 18.0017 26.7444 18.0268 26.6003 18.0268C26.3685 18.0268 26.1242 17.9704 25.8673 17.8576C25.6042 17.7511 25.3974 17.6321 25.2471 17.513V18.3337C25.6856 18.6031 26.1367 18.7347 26.6003 18.7347C26.9699 18.7347 27.2894 18.6532 27.5588 18.4904C27.8282 18.3337 27.9598 18.0831 27.9598 17.7386C27.9598 17.4942 27.8783 17.2812 27.7092 17.1121C27.54 16.9429 27.2644 16.8114 26.8948 16.7174C26.8321 16.6986 26.7444 16.6798 26.6254 16.6547C26.5063 16.6297 26.4186 16.6109 26.3622 16.5921C26.3059 16.5796 26.2495 16.5608 26.1806 16.5357C26.1116 16.5107 26.0615 16.4793 26.0365 16.4417C26.0051 16.4104 25.9926 16.3666 25.9926 16.3164C25.9926 16.2225 26.0427 16.1473 26.1367 16.0909C26.2307 16.0345 26.3622 16.0032 26.5251 16.0032C26.8697 16.0032 27.2957 16.1348 27.8032 16.4042V15.6336C27.4335 15.4143 27.0075 15.3078 26.5251 15.3078C26.1179 15.3078 25.7921 15.3955 25.5353 15.5772C25.2784 15.7589 25.1531 16.0032 25.1531 16.3227ZM30.0662 14.2991V18.6846H30.8932V14.9444L32.5596 18.6846H33.9066V14.2991H33.0796V17.939L31.457 14.2991H30.0662ZM34.9367 15.809C34.6046 16.141 34.4355 16.5482 34.4355 17.0181C34.4355 17.488 34.6046 17.8889 34.9367 18.2272C35.2687 18.5655 35.6697 18.7347 36.1395 18.7347C36.6094 18.7347 37.0166 18.5655 37.3486 18.2272C37.6807 17.8952 37.8498 17.488 37.8498 17.0181C37.8498 16.5482 37.6807 16.1473 37.3486 15.809C37.0166 15.4769 36.6094 15.3078 36.1395 15.3078C35.6697 15.3078 35.2687 15.4769 34.9367 15.809ZM35.1935 17.0181C35.1935 16.755 35.2875 16.5294 35.4692 16.3352C35.6509 16.1473 35.8764 16.0533 36.1395 16.0533C36.4089 16.0533 36.6345 16.1473 36.8161 16.3352C36.9978 16.5232 37.0918 16.7487 37.0918 17.0181C37.0918 17.2875 36.9978 17.513 36.8161 17.701C36.6345 17.8952 36.4089 17.9892 36.1395 17.9892C35.8764 17.9892 35.6509 17.8952 35.4692 17.701C35.2875 17.513 35.1935 17.2875 35.1935 17.0181ZM38.948 18.6846H40.0381L40.6019 16.0721L41.1595 18.6846H42.2433L43.0389 15.3642H42.2182L41.692 17.9077L41.1093 15.3642H40.0882L39.5055 17.9015L38.973 15.3642H38.1586L38.948 18.6846ZM45.1287 14.2991V18.6846H48.2799V17.9015H45.9744V16.874H48.0293V16.1097H45.9744V15.0823H48.2799V14.2991H45.1287ZM49.2714 15.8027C48.9519 16.1348 48.789 16.542 48.789 17.0244C48.789 17.488 48.9519 17.8889 49.2776 18.2272C49.5971 18.5655 49.9856 18.7347 50.4366 18.7347C50.8376 18.7347 51.1696 18.5969 51.4328 18.3275V18.6846H52.2472V15.3642H51.4328V15.7275C51.1634 15.4456 50.8313 15.3078 50.4366 15.3078C49.9793 15.3078 49.5909 15.4707 49.2714 15.8027ZM49.5533 17.0244C49.5533 16.755 49.6473 16.5294 49.8352 16.3352C50.0169 16.141 50.2487 16.0471 50.5181 16.0471C50.7812 16.0471 51.0067 16.141 51.201 16.3352C51.3889 16.5294 51.4829 16.7612 51.4829 17.0244C51.4829 17.2875 51.3889 17.513 51.201 17.7072C51.0067 17.9015 50.7812 17.9954 50.5181 17.9954C50.2487 17.9954 50.0169 17.9015 49.8352 17.7072C49.6473 17.5193 49.5533 17.2938 49.5533 17.0244ZM52.846 18.6846H53.6604V16.9931C53.6604 16.6735 53.7607 16.4543 53.9674 16.3352C54.1679 16.2162 54.3558 16.1598 54.525 16.1598C54.644 16.1598 54.7693 16.1786 54.9009 16.2225V15.3516C54.8069 15.3329 54.7129 15.3266 54.6252 15.3266C54.4435 15.3266 54.2618 15.3704 54.0864 15.4519C53.911 15.5333 53.7669 15.6712 53.6604 15.8591V15.3642H52.846V18.6846ZM55.3407 18.6846H56.1551V16.9743C56.1551 16.7174 56.2303 16.4981 56.3869 16.3227C56.5373 16.1536 56.7315 16.0658 56.9758 16.0658C57.1826 16.0658 57.3517 16.1348 57.4958 16.2789C57.6399 16.4229 57.7088 16.6172 57.7088 16.849V18.6846H58.5232V16.636C58.5232 16.235 58.3854 15.9155 58.116 15.6712C57.8466 15.4268 57.5209 15.3078 57.1387 15.3078C56.7315 15.3078 56.4057 15.4519 56.1551 15.7401V15.3642H55.3407V18.6846ZM6.60219 22.9068C6.16991 23.3454 5.95064 23.8716 5.95064 24.4919C5.95064 25.1121 6.16991 25.6383 6.60219 26.0706C7.03446 26.5092 7.56071 26.7284 8.18094 26.7284C8.62575 26.7284 9.0267 26.6094 9.3838 26.3651C9.73463 26.1207 9.99776 25.8012 10.1732 25.4065L9.35874 25.1873C9.12067 25.6822 8.72598 25.9265 8.18094 25.9265C7.78625 25.9265 7.45421 25.7887 7.19109 25.513C6.9217 25.2374 6.79013 24.8991 6.79013 24.4919C6.79013 24.0846 6.9217 23.7463 7.19109 23.4644C7.45421 23.1888 7.78625 23.0509 8.18094 23.0509C8.45033 23.0509 8.68839 23.1198 8.89514 23.2577C9.10188 23.3955 9.2585 23.5834 9.37753 23.8153L10.1794 23.5834C9.99776 23.1825 9.73463 22.8567 9.37753 22.6124C9.02043 22.3681 8.62575 22.249 8.18094 22.249C7.56071 22.249 7.03446 22.4683 6.60219 22.9068ZM11.0329 23.809C10.7009 24.141 10.5317 24.5482 10.5317 25.0181C10.5317 25.488 10.7009 25.8889 11.0329 26.2272C11.365 26.5655 11.7659 26.7347 12.2358 26.7347C12.7057 26.7347 13.1129 26.5655 13.4449 26.2272C13.777 25.8952 13.9461 25.488 13.9461 25.0181C13.9461 24.5482 13.777 24.1473 13.4449 23.809C13.1129 23.4769 12.7057 23.3078 12.2358 23.3078C11.7659 23.3078 11.365 23.4769 11.0329 23.809ZM11.2898 25.0181C11.2898 24.755 11.3838 24.5294 11.5654 24.3352C11.7471 24.1473 11.9727 24.0533 12.2358 24.0533C12.5052 24.0533 12.7307 24.1473 12.9124 24.3352C13.0941 24.5232 13.1881 24.7487 13.1881 25.0181C13.1881 25.2875 13.0941 25.513 12.9124 25.701C12.7307 25.8952 12.5052 25.9892 12.2358 25.9892C11.9727 25.9892 11.7471 25.8952 11.5654 25.701C11.3838 25.513 11.2898 25.2875 11.2898 25.0181ZM14.4491 26.6846H15.2635V24.9241C15.2635 24.6735 15.3199 24.4668 15.4389 24.2976C15.5579 24.1285 15.7334 24.0471 15.9714 24.0471C16.1656 24.0471 16.3097 24.116 16.4162 24.2538C16.5227 24.3979 16.5729 24.5858 16.5729 24.8239V26.6846H17.3873V24.7988C17.4061 24.5796 17.475 24.3979 17.594 24.2538C17.7131 24.116 17.876 24.0471 18.0952 24.0471C18.2894 24.0471 18.4335 24.116 18.54 24.2538C18.6465 24.3979 18.6967 24.5858 18.6967 24.8239V26.6846H19.5111V24.636C19.5111 24.2287 19.3858 23.903 19.1415 23.6649C18.8909 23.4268 18.5964 23.3078 18.2581 23.3078C18.0514 23.3078 17.8509 23.3579 17.6567 23.4582C17.4562 23.5584 17.2933 23.6962 17.1618 23.8716C17.049 23.69 16.9049 23.5521 16.7232 23.4519C16.5415 23.3579 16.3473 23.3078 16.1406 23.3078C15.796 23.3078 15.5016 23.4519 15.2635 23.7338V23.3642H14.4491V26.6846ZM20.0948 23.3642V26.6846H20.9093V23.3642H20.0948ZM20.145 22.1926C20.0447 22.2866 19.9946 22.4057 19.9946 22.5435C19.9946 22.6813 20.0447 22.7941 20.145 22.888C20.2452 22.982 20.3642 23.0321 20.5083 23.0321C20.6524 23.0321 20.7715 22.982 20.8717 22.888C20.9719 22.7941 21.0221 22.6813 21.0221 22.5435C21.0221 22.4057 20.9719 22.2866 20.8717 22.1926C20.7715 22.0987 20.6524 22.0486 20.5083 22.0486C20.3642 22.0486 20.2452 22.0987 20.145 22.1926ZM21.4363 24.3227C21.4363 24.5921 21.5302 24.7988 21.7182 24.9492C21.9061 25.0996 22.2006 25.2186 22.6015 25.3C22.8835 25.3564 23.0902 25.4191 23.2218 25.4817C23.3471 25.5444 23.4097 25.6258 23.4097 25.726C23.4097 25.82 23.3596 25.8952 23.2531 25.9453C23.1466 26.0017 23.0276 26.0268 22.8835 26.0268C22.6517 26.0268 22.4073 25.9704 22.1505 25.8576C21.8873 25.7511 21.6806 25.6321 21.5302 25.513V26.3337C21.9688 26.6031 22.4199 26.7347 22.8835 26.7347C23.2531 26.7347 23.5726 26.6532 23.842 26.4904C24.1114 26.3337 24.2429 26.0831 24.2429 25.7386C24.2429 25.4942 24.1615 25.2812 23.9923 25.1121C23.8232 24.9429 23.5475 24.8114 23.1779 24.7174C23.1153 24.6986 23.0276 24.6798 22.9085 24.6547C22.7895 24.6297 22.7018 24.6109 22.6454 24.5921C22.589 24.5796 22.5326 24.5608 22.4637 24.5357C22.3948 24.5107 22.3447 24.4793 22.3196 24.4417C22.2883 24.4104 22.2758 24.3666 22.2758 24.3164C22.2758 24.2225 22.3259 24.1473 22.4199 24.0909C22.5138 24.0345 22.6454 24.0032 22.8083 24.0032C23.1529 24.0032 23.5789 24.1348 24.0863 24.4042V23.6336C23.7167 23.4143 23.2907 23.3078 22.8083 23.3078C22.4011 23.3078 22.0753 23.3955 21.8184 23.5772C21.5616 23.7589 21.4363 24.0032 21.4363 24.3227ZM24.555 24.3227C24.555 24.5921 24.649 24.7988 24.8369 24.9492C25.0249 25.0996 25.3193 25.2186 25.7203 25.3C26.0022 25.3564 26.2089 25.4191 26.3405 25.4817C26.4658 25.5444 26.5285 25.6258 26.5285 25.726C26.5285 25.82 26.4783 25.8952 26.3718 25.9453C26.2653 26.0017 26.1463 26.0268 26.0022 26.0268C25.7704 26.0268 25.5261 25.9704 25.2692 25.8576C25.0061 25.7511 24.7993 25.6321 24.649 25.513V26.3337C25.0875 26.6031 25.5386 26.7347 26.0022 26.7347C26.3718 26.7347 26.6913 26.6532 26.9607 26.4904C27.2301 26.3337 27.3617 26.0831 27.3617 25.7386C27.3617 25.4942 27.2802 25.2812 27.1111 25.1121C26.9419 24.9429 26.6663 24.8114 26.2967 24.7174C26.234 24.6986 26.1463 24.6798 26.0273 24.6547C25.9082 24.6297 25.8205 24.6109 25.7641 24.5921C25.7078 24.5796 25.6514 24.5608 25.5825 24.5357C25.5135 24.5107 25.4634 24.4793 25.4384 24.4417C25.407 24.4104 25.3945 24.3666 25.3945 24.3164C25.3945 24.2225 25.4446 24.1473 25.5386 24.0909C25.6326 24.0345 25.7641 24.0032 25.927 24.0032C26.2716 24.0032 26.6976 24.1348 27.2051 24.4042V23.6336C26.8354 23.4143 26.4094 23.3078 25.927 23.3078C25.5198 23.3078 25.194 23.3955 24.9372 23.5772C24.6803 23.7589 24.555 24.0032 24.555 24.3227ZM27.8053 23.3642V26.6846H28.6197V23.3642H27.8053ZM27.8554 22.1926C27.7552 22.2866 27.7051 22.4057 27.7051 22.5435C27.7051 22.6813 27.7552 22.7941 27.8554 22.888C27.9557 22.982 28.0747 23.0321 28.2188 23.0321C28.3629 23.0321 28.4819 22.982 28.5822 22.888C28.6824 22.7941 28.7325 22.6813 28.7325 22.5435C28.7325 22.4057 28.6824 22.2866 28.5822 22.1926C28.4819 22.0987 28.3629 22.0486 28.2188 22.0486C28.0747 22.0486 27.9557 22.0987 27.8554 22.1926ZM29.6291 23.809C29.2971 24.141 29.1279 24.5482 29.1279 25.0181C29.1279 25.488 29.2971 25.8889 29.6291 26.2272C29.9612 26.5655 30.3621 26.7347 30.832 26.7347C31.3019 26.7347 31.7091 26.5655 32.0411 26.2272C32.3732 25.8952 32.5423 25.488 32.5423 25.0181C32.5423 24.5482 32.3732 24.1473 32.0411 23.809C31.7091 23.4769 31.3019 23.3078 30.832 23.3078C30.3621 23.3078 29.9612 23.4769 29.6291 23.809ZM29.886 25.0181C29.886 24.755 29.98 24.5294 30.1616 24.3352C30.3433 24.1473 30.5689 24.0533 30.832 24.0533C31.1014 24.0533 31.3269 24.1473 31.5086 24.3352C31.6903 24.5232 31.7843 24.7487 31.7843 25.0181C31.7843 25.2875 31.6903 25.513 31.5086 25.701C31.3269 25.8952 31.1014 25.9892 30.832 25.9892C30.5689 25.9892 30.3433 25.8952 30.1616 25.701C29.98 25.513 29.886 25.2875 29.886 25.0181ZM33.0139 26.6846H33.8284V24.9743C33.8284 24.7174 33.9035 24.4981 34.0602 24.3227C34.2105 24.1536 34.4047 24.0658 34.6491 24.0658C34.8558 24.0658 35.025 24.1348 35.1691 24.2789C35.3131 24.4229 35.3821 24.6172 35.3821 24.849V26.6846H36.1965V24.636C36.1965 24.235 36.0587 23.9155 35.7893 23.6712C35.5199 23.4268 35.1941 23.3078 34.812 23.3078C34.4047 23.3078 34.079 23.4519 33.8284 23.7401V23.3642H33.0139V26.6846ZM36.6568 24.3227C36.6568 24.5921 36.7507 24.7988 36.9387 24.9492C37.1266 25.0996 37.4211 25.2186 37.822 25.3C38.104 25.3564 38.3107 25.4191 38.4423 25.4817C38.5676 25.5444 38.6302 25.6258 38.6302 25.726C38.6302 25.82 38.5801 25.8952 38.4736 25.9453C38.3671 26.0017 38.2481 26.0268 38.104 26.0268C37.8722 26.0268 37.6278 25.9704 37.371 25.8576C37.1078 25.7511 36.9011 25.6321 36.7507 25.513V26.3337C37.1893 26.6031 37.6404 26.7347 38.104 26.7347C38.4736 26.7347 38.7931 26.6532 39.0625 26.4904C39.3319 26.3337 39.4634 26.0831 39.4634 25.7386C39.4634 25.4942 39.382 25.2812 39.2128 25.1121C39.0437 24.9429 38.768 24.8114 38.3984 24.7174C38.3358 24.6986 38.2481 24.6798 38.129 24.6547C38.01 24.6297 37.9223 24.6109 37.8659 24.5921C37.8095 24.5796 37.7531 24.5608 37.6842 24.5357C37.6153 24.5107 37.5652 24.4793 37.5401 24.4417C37.5088 24.4104 37.4963 24.3666 37.4963 24.3164C37.4963 24.2225 37.5464 24.1473 37.6404 24.0909C37.7343 24.0345 37.8659 24.0032 38.0288 24.0032C38.3734 24.0032 38.7994 24.1348 39.3068 24.4042V23.6336C38.9372 23.4143 38.5112 23.3078 38.0288 23.3078C37.6216 23.3078 37.2958 23.3955 37.0389 23.5772C36.7821 23.7589 36.6568 24.0032 36.6568 24.3227Z" fill="white" fill-opacity="0.01" shape-rendering="crispEdges"/>
</g>
<g style="mix-blend-mode:color-dodge" filter="url(#filter3_b_252_1530)">
<path d="M6.99687 11.6846V7.29915H6.15111V11.6846H6.99687ZM7.65875 11.6846H8.47319V9.97426C8.47319 9.71739 8.54836 9.49812 8.70499 9.32271C8.85534 9.15355 9.04956 9.06585 9.29389 9.06585C9.50063 9.06585 9.66978 9.13476 9.81387 9.27885C9.95796 9.42294 10.0269 9.61716 10.0269 9.84896V11.6846H10.8413V9.63595C10.8413 9.235 10.7035 8.91549 10.4341 8.67116C10.1647 8.42683 9.83893 8.30779 9.45677 8.30779C9.04956 8.30779 8.72378 8.45189 8.47319 8.74007V8.36418H7.65875V11.6846ZM12.2726 11.6846H13.5945L14.647 8.36418H13.7762L12.9367 11.1646L12.091 8.36418H11.2264L12.2726 11.6846ZM15.441 8.80272C15.1215 9.13476 14.9586 9.54198 14.9586 10.0244C14.9586 10.488 15.1215 10.8889 15.4472 11.2272C15.7667 11.5655 16.1552 11.7347 16.6062 11.7347C17.0072 11.7347 17.3392 11.5969 17.6024 11.3275V11.6846H18.4168V8.36418H17.6024V8.72754C17.333 8.44562 17.0009 8.30779 16.6062 8.30779C16.1489 8.30779 15.7605 8.47068 15.441 8.80272ZM15.7229 10.0244C15.7229 9.75498 15.8169 9.52945 16.0048 9.33524C16.1865 9.14102 16.4183 9.04705 16.6877 9.04705C16.9508 9.04705 17.1763 9.14102 17.3706 9.33524C17.5585 9.52945 17.6525 9.76125 17.6525 10.0244C17.6525 10.2875 17.5585 10.513 17.3706 10.7072C17.1763 10.9015 16.9508 10.9954 16.6877 10.9954C16.4183 10.9954 16.1865 10.9015 16.0048 10.7072C15.8169 10.5193 15.7229 10.2938 15.7229 10.0244ZM19.4729 9.06585V10.5945C19.4729 11.0769 19.6107 11.3901 19.8801 11.5342C20.1495 11.6783 20.4126 11.7535 20.6632 11.7535C20.8575 11.7535 21.0705 11.7222 21.3023 11.6595V10.8701C21.083 10.939 20.895 10.9704 20.7447 10.9704C20.6632 10.9704 20.563 10.9516 20.4502 10.9077C20.3375 10.8639 20.2811 10.7574 20.2811 10.5882V9.06585H21.2709V8.36418H20.2811V7.36806L19.4729 7.59986V8.36418H18.8777V9.06585H19.4729ZM22.1867 8.80272C21.8546 9.13476 21.6855 9.54198 21.6855 10.0244C21.6855 10.4942 21.8546 10.8952 22.1867 11.2272C22.5187 11.5655 22.9197 11.7347 23.3958 11.7347C23.7153 11.7347 24.0223 11.6532 24.323 11.4966C24.6175 11.34 24.8305 11.127 24.962 10.8639L24.2478 10.6697C24.0286 10.9015 23.7404 11.0142 23.3958 11.0142C23.164 11.0142 22.9698 10.9516 22.8069 10.8325C22.644 10.7135 22.5375 10.5444 22.4937 10.3251H25.0748C25.0936 10.2311 25.1061 10.1371 25.1061 10.0369C25.1061 9.9304 25.0936 9.81763 25.0685 9.6986C24.9934 9.30391 24.7991 8.97187 24.4859 8.70248C24.1664 8.43936 23.803 8.30779 23.3958 8.30779C22.9259 8.30779 22.5187 8.47068 22.1867 8.80272ZM22.4937 9.70487C22.5375 9.51065 22.644 9.35403 22.8069 9.22247C22.9635 9.09091 23.1577 9.02826 23.3895 9.02826C23.6213 9.02826 23.8156 9.09091 23.9722 9.22247C24.1288 9.35403 24.2353 9.51065 24.2792 9.70487H22.4937ZM28.6118 10.3126V11.6846H29.4576V10.2875L30.9612 7.29915H30.0653L29.0253 9.3603L27.9853 7.29915H27.0895L28.6118 10.3126ZM31.7751 8.80899C31.4431 9.14102 31.2739 9.54824 31.2739 10.0181C31.2739 10.488 31.4431 10.8889 31.7751 11.2272C32.1071 11.5655 32.5081 11.7347 32.978 11.7347C33.4478 11.7347 33.855 11.5655 34.1871 11.2272C34.5191 10.8952 34.6883 10.488 34.6883 10.0181C34.6883 9.54824 34.5191 9.14729 34.1871 8.80899C33.855 8.47695 33.4478 8.30779 32.978 8.30779C32.5081 8.30779 32.1071 8.47695 31.7751 8.80899ZM32.032 10.0181C32.032 9.75498 32.1259 9.52945 32.3076 9.33524C32.4893 9.14729 32.7148 9.05332 32.978 9.05332C33.2474 9.05332 33.4729 9.14729 33.6546 9.33524C33.8362 9.52318 33.9302 9.74872 33.9302 10.0181C33.9302 10.2875 33.8362 10.513 33.6546 10.701C33.4729 10.8952 33.2474 10.9892 32.978 10.9892C32.7148 10.9892 32.4893 10.8952 32.3076 10.701C32.1259 10.513 32.032 10.2875 32.032 10.0181ZM35.1536 10.4128C35.1536 10.8138 35.2915 11.1333 35.5609 11.3776C35.8302 11.6219 36.156 11.741 36.5382 11.741C36.9329 11.741 37.2649 11.5969 37.5218 11.3087V11.6846H38.3362V8.36418H37.5218V10.0745C37.5218 10.3314 37.4466 10.5506 37.2962 10.7198C37.1396 10.8952 36.9454 10.9829 36.7011 10.9829C36.4943 10.9829 36.3252 10.9077 36.1811 10.7636C36.037 10.6195 35.9681 10.4316 35.9681 10.1998V8.36418H35.1536V10.4128ZM38.9394 11.6846H39.7538V9.99305C39.7538 9.67354 39.8541 9.45427 40.0608 9.33524C40.2613 9.2162 40.4492 9.15982 40.6184 9.15982C40.7374 9.15982 40.8627 9.17861 40.9943 9.22247V8.35165C40.9003 8.33285 40.8063 8.32659 40.7186 8.32659C40.5369 8.32659 40.3553 8.37044 40.1798 8.45189C40.0044 8.53333 39.8603 8.67116 39.7538 8.8591V8.36418H38.9394V11.6846ZM6.09473 14.2991V18.6846H6.94049V16.8678H9.04549V16.1097H6.94049V15.0823H9.29609V14.2991H6.09473ZM9.76948 18.6846H10.5839V16.9931C10.5839 16.6735 10.6842 16.4543 10.8909 16.3352C11.0914 16.2162 11.2793 16.1598 11.4485 16.1598C11.5675 16.1598 11.6928 16.1786 11.8244 16.2225V15.3516C11.7304 15.3329 11.6364 15.3266 11.5487 15.3266C11.367 15.3266 11.1853 15.3704 11.0099 15.4519C10.8345 15.5333 10.6904 15.6712 10.5839 15.8591V15.3642H9.76948V18.6846ZM12.308 15.3642V18.6846H13.1225V15.3642H12.308ZM12.3582 14.1926C12.2579 14.2866 12.2078 14.4057 12.2078 14.5435C12.2078 14.6813 12.2579 14.7941 12.3582 14.888C12.4584 14.982 12.5774 15.0321 12.7215 15.0321C12.8656 15.0321 12.9846 14.982 13.0849 14.888C13.1851 14.7941 13.2352 14.6813 13.2352 14.5435C13.2352 14.4057 13.1851 14.2866 13.0849 14.1926C12.9846 14.0987 12.8656 14.0486 12.7215 14.0486C12.5774 14.0486 12.4584 14.0987 12.3582 14.1926ZM14.1444 15.8027C13.8123 16.1348 13.6432 16.542 13.6432 17.0244C13.6432 17.4942 13.8123 17.8952 14.1444 18.2272C14.4764 18.5655 14.8774 18.7347 15.3535 18.7347C15.673 18.7347 15.98 18.6532 16.2807 18.4966C16.5752 18.34 16.7882 18.127 16.9197 17.8639L16.2055 17.6697C15.9863 17.9015 15.6981 18.0142 15.3535 18.0142C15.1217 18.0142 14.9275 17.9516 14.7646 17.8325C14.6017 17.7135 14.4952 17.5444 14.4514 17.3251H17.0325C17.0513 17.2311 17.0638 17.1371 17.0638 17.0369C17.0638 16.9304 17.0513 16.8176 17.0262 16.6986C16.951 16.3039 16.7568 15.9719 16.4436 15.7025C16.1241 15.4394 15.7607 15.3078 15.3535 15.3078C14.8836 15.3078 14.4764 15.4707 14.1444 15.8027ZM14.4514 16.7049C14.4952 16.5107 14.6017 16.354 14.7646 16.2225C14.9212 16.0909 15.1154 16.0283 15.3472 16.0283C15.579 16.0283 15.7733 16.0909 15.9299 16.2225C16.0865 16.354 16.193 16.5107 16.2369 16.7049H14.4514ZM17.5472 18.6846H18.3617V16.9743C18.3617 16.7174 18.4369 16.4981 18.5935 16.3227C18.7438 16.1536 18.938 16.0658 19.1824 16.0658C19.3891 16.0658 19.5583 16.1348 19.7024 16.2789C19.8465 16.4229 19.9154 16.6172 19.9154 16.849V18.6846H20.7298V16.636C20.7298 16.235 20.592 15.9155 20.3226 15.6712C20.0532 15.4268 19.7274 15.3078 19.3453 15.3078C18.938 15.3078 18.6123 15.4519 18.3617 15.7401V15.3642H17.5472V18.6846ZM21.6662 15.8027C21.3467 16.1348 21.1838 16.542 21.1838 17.0244C21.1838 17.488 21.3467 17.8889 21.6725 18.2272C21.992 18.5655 22.3804 18.7347 22.8315 18.7347C23.2324 18.7347 23.5645 18.5969 23.8276 18.3275V18.6846H24.642V14.2991H23.8276V15.7275C23.5582 15.4456 23.2262 15.3078 22.8315 15.3078C22.3741 15.3078 21.9857 15.4707 21.6662 15.8027ZM21.9481 17.0244C21.9481 16.755 22.0421 16.5294 22.2301 16.3352C22.4117 16.141 22.6435 16.0471 22.9129 16.0471C23.1761 16.0471 23.4016 16.141 23.5958 16.3352C23.7837 16.5294 23.8777 16.7612 23.8777 17.0244C23.8777 17.2875 23.7837 17.513 23.5958 17.7072C23.4016 17.9015 23.1761 17.9954 22.9129 17.9954C22.6435 17.9954 22.4117 17.9015 22.2301 17.7072C22.0421 17.5193 21.9481 17.2938 21.9481 17.0244ZM25.1531 16.3227C25.1531 16.5921 25.2471 16.7988 25.435 16.9492C25.623 17.0996 25.9174 17.2186 26.3184 17.3C26.6003 17.3564 26.807 17.4191 26.9386 17.4817C27.0639 17.5444 27.1266 17.6258 27.1266 17.726C27.1266 17.82 27.0764 17.8952 26.9699 17.9453C26.8634 18.0017 26.7444 18.0268 26.6003 18.0268C26.3685 18.0268 26.1242 17.9704 25.8673 17.8576C25.6042 17.7511 25.3974 17.6321 25.2471 17.513V18.3337C25.6856 18.6031 26.1367 18.7347 26.6003 18.7347C26.9699 18.7347 27.2894 18.6532 27.5588 18.4904C27.8282 18.3337 27.9598 18.0831 27.9598 17.7386C27.9598 17.4942 27.8783 17.2812 27.7092 17.1121C27.54 16.9429 27.2644 16.8114 26.8948 16.7174C26.8321 16.6986 26.7444 16.6798 26.6254 16.6547C26.5063 16.6297 26.4186 16.6109 26.3622 16.5921C26.3059 16.5796 26.2495 16.5608 26.1806 16.5357C26.1116 16.5107 26.0615 16.4793 26.0365 16.4417C26.0051 16.4104 25.9926 16.3666 25.9926 16.3164C25.9926 16.2225 26.0427 16.1473 26.1367 16.0909C26.2307 16.0345 26.3622 16.0032 26.5251 16.0032C26.8697 16.0032 27.2957 16.1348 27.8032 16.4042V15.6336C27.4335 15.4143 27.0075 15.3078 26.5251 15.3078C26.1179 15.3078 25.7921 15.3955 25.5353 15.5772C25.2784 15.7589 25.1531 16.0032 25.1531 16.3227ZM30.0662 14.2991V18.6846H30.8932V14.9444L32.5596 18.6846H33.9066V14.2991H33.0796V17.939L31.457 14.2991H30.0662ZM34.9367 15.809C34.6046 16.141 34.4355 16.5482 34.4355 17.0181C34.4355 17.488 34.6046 17.8889 34.9367 18.2272C35.2687 18.5655 35.6697 18.7347 36.1395 18.7347C36.6094 18.7347 37.0166 18.5655 37.3486 18.2272C37.6807 17.8952 37.8498 17.488 37.8498 17.0181C37.8498 16.5482 37.6807 16.1473 37.3486 15.809C37.0166 15.4769 36.6094 15.3078 36.1395 15.3078C35.6697 15.3078 35.2687 15.4769 34.9367 15.809ZM35.1935 17.0181C35.1935 16.755 35.2875 16.5294 35.4692 16.3352C35.6509 16.1473 35.8764 16.0533 36.1395 16.0533C36.4089 16.0533 36.6345 16.1473 36.8161 16.3352C36.9978 16.5232 37.0918 16.7487 37.0918 17.0181C37.0918 17.2875 36.9978 17.513 36.8161 17.701C36.6345 17.8952 36.4089 17.9892 36.1395 17.9892C35.8764 17.9892 35.6509 17.8952 35.4692 17.701C35.2875 17.513 35.1935 17.2875 35.1935 17.0181ZM38.948 18.6846H40.0381L40.6019 16.0721L41.1595 18.6846H42.2433L43.0389 15.3642H42.2182L41.692 17.9077L41.1093 15.3642H40.0882L39.5055 17.9015L38.973 15.3642H38.1586L38.948 18.6846ZM45.1287 14.2991V18.6846H48.2799V17.9015H45.9744V16.874H48.0293V16.1097H45.9744V15.0823H48.2799V14.2991H45.1287ZM49.2714 15.8027C48.9519 16.1348 48.789 16.542 48.789 17.0244C48.789 17.488 48.9519 17.8889 49.2776 18.2272C49.5971 18.5655 49.9856 18.7347 50.4366 18.7347C50.8376 18.7347 51.1696 18.5969 51.4328 18.3275V18.6846H52.2472V15.3642H51.4328V15.7275C51.1634 15.4456 50.8313 15.3078 50.4366 15.3078C49.9793 15.3078 49.5909 15.4707 49.2714 15.8027ZM49.5533 17.0244C49.5533 16.755 49.6473 16.5294 49.8352 16.3352C50.0169 16.141 50.2487 16.0471 50.5181 16.0471C50.7812 16.0471 51.0067 16.141 51.201 16.3352C51.3889 16.5294 51.4829 16.7612 51.4829 17.0244C51.4829 17.2875 51.3889 17.513 51.201 17.7072C51.0067 17.9015 50.7812 17.9954 50.5181 17.9954C50.2487 17.9954 50.0169 17.9015 49.8352 17.7072C49.6473 17.5193 49.5533 17.2938 49.5533 17.0244ZM52.846 18.6846H53.6604V16.9931C53.6604 16.6735 53.7607 16.4543 53.9674 16.3352C54.1679 16.2162 54.3558 16.1598 54.525 16.1598C54.644 16.1598 54.7693 16.1786 54.9009 16.2225V15.3516C54.8069 15.3329 54.7129 15.3266 54.6252 15.3266C54.4435 15.3266 54.2618 15.3704 54.0864 15.4519C53.911 15.5333 53.7669 15.6712 53.6604 15.8591V15.3642H52.846V18.6846ZM55.3407 18.6846H56.1551V16.9743C56.1551 16.7174 56.2303 16.4981 56.3869 16.3227C56.5373 16.1536 56.7315 16.0658 56.9758 16.0658C57.1826 16.0658 57.3517 16.1348 57.4958 16.2789C57.6399 16.4229 57.7088 16.6172 57.7088 16.849V18.6846H58.5232V16.636C58.5232 16.235 58.3854 15.9155 58.116 15.6712C57.8466 15.4268 57.5209 15.3078 57.1387 15.3078C56.7315 15.3078 56.4057 15.4519 56.1551 15.7401V15.3642H55.3407V18.6846ZM6.60219 22.9068C6.16991 23.3454 5.95064 23.8716 5.95064 24.4919C5.95064 25.1121 6.16991 25.6383 6.60219 26.0706C7.03446 26.5092 7.56071 26.7284 8.18094 26.7284C8.62575 26.7284 9.0267 26.6094 9.3838 26.3651C9.73463 26.1207 9.99776 25.8012 10.1732 25.4065L9.35874 25.1873C9.12067 25.6822 8.72598 25.9265 8.18094 25.9265C7.78625 25.9265 7.45421 25.7887 7.19109 25.513C6.9217 25.2374 6.79013 24.8991 6.79013 24.4919C6.79013 24.0846 6.9217 23.7463 7.19109 23.4644C7.45421 23.1888 7.78625 23.0509 8.18094 23.0509C8.45033 23.0509 8.68839 23.1198 8.89514 23.2577C9.10188 23.3955 9.2585 23.5834 9.37753 23.8153L10.1794 23.5834C9.99776 23.1825 9.73463 22.8567 9.37753 22.6124C9.02043 22.3681 8.62575 22.249 8.18094 22.249C7.56071 22.249 7.03446 22.4683 6.60219 22.9068ZM11.0329 23.809C10.7009 24.141 10.5317 24.5482 10.5317 25.0181C10.5317 25.488 10.7009 25.8889 11.0329 26.2272C11.365 26.5655 11.7659 26.7347 12.2358 26.7347C12.7057 26.7347 13.1129 26.5655 13.4449 26.2272C13.777 25.8952 13.9461 25.488 13.9461 25.0181C13.9461 24.5482 13.777 24.1473 13.4449 23.809C13.1129 23.4769 12.7057 23.3078 12.2358 23.3078C11.7659 23.3078 11.365 23.4769 11.0329 23.809ZM11.2898 25.0181C11.2898 24.755 11.3838 24.5294 11.5654 24.3352C11.7471 24.1473 11.9727 24.0533 12.2358 24.0533C12.5052 24.0533 12.7307 24.1473 12.9124 24.3352C13.0941 24.5232 13.1881 24.7487 13.1881 25.0181C13.1881 25.2875 13.0941 25.513 12.9124 25.701C12.7307 25.8952 12.5052 25.9892 12.2358 25.9892C11.9727 25.9892 11.7471 25.8952 11.5654 25.701C11.3838 25.513 11.2898 25.2875 11.2898 25.0181ZM14.4491 26.6846H15.2635V24.9241C15.2635 24.6735 15.3199 24.4668 15.4389 24.2976C15.5579 24.1285 15.7334 24.0471 15.9714 24.0471C16.1656 24.0471 16.3097 24.116 16.4162 24.2538C16.5227 24.3979 16.5729 24.5858 16.5729 24.8239V26.6846H17.3873V24.7988C17.4061 24.5796 17.475 24.3979 17.594 24.2538C17.7131 24.116 17.876 24.0471 18.0952 24.0471C18.2894 24.0471 18.4335 24.116 18.54 24.2538C18.6465 24.3979 18.6967 24.5858 18.6967 24.8239V26.6846H19.5111V24.636C19.5111 24.2287 19.3858 23.903 19.1415 23.6649C18.8909 23.4268 18.5964 23.3078 18.2581 23.3078C18.0514 23.3078 17.8509 23.3579 17.6567 23.4582C17.4562 23.5584 17.2933 23.6962 17.1618 23.8716C17.049 23.69 16.9049 23.5521 16.7232 23.4519C16.5415 23.3579 16.3473 23.3078 16.1406 23.3078C15.796 23.3078 15.5016 23.4519 15.2635 23.7338V23.3642H14.4491V26.6846ZM20.0948 23.3642V26.6846H20.9093V23.3642H20.0948ZM20.145 22.1926C20.0447 22.2866 19.9946 22.4057 19.9946 22.5435C19.9946 22.6813 20.0447 22.7941 20.145 22.888C20.2452 22.982 20.3642 23.0321 20.5083 23.0321C20.6524 23.0321 20.7715 22.982 20.8717 22.888C20.9719 22.7941 21.0221 22.6813 21.0221 22.5435C21.0221 22.4057 20.9719 22.2866 20.8717 22.1926C20.7715 22.0987 20.6524 22.0486 20.5083 22.0486C20.3642 22.0486 20.2452 22.0987 20.145 22.1926ZM21.4363 24.3227C21.4363 24.5921 21.5302 24.7988 21.7182 24.9492C21.9061 25.0996 22.2006 25.2186 22.6015 25.3C22.8835 25.3564 23.0902 25.4191 23.2218 25.4817C23.3471 25.5444 23.4097 25.6258 23.4097 25.726C23.4097 25.82 23.3596 25.8952 23.2531 25.9453C23.1466 26.0017 23.0276 26.0268 22.8835 26.0268C22.6517 26.0268 22.4073 25.9704 22.1505 25.8576C21.8873 25.7511 21.6806 25.6321 21.5302 25.513V26.3337C21.9688 26.6031 22.4199 26.7347 22.8835 26.7347C23.2531 26.7347 23.5726 26.6532 23.842 26.4904C24.1114 26.3337 24.2429 26.0831 24.2429 25.7386C24.2429 25.4942 24.1615 25.2812 23.9923 25.1121C23.8232 24.9429 23.5475 24.8114 23.1779 24.7174C23.1153 24.6986 23.0276 24.6798 22.9085 24.6547C22.7895 24.6297 22.7018 24.6109 22.6454 24.5921C22.589 24.5796 22.5326 24.5608 22.4637 24.5357C22.3948 24.5107 22.3447 24.4793 22.3196 24.4417C22.2883 24.4104 22.2758 24.3666 22.2758 24.3164C22.2758 24.2225 22.3259 24.1473 22.4199 24.0909C22.5138 24.0345 22.6454 24.0032 22.8083 24.0032C23.1529 24.0032 23.5789 24.1348 24.0863 24.4042V23.6336C23.7167 23.4143 23.2907 23.3078 22.8083 23.3078C22.4011 23.3078 22.0753 23.3955 21.8184 23.5772C21.5616 23.7589 21.4363 24.0032 21.4363 24.3227ZM24.555 24.3227C24.555 24.5921 24.649 24.7988 24.8369 24.9492C25.0249 25.0996 25.3193 25.2186 25.7203 25.3C26.0022 25.3564 26.2089 25.4191 26.3405 25.4817C26.4658 25.5444 26.5285 25.6258 26.5285 25.726C26.5285 25.82 26.4783 25.8952 26.3718 25.9453C26.2653 26.0017 26.1463 26.0268 26.0022 26.0268C25.7704 26.0268 25.5261 25.9704 25.2692 25.8576C25.0061 25.7511 24.7993 25.6321 24.649 25.513V26.3337C25.0875 26.6031 25.5386 26.7347 26.0022 26.7347C26.3718 26.7347 26.6913 26.6532 26.9607 26.4904C27.2301 26.3337 27.3617 26.0831 27.3617 25.7386C27.3617 25.4942 27.2802 25.2812 27.1111 25.1121C26.9419 24.9429 26.6663 24.8114 26.2967 24.7174C26.234 24.6986 26.1463 24.6798 26.0273 24.6547C25.9082 24.6297 25.8205 24.6109 25.7641 24.5921C25.7078 24.5796 25.6514 24.5608 25.5825 24.5357C25.5135 24.5107 25.4634 24.4793 25.4384 24.4417C25.407 24.4104 25.3945 24.3666 25.3945 24.3164C25.3945 24.2225 25.4446 24.1473 25.5386 24.0909C25.6326 24.0345 25.7641 24.0032 25.927 24.0032C26.2716 24.0032 26.6976 24.1348 27.2051 24.4042V23.6336C26.8354 23.4143 26.4094 23.3078 25.927 23.3078C25.5198 23.3078 25.194 23.3955 24.9372 23.5772C24.6803 23.7589 24.555 24.0032 24.555 24.3227ZM27.8053 23.3642V26.6846H28.6197V23.3642H27.8053ZM27.8554 22.1926C27.7552 22.2866 27.7051 22.4057 27.7051 22.5435C27.7051 22.6813 27.7552 22.7941 27.8554 22.888C27.9557 22.982 28.0747 23.0321 28.2188 23.0321C28.3629 23.0321 28.4819 22.982 28.5822 22.888C28.6824 22.7941 28.7325 22.6813 28.7325 22.5435C28.7325 22.4057 28.6824 22.2866 28.5822 22.1926C28.4819 22.0987 28.3629 22.0486 28.2188 22.0486C28.0747 22.0486 27.9557 22.0987 27.8554 22.1926ZM29.6291 23.809C29.2971 24.141 29.1279 24.5482 29.1279 25.0181C29.1279 25.488 29.2971 25.8889 29.6291 26.2272C29.9612 26.5655 30.3621 26.7347 30.832 26.7347C31.3019 26.7347 31.7091 26.5655 32.0411 26.2272C32.3732 25.8952 32.5423 25.488 32.5423 25.0181C32.5423 24.5482 32.3732 24.1473 32.0411 23.809C31.7091 23.4769 31.3019 23.3078 30.832 23.3078C30.3621 23.3078 29.9612 23.4769 29.6291 23.809ZM29.886 25.0181C29.886 24.755 29.98 24.5294 30.1616 24.3352C30.3433 24.1473 30.5689 24.0533 30.832 24.0533C31.1014 24.0533 31.3269 24.1473 31.5086 24.3352C31.6903 24.5232 31.7843 24.7487 31.7843 25.0181C31.7843 25.2875 31.6903 25.513 31.5086 25.701C31.3269 25.8952 31.1014 25.9892 30.832 25.9892C30.5689 25.9892 30.3433 25.8952 30.1616 25.701C29.98 25.513 29.886 25.2875 29.886 25.0181ZM33.0139 26.6846H33.8284V24.9743C33.8284 24.7174 33.9035 24.4981 34.0602 24.3227C34.2105 24.1536 34.4047 24.0658 34.6491 24.0658C34.8558 24.0658 35.025 24.1348 35.1691 24.2789C35.3131 24.4229 35.3821 24.6172 35.3821 24.849V26.6846H36.1965V24.636C36.1965 24.235 36.0587 23.9155 35.7893 23.6712C35.5199 23.4268 35.1941 23.3078 34.812 23.3078C34.4047 23.3078 34.079 23.4519 33.8284 23.7401V23.3642H33.0139V26.6846ZM36.6568 24.3227C36.6568 24.5921 36.7507 24.7988 36.9387 24.9492C37.1266 25.0996 37.4211 25.2186 37.822 25.3C38.104 25.3564 38.3107 25.4191 38.4423 25.4817C38.5676 25.5444 38.6302 25.6258 38.6302 25.726C38.6302 25.82 38.5801 25.8952 38.4736 25.9453C38.3671 26.0017 38.2481 26.0268 38.104 26.0268C37.8722 26.0268 37.6278 25.9704 37.371 25.8576C37.1078 25.7511 36.9011 25.6321 36.7507 25.513V26.3337C37.1893 26.6031 37.6404 26.7347 38.104 26.7347C38.4736 26.7347 38.7931 26.6532 39.0625 26.4904C39.3319 26.3337 39.4634 26.0831 39.4634 25.7386C39.4634 25.4942 39.382 25.2812 39.2128 25.1121C39.0437 24.9429 38.768 24.8114 38.3984 24.7174C38.3358 24.6986 38.2481 24.6798 38.129 24.6547C38.01 24.6297 37.9223 24.6109 37.8659 24.5921C37.8095 24.5796 37.7531 24.5608 37.6842 24.5357C37.6153 24.5107 37.5652 24.4793 37.5401 24.4417C37.5088 24.4104 37.4963 24.3666 37.4963 24.3164C37.4963 24.2225 37.5464 24.1473 37.6404 24.0909C37.7343 24.0345 37.8659 24.0032 38.0288 24.0032C38.3734 24.0032 38.7994 24.1348 39.3068 24.4042V23.6336C38.9372 23.4143 38.5112 23.3078 38.0288 23.3078C37.6216 23.3078 37.2958 23.3955 37.0389 23.5772C36.7821 23.7589 36.6568 24.0032 36.6568 24.3227Z" fill="white" fill-opacity="0.9"/>
</g>
</g>
</g>
<defs>
<filter id="filter0_b_252_1530" x="-8.35211" y="17.5878" width="62.9747" height="36.9628" filterUnits="userSpaceOnUse" color-interpolation-filters="sRGB">
<feFlood flood-opacity="0" result="BackgroundImageFix"/>
<feGaussianBlur in="BackgroundImageFix" stdDeviation="7.048"/>
<feComposite in2="SourceAlpha" operator="in" result="effect1_backgroundBlur_252_1530"/>
<feBlend mode="normal" in="SourceGraphic" in2="effect1_backgroundBlur_252_1530" result="shape"/>
</filter>
<filter id="filter1_b_252_1530" x="-7.83207" y="-6.48369" width="80.138" height="47.0011" filterUnits="userSpaceOnUse" color-interpolation-filters="sRGB">
<feFlood flood-opacity="0" result="BackgroundImageFix"/>
<feGaussianBlur in="BackgroundImageFix" stdDeviation="6.89138"/>
<feComposite in2="SourceAlpha" operator="in" result="effect1_backgroundBlur_252_1530"/>
<feBlend mode="normal" in="SourceGraphic" in2="effect1_backgroundBlur_252_1530" result="shape"/>
</filter>
<filter id="filter2_dd_252_1530" x="5.32419" y="6.98583" width="53.8255" height="20.6885" filterUnits="userSpaceOnUse" color-interpolation-filters="sRGB">
<feFlood flood-opacity="0" result="BackgroundImageFix"/>
<feColorMatrix in="SourceAlpha" type="matrix" values="0 0 0 0 0 0 0 0 0 0 0 0 0 0 0 0 0 0 127 0" result="hardAlpha"/>
<feOffset dy="0.313244"/>
<feGaussianBlur stdDeviation="0.313244"/>
<feColorMatrix type="matrix" values="0 0 0 0 0 0 0 0 0 0 0 0 0 0 0 0 0 0 0.1 0"/>
<feBlend mode="normal" in2="BackgroundImageFix" result="effect1_dropShadow_252_1530"/>
<feColorMatrix in="SourceAlpha" type="matrix" values="0 0 0 0 0 0 0 0 0 0 0 0 0 0 0 0 0 0 127 0" result="hardAlpha"/>
<feOffset dy="0.313244"/>
<feGaussianBlur stdDeviation="0.313244"/>
<feComposite in2="hardAlpha" operator="out"/>
<feColorMatrix type="matrix" values="0 0 0 0 0.0930556 0 0 0 0 0.13053 0 0 0 0 0.166667 0 0 0 0.15 0"/>
<feBlend mode="normal" in2="effect1_dropShadow_252_1530" result="effect2_dropShadow_252_1530"/>
<feBlend mode="normal" in="SourceGraphic" in2="effect2_dropShadow_252_1530" result="shape"/>
</filter>
<filter id="filter3_b_252_1530" x="-7.20559" y="-5.8572" width="78.885" height="45.7481" filterUnits="userSpaceOnUse" color-interpolation-filters="sRGB">
<feFlood flood-opacity="0" result="BackgroundImageFix"/>
<feGaussianBlur in="BackgroundImageFix" stdDeviation="6.57813"/>
<feComposite in2="SourceAlpha" operator="in" result="effect1_backgroundBlur_252_1530"/>
<feBlend mode="normal" in="SourceGraphic" in2="effect1_backgroundBlur_252_1530" result="shape"/>
</filter>
<linearGradient id="paint0_linear_252_1530" x1="10.4318" y1="34.5459" x2="30.0725" y2="37.4229" gradientUnits="userSpaceOnUse">
<stop stop-color="#84FFFF"/>
<stop offset="0.536458" stop-color="#D6FFFF"/>
<stop offset="1" stop-color="white"/>
</linearGradient>
<linearGradient id="paint1_linear_252_1530" x1="33.2424" y1="35.4328" x2="36.0288" y2="35.5688" gradientUnits="userSpaceOnUse">
<stop stop-color="#84FFFF"/>
<stop offset="0.536458" stop-color="#D6FFFF"/>
<stop offset="1" stop-color="white"/>
</linearGradient>
<linearGradient id="paint2_linear_252_1530" x1="7.28236" y1="33.3969" x2="39.888" y2="37.9065" gradientUnits="userSpaceOnUse">
<stop stop-color="#84FFFF"/>
<stop offset="0.536458" stop-color="#D6FFFF"/>
<stop offset="1" stop-color="white"/>
</linearGradient>
<clipPath id="clip0_252_1530">
<rect x="0.731934" y="0.672852" width="112.142" height="44.794" rx="3.13244" fill="white"/>
</clipPath>
</defs>
</svg>
