<svg width="26" height="23" viewBox="0 0 26 23" fill="none" xmlns="http://www.w3.org/2000/svg">
<path id="premium" d="M22.9204 4.68233L17.5348 6.47753L13.8493 0.949849C13.703 0.730852 13.505 0.55132 13.2727 0.427158C13.0405 0.302995 12.7812 0.238037 12.5178 0.238037C12.2544 0.238037 11.9951 0.302995 11.7629 0.427158C11.5306 0.55132 11.3326 0.730852 11.1863 0.949849L7.5018 6.48233L2.1162 4.68233C1.85022 4.59391 1.56569 4.57685 1.29105 4.63286C1.01642 4.68887 0.76129 4.81599 0.551181 5.00151C0.341073 5.18703 0.183344 5.42446 0.0937583 5.69005C0.0041726 5.95564 -0.0141309 6.24009 0.0406797 6.51497C2.41956 17.9342 2.05668 17.6327 2.65956 18.2414C5.2763 20.8518 8.8216 22.3179 12.5178 22.3179C16.214 22.3179 19.7593 20.8518 22.376 18.2414C22.9837 17.6337 22.6218 17.9111 24.9949 6.51497C25.0496 6.24019 25.0313 5.95587 24.9418 5.6904C24.8522 5.42492 24.6946 5.18759 24.4846 5.0021C24.2746 4.81661 24.0197 4.68946 23.7452 4.63335C23.4707 4.57723 23.1863 4.59413 22.9204 4.68233Z" fill="#DF5CF0"/>
</svg>
