<svg width="26" height="23" viewBox="0 0 26 23" fill="none" xmlns="http://www.w3.org/2000/svg">
<path id="premium" d="M22.9106 4.68233L17.525 6.47753L13.8396 0.949849C13.6933 0.730852 13.4952 0.55132 13.263 0.427158C13.0307 0.302995 12.7714 0.238037 12.508 0.238037C12.2447 0.238037 11.9854 0.302995 11.7531 0.427158C11.5209 0.55132 11.3228 0.730852 11.1765 0.949849L7.49204 6.48233L2.10643 4.68233C1.84046 4.59391 1.55593 4.57685 1.28129 4.63286C1.00665 4.68887 0.751524 4.81599 0.541416 5.00151C0.331308 5.18703 0.173578 5.42446 0.0839927 5.69005C-0.00559303 5.95564 -0.0238965 6.24009 0.0309141 6.51497C2.40979 17.9342 2.04691 17.6327 2.64979 18.2414C5.26653 20.8518 8.81183 22.3179 12.508 22.3179C16.2042 22.3179 19.7495 20.8518 22.3663 18.2414C22.974 17.6337 22.612 17.9111 24.9852 6.51497C25.0399 6.24019 25.0216 5.95587 24.932 5.6904C24.8425 5.42492 24.6848 5.18759 24.4749 5.0021C24.2649 4.81661 24.0099 4.68946 23.7354 4.63335C23.4609 4.57723 23.1765 4.59413 22.9106 4.68233Z" fill="#1428BF"/>
</svg>
