<svg width="10" height="18" viewBox="0 0 10 18" fill="none" xmlns="http://www.w3.org/2000/svg">
<path id="path9513" d="M9.03833 8.78309C9.03338 8.95053 8.99992 9.11491 8.9401 9.26588C8.88028 9.41686 8.79536 9.55117 8.69072 9.66036L1.68977 16.9464C1.58991 17.0501 1.47424 17.1289 1.3493 17.1783C1.22436 17.2277 1.09269 17.2468 0.961688 17.2343C0.83069 17.2219 0.702939 17.1783 0.585832 17.1059C0.468724 17.0335 0.364537 16.9339 0.279152 16.8126C0.193767 16.6913 0.128887 16.5508 0.0882254 16.399C0.0475645 16.2473 0.0318527 16.0873 0.0421076 15.9282C0.0523625 15.7691 0.0883379 15.614 0.147947 15.4718C0.207557 15.3296 0.289716 15.2031 0.389602 15.0994L6.5081 8.73804L0.389602 2.37669C0.289716 2.27301 0.207557 2.14646 0.147947 2.00425C0.0883381 1.86204 0.0523626 1.70696 0.0421078 1.54787C0.0318529 1.38878 0.0475647 1.2288 0.0882256 1.07706C0.128887 0.925314 0.193767 0.784784 0.279152 0.663496C0.364537 0.542206 0.468724 0.44253 0.585832 0.370163C0.702939 0.297794 0.830691 0.254152 0.961688 0.241726C1.09269 0.229301 1.22436 0.248335 1.3493 0.297743C1.47424 0.347151 1.58991 0.425964 1.68977 0.529682L8.69072 7.81572C8.80487 7.9348 8.89548 8.08363 8.95567 8.25113C9.01585 8.41863 9.04408 8.60047 9.03833 8.78309Z" fill="#DF5CF0"/>
</svg>
