<svg width="6" height="9" viewBox="0 0 6 9" fill="none" xmlns="http://www.w3.org/2000/svg">
<path id="path9513" d="M5.99951 4.52385C5.99621 4.61249 5.9739 4.69952 5.93403 4.77945C5.89415 4.85938 5.83753 4.93048 5.76777 4.98829L1.10047 8.8456C1.0339 8.90051 0.956787 8.94223 0.873494 8.96839C0.790201 8.99455 0.702415 9.00463 0.615083 8.99805C0.527751 8.99147 0.442584 8.96836 0.364512 8.93005C0.286441 8.89174 0.216983 8.83897 0.160059 8.77476C0.103136 8.71055 0.0598826 8.63615 0.0327749 8.55581C0.00566769 8.47548 -0.00480651 8.39078 0.0020299 8.30656C0.00886632 8.22233 0.0328503 8.14024 0.0725899 8.06495C0.112329 7.98966 0.167101 7.92266 0.233693 7.86777L4.31269 4.5L0.233693 1.13223C0.167101 1.07734 0.112329 1.01034 0.07259 0.935052C0.0328504 0.859765 0.00886641 0.777665 0.00202999 0.693441C-0.00480642 0.609219 0.00566779 0.524521 0.032775 0.444187C0.0598827 0.363852 0.103136 0.289455 0.160059 0.225243C0.216983 0.161031 0.286441 0.108262 0.364513 0.0699491C0.442584 0.0316371 0.527752 0.00853246 0.615083 0.00195401C0.702415 -0.00462443 0.790201 0.00545209 0.873494 0.0316085C0.956787 0.0577659 1.0339 0.0994911 1.10047 0.154401L5.76777 4.01171C5.84387 4.07476 5.90428 4.15355 5.9444 4.24223C5.98452 4.3309 6.00335 4.42717 5.99951 4.52385Z" fill="#15141F" fill-opacity="0.25"/>
</svg>
