<svg width="26" height="21" viewBox="0 0 26 21" fill="none" xmlns="http://www.w3.org/2000/svg">
<g id="Layer 15">
<path id="Vector" d="M22.2519 20.7775C22.4887 20.7775 22.7157 20.6835 22.8831 20.5161C23.0505 20.3487 23.1446 20.1216 23.1446 19.8849V17.1087C23.8676 16.9149 24.5065 16.4879 24.9621 15.8939C25.4178 15.3 25.6647 14.5724 25.6647 13.8238C25.6647 13.0752 25.4178 12.3476 24.9621 11.7536C24.5065 11.1597 23.8676 10.7327 23.1446 10.5388V1.71052C23.1446 1.47378 23.0505 1.24673 22.8831 1.07932C22.7157 0.911918 22.4887 0.817871 22.2519 0.817871C22.0152 0.817871 21.7881 0.911918 21.6207 1.07932C21.4533 1.24673 21.3593 1.47378 21.3593 1.71052V10.5478C20.6362 10.7416 19.9974 11.1686 19.5417 11.7626C19.0861 12.3565 18.8391 13.0841 18.8391 13.8327C18.8391 14.5813 19.0861 15.309 19.5417 15.9029C19.9974 16.4968 20.6362 16.9238 21.3593 17.1177V19.8938C21.3616 20.129 21.4567 20.3538 21.6239 20.5193C21.791 20.6847 22.0167 20.7776 22.2519 20.7775ZM20.6184 13.8238C20.6184 13.5007 20.7142 13.1849 20.8937 12.9162C21.0732 12.6476 21.3283 12.4382 21.6268 12.3146C21.9253 12.1909 22.2537 12.1586 22.5706 12.2216C22.8875 12.2847 23.1786 12.4402 23.407 12.6687C23.6355 12.8972 23.7911 13.1882 23.8541 13.5051C23.9171 13.822 23.8848 14.1504 23.7611 14.4489C23.6375 14.7474 23.4281 15.0025 23.1595 15.182C22.8908 15.3615 22.575 15.4573 22.2519 15.4573C21.8187 15.4573 21.4032 15.2852 21.0968 14.9789C20.7905 14.6725 20.6184 14.257 20.6184 13.8238Z" fill="white"/>
<path id="Vector_2" d="M13.1647 20.7776C13.4015 20.7776 13.6285 20.6836 13.7959 20.5162C13.9633 20.3487 14.0574 20.1217 14.0574 19.885V7.51281C14.8574 7.29643 15.5515 6.79683 16.0107 6.10693C16.4699 5.41704 16.6629 4.58384 16.5538 3.76231C16.4446 2.94078 16.0408 2.18686 15.4174 1.6408C14.794 1.09473 13.9935 0.793701 13.1647 0.793701C12.336 0.793701 11.5354 1.09473 10.912 1.6408C10.2886 2.18686 9.88478 2.94078 9.77564 3.76231C9.66649 4.58384 9.85947 5.41704 10.3187 6.10693C10.7779 6.79683 11.4721 7.29643 12.2721 7.51281V19.885C12.2721 20.1217 12.3661 20.3487 12.5335 20.5162C12.7009 20.6836 12.928 20.7776 13.1647 20.7776ZM11.5312 4.23679C11.5294 3.91333 11.6237 3.59662 11.8021 3.32682C11.9805 3.05701 12.235 2.84624 12.5334 2.72123C12.8317 2.59622 13.1604 2.5626 13.4779 2.62462C13.7954 2.68664 14.0873 2.84151 14.3166 3.06961C14.546 3.2977 14.7024 3.58875 14.7662 3.90587C14.8299 4.22299 14.7981 4.5519 14.6747 4.85091C14.5514 5.14993 14.342 5.40558 14.0732 5.58548C13.8044 5.76537 13.4882 5.86141 13.1647 5.86141C12.733 5.86142 12.3189 5.69054 12.0128 5.38612C11.7067 5.08169 11.5335 4.66848 11.5312 4.23679Z" fill="white"/>
<path id="Vector_3" d="M3.18496 14.0827V19.8849C3.18496 20.1216 3.27901 20.3487 3.44641 20.5161C3.61382 20.6835 3.84087 20.7775 4.07761 20.7775C4.31436 20.7775 4.54141 20.6835 4.70881 20.5161C4.87621 20.3487 4.97026 20.1216 4.97026 19.8849V14.0827C5.69329 13.8888 6.33216 13.4618 6.78781 12.8679C7.24346 12.2739 7.49043 11.5463 7.49043 10.7977C7.49043 10.0491 7.24346 9.32148 6.78781 8.72755C6.33216 8.13363 5.69329 7.70663 4.97026 7.51275V1.71052C4.97026 1.47378 4.87621 1.24673 4.70881 1.07932C4.54141 0.911918 4.31436 0.817871 4.07761 0.817871C3.84087 0.817871 3.61382 0.911918 3.44641 1.07932C3.27901 1.24673 3.18496 1.47378 3.18496 1.71052V7.51275C2.46193 7.70663 1.82306 8.13363 1.36741 8.72755C0.911766 9.32148 0.664795 10.0491 0.664795 10.7977C0.664795 11.5463 0.911766 12.2739 1.36741 12.8679C1.82306 13.4618 2.46193 13.8888 3.18496 14.0827ZM4.07761 9.16416C4.40107 9.16239 4.71777 9.25669 4.98758 9.43511C5.25739 9.61353 5.46815 9.86803 5.59316 10.1664C5.71817 10.4647 5.7518 10.7934 5.68978 11.1109C5.62776 11.4284 5.47289 11.7203 5.24479 11.9496C5.0167 12.179 4.72564 12.3354 4.40852 12.3992C4.09141 12.4629 3.7625 12.4311 3.46348 12.3077C3.16447 12.1844 2.90882 11.975 2.72892 11.7062C2.54903 11.4374 2.45299 11.1212 2.45299 10.7977C2.45298 10.366 2.62386 9.95185 2.92828 9.64576C3.2327 9.33966 3.64592 9.16651 4.07761 9.16416Z" fill="white"/>
</g>
</svg>
