<svg width="386" height="225" viewBox="0 0 386 225" fill="none" xmlns="http://www.w3.org/2000/svg">
<g clip-path="url(#clip0_445_964)">
<rect width="386" height="225" rx="20" fill="#1428BF"/>
<path d="M18.43 78V64H24.49C25.7434 64 26.8234 64.2067 27.73 64.62C28.6367 65.02 29.3367 65.6 29.83 66.36C30.3234 67.12 30.57 68.0267 30.57 69.08C30.57 70.12 30.3234 71.02 29.83 71.78C29.3367 72.54 28.6367 73.1267 27.73 73.54C26.8234 73.94 25.7434 74.14 24.49 74.14H20.23L21.67 72.68V78H18.43ZM21.67 73.04L20.23 71.5H24.31C25.31 71.5 26.0567 71.2867 26.55 70.86C27.0434 70.4333 27.29 69.84 27.29 69.08C27.29 68.3067 27.0434 67.7067 26.55 67.28C26.0567 66.8533 25.31 66.64 24.31 66.64H20.23L21.67 65.1V73.04ZM32.6631 78V67.24H35.6431V70.28L35.2231 69.4C35.5431 68.64 36.0565 68.0667 36.7631 67.68C37.4698 67.28 38.3298 67.08 39.3431 67.08V69.96C39.2098 69.9467 39.0898 69.94 38.9831 69.94C38.8765 69.9267 38.7631 69.92 38.6431 69.92C37.7898 69.92 37.0965 70.1667 36.5631 70.66C36.0431 71.14 35.7831 71.8933 35.7831 72.92V78H32.6631ZM46.4406 78.16C45.214 78.16 44.134 77.92 43.2006 77.44C42.2806 76.96 41.5673 76.3067 41.0606 75.48C40.554 74.64 40.3006 73.6867 40.3006 72.62C40.3006 71.54 40.5473 70.5867 41.0406 69.76C41.5473 68.92 42.234 68.2667 43.1006 67.8C43.9673 67.32 44.9473 67.08 46.0406 67.08C47.094 67.08 48.0406 67.3067 48.8806 67.76C49.734 68.2 50.4073 68.84 50.9006 69.68C51.394 70.5067 51.6406 71.5 51.6406 72.66C51.6406 72.78 51.634 72.92 51.6206 73.08C51.6073 73.2267 51.594 73.3667 51.5806 73.5H42.8406V71.68H49.9406L48.7406 72.22C48.7406 71.66 48.6273 71.1733 48.4006 70.76C48.174 70.3467 47.8606 70.0267 47.4606 69.8C47.0606 69.56 46.594 69.44 46.0606 69.44C45.5273 69.44 45.054 69.56 44.6406 69.8C44.2406 70.0267 43.9273 70.3533 43.7006 70.78C43.474 71.1933 43.3606 71.6867 43.3606 72.26V72.74C43.3606 73.3267 43.4873 73.8467 43.7406 74.3C44.0073 74.74 44.374 75.08 44.8406 75.32C45.3206 75.5467 45.8806 75.66 46.5206 75.66C47.094 75.66 47.594 75.5733 48.0206 75.4C48.4606 75.2267 48.8606 74.9667 49.2206 74.62L50.8806 76.42C50.3873 76.98 49.7673 77.4133 49.0206 77.72C48.274 78.0133 47.414 78.16 46.4406 78.16ZM67.4978 67.08C68.3512 67.08 69.1045 67.2533 69.7578 67.6C70.4245 67.9333 70.9445 68.4533 71.3178 69.16C71.7045 69.8533 71.8978 70.7467 71.8978 71.84V78H68.7778V72.32C68.7778 71.4533 68.5978 70.8133 68.2378 70.4C67.8778 69.9867 67.3712 69.78 66.7178 69.78C66.2645 69.78 65.8578 69.8867 65.4978 70.1C65.1378 70.3 64.8578 70.6067 64.6578 71.02C64.4578 71.4333 64.3578 71.96 64.3578 72.6V78H61.2378V72.32C61.2378 71.4533 61.0578 70.8133 60.6978 70.4C60.3512 69.9867 59.8512 69.78 59.1978 69.78C58.7445 69.78 58.3378 69.8867 57.9778 70.1C57.6178 70.3 57.3378 70.6067 57.1378 71.02C56.9378 71.4333 56.8378 71.96 56.8378 72.6V78H53.7178V67.24H56.6978V70.18L56.1378 69.32C56.5112 68.5867 57.0378 68.0333 57.7178 67.66C58.4112 67.2733 59.1978 67.08 60.0778 67.08C61.0645 67.08 61.9245 67.3333 62.6578 67.84C63.4045 68.3333 63.8978 69.0933 64.1378 70.12L63.0378 69.82C63.3978 68.98 63.9712 68.3133 64.7578 67.82C65.5578 67.3267 66.4712 67.08 67.4978 67.08ZM74.6944 78V67.24H77.8144V78H74.6944ZM76.2544 65.74C75.6811 65.74 75.2144 65.5733 74.8544 65.24C74.4944 64.9067 74.3144 64.4933 74.3144 64C74.3144 63.5067 74.4944 63.0933 74.8544 62.76C75.2144 62.4267 75.6811 62.26 76.2544 62.26C76.8277 62.26 77.2944 62.42 77.6544 62.74C78.0144 63.0467 78.1944 63.4467 78.1944 63.94C78.1944 64.46 78.0144 64.8933 77.6544 65.24C77.3077 65.5733 76.8411 65.74 76.2544 65.74ZM85.25 78.16C84.3567 78.16 83.5567 77.9867 82.85 77.64C82.1567 77.2933 81.6167 76.7667 81.23 76.06C80.8434 75.34 80.65 74.4267 80.65 73.32V67.24H83.77V72.86C83.77 73.7533 83.9567 74.4133 84.33 74.84C84.7167 75.2533 85.2567 75.46 85.95 75.46C86.43 75.46 86.8567 75.36 87.23 75.16C87.6034 74.9467 87.8967 74.6267 88.11 74.2C88.3234 73.76 88.43 73.2133 88.43 72.56V67.24H91.55V78H88.59V75.04L89.13 75.9C88.77 76.6467 88.2367 77.2133 87.53 77.6C86.8367 77.9733 86.0767 78.16 85.25 78.16ZM108.22 67.08C109.074 67.08 109.827 67.2533 110.48 67.6C111.147 67.9333 111.667 68.4533 112.04 69.16C112.427 69.8533 112.62 70.7467 112.62 71.84V78H109.5V72.32C109.5 71.4533 109.32 70.8133 108.96 70.4C108.6 69.9867 108.094 69.78 107.44 69.78C106.987 69.78 106.58 69.8867 106.22 70.1C105.86 70.3 105.58 70.6067 105.38 71.02C105.18 71.4333 105.08 71.96 105.08 72.6V78H101.96V72.32C101.96 71.4533 101.78 70.8133 101.42 70.4C101.074 69.9867 100.574 69.78 99.9205 69.78C99.4672 69.78 99.0605 69.8867 98.7005 70.1C98.3405 70.3 98.0605 70.6067 97.8605 71.02C97.6605 71.4333 97.5605 71.96 97.5605 72.6V78H94.4405V67.24H97.4205V70.18L96.8605 69.32C97.2338 68.5867 97.7605 68.0333 98.4405 67.66C99.1338 67.2733 99.9205 67.08 100.8 67.08C101.787 67.08 102.647 67.3333 103.38 67.84C104.127 68.3333 104.62 69.0933 104.86 70.12L103.76 69.82C104.12 68.98 104.694 68.3133 105.48 67.82C106.28 67.3267 107.194 67.08 108.22 67.08ZM124.701 78.16C123.781 78.16 122.894 78.0533 122.041 77.84C121.201 77.6133 120.534 77.3333 120.041 77L121.081 74.76C121.574 75.0667 122.154 75.32 122.821 75.52C123.501 75.7067 124.168 75.8 124.821 75.8C125.541 75.8 126.048 75.7133 126.341 75.54C126.648 75.3667 126.801 75.1267 126.801 74.82C126.801 74.5667 126.681 74.38 126.441 74.26C126.214 74.1267 125.908 74.0267 125.521 73.96C125.134 73.8933 124.708 73.8267 124.241 73.76C123.788 73.6933 123.328 73.6067 122.861 73.5C122.394 73.38 121.968 73.2067 121.581 72.98C121.194 72.7533 120.881 72.4467 120.641 72.06C120.414 71.6733 120.301 71.1733 120.301 70.56C120.301 69.88 120.494 69.28 120.881 68.76C121.281 68.24 121.854 67.8333 122.601 67.54C123.348 67.2333 124.241 67.08 125.281 67.08C126.014 67.08 126.761 67.16 127.521 67.32C128.281 67.48 128.914 67.7133 129.421 68.02L128.381 70.24C127.861 69.9333 127.334 69.7267 126.801 69.62C126.281 69.5 125.774 69.44 125.281 69.44C124.588 69.44 124.081 69.5333 123.761 69.72C123.441 69.9067 123.281 70.1467 123.281 70.44C123.281 70.7067 123.394 70.9067 123.621 71.04C123.861 71.1733 124.174 71.28 124.561 71.36C124.948 71.44 125.368 71.5133 125.821 71.58C126.288 71.6333 126.754 71.72 127.221 71.84C127.688 71.96 128.108 72.1333 128.481 72.36C128.868 72.5733 129.181 72.8733 129.421 73.26C129.661 73.6333 129.781 74.1267 129.781 74.74C129.781 75.4067 129.581 76 129.181 76.52C128.781 77.0267 128.201 77.4267 127.441 77.72C126.694 78.0133 125.781 78.16 124.701 78.16ZM131.706 78V67.24H134.826V78H131.706ZM133.266 65.74C132.693 65.74 132.226 65.5733 131.866 65.24C131.506 64.9067 131.326 64.4933 131.326 64C131.326 63.5067 131.506 63.0933 131.866 62.76C132.226 62.4267 132.693 62.26 133.266 62.26C133.839 62.26 134.306 62.42 134.666 62.74C135.026 63.0467 135.206 63.4467 135.206 63.94C135.206 64.46 135.026 64.8933 134.666 65.24C134.319 65.5733 133.853 65.74 133.266 65.74ZM144.262 67.08C145.115 67.08 145.875 67.2533 146.542 67.6C147.222 67.9333 147.755 68.4533 148.142 69.16C148.528 69.8533 148.722 70.7467 148.722 71.84V78H145.602V72.32C145.602 71.4533 145.408 70.8133 145.022 70.4C144.648 69.9867 144.115 69.78 143.422 69.78C142.928 69.78 142.482 69.8867 142.082 70.1C141.695 70.3 141.388 70.6133 141.162 71.04C140.948 71.4667 140.842 72.0133 140.842 72.68V78H137.722V67.24H140.702V70.22L140.142 69.32C140.528 68.6 141.082 68.0467 141.802 67.66C142.522 67.2733 143.342 67.08 144.262 67.08ZM152.715 82.04C152.155 82.04 151.601 81.9533 151.055 81.78C150.508 81.6067 150.061 81.3667 149.715 81.06L150.855 78.84C151.095 79.0533 151.368 79.22 151.675 79.34C151.995 79.46 152.308 79.52 152.615 79.52C153.055 79.52 153.401 79.4133 153.655 79.2C153.921 79 154.161 78.66 154.375 78.18L154.935 76.86L155.175 76.52L159.035 67.24H162.035L157.175 78.66C156.828 79.5267 156.428 80.2067 155.975 80.7C155.535 81.1933 155.041 81.54 154.495 81.74C153.961 81.94 153.368 82.04 152.715 82.04ZM154.555 78.42L149.755 67.24H152.975L156.695 76.24L154.555 78.42ZM169.556 78V75.9L169.356 75.44V71.68C169.356 71.0133 169.149 70.4933 168.736 70.12C168.336 69.7467 167.716 69.56 166.876 69.56C166.303 69.56 165.736 69.6533 165.176 69.84C164.629 70.0133 164.163 70.2533 163.776 70.56L162.656 68.38C163.243 67.9667 163.949 67.6467 164.776 67.42C165.603 67.1933 166.443 67.08 167.296 67.08C168.936 67.08 170.209 67.4667 171.116 68.24C172.023 69.0133 172.476 70.22 172.476 71.86V78H169.556ZM166.276 78.16C165.436 78.16 164.716 78.02 164.116 77.74C163.516 77.4467 163.056 77.0533 162.736 76.56C162.416 76.0667 162.256 75.5133 162.256 74.9C162.256 74.26 162.409 73.7 162.716 73.22C163.036 72.74 163.536 72.3667 164.216 72.1C164.896 71.82 165.783 71.68 166.876 71.68H169.736V73.5H167.216C166.483 73.5 165.976 73.62 165.696 73.86C165.429 74.1 165.296 74.4 165.296 74.76C165.296 75.16 165.449 75.48 165.756 75.72C166.076 75.9467 166.509 76.06 167.056 76.06C167.576 76.06 168.043 75.94 168.456 75.7C168.869 75.4467 169.169 75.08 169.356 74.6L169.836 76.04C169.609 76.7333 169.196 77.26 168.596 77.62C167.996 77.98 167.223 78.16 166.276 78.16ZM175.3 78V63.16H178.42V78H175.3ZM181.315 78V63.16H184.435V78H181.315ZM192.671 78.16C191.444 78.16 190.364 77.92 189.431 77.44C188.511 76.96 187.798 76.3067 187.291 75.48C186.784 74.64 186.531 73.6867 186.531 72.62C186.531 71.54 186.778 70.5867 187.271 69.76C187.778 68.92 188.464 68.2667 189.331 67.8C190.198 67.32 191.178 67.08 192.271 67.08C193.324 67.08 194.271 67.3067 195.111 67.76C195.964 68.2 196.638 68.84 197.131 69.68C197.624 70.5067 197.871 71.5 197.871 72.66C197.871 72.78 197.864 72.92 197.851 73.08C197.838 73.2267 197.824 73.3667 197.811 73.5H189.071V71.68H196.171L194.971 72.22C194.971 71.66 194.858 71.1733 194.631 70.76C194.404 70.3467 194.091 70.0267 193.691 69.8C193.291 69.56 192.824 69.44 192.291 69.44C191.758 69.44 191.284 69.56 190.871 69.8C190.471 70.0267 190.158 70.3533 189.931 70.78C189.704 71.1933 189.591 71.6867 189.591 72.26V72.74C189.591 73.3267 189.718 73.8467 189.971 74.3C190.238 74.74 190.604 75.08 191.071 75.32C191.551 75.5467 192.111 75.66 192.751 75.66C193.324 75.66 193.824 75.5733 194.251 75.4C194.691 75.2267 195.091 74.9667 195.451 74.62L197.111 76.42C196.618 76.98 195.998 77.4133 195.251 77.72C194.504 78.0133 193.644 78.16 192.671 78.16ZM199.948 78V67.24H202.928V70.28L202.508 69.4C202.828 68.64 203.342 68.0667 204.048 67.68C204.755 67.28 205.615 67.08 206.628 67.08V69.96C206.495 69.9467 206.375 69.94 206.268 69.94C206.162 69.9267 206.048 69.92 205.928 69.92C205.075 69.92 204.382 70.1667 203.848 70.66C203.328 71.14 203.068 71.8933 203.068 72.92V78H199.948ZM213.726 78.16C212.499 78.16 211.419 77.92 210.486 77.44C209.566 76.96 208.852 76.3067 208.346 75.48C207.839 74.64 207.586 73.6867 207.586 72.62C207.586 71.54 207.832 70.5867 208.326 69.76C208.832 68.92 209.519 68.2667 210.386 67.8C211.252 67.32 212.232 67.08 213.326 67.08C214.379 67.08 215.326 67.3067 216.166 67.76C217.019 68.2 217.692 68.84 218.186 69.68C218.679 70.5067 218.926 71.5 218.926 72.66C218.926 72.78 218.919 72.92 218.906 73.08C218.892 73.2267 218.879 73.3667 218.866 73.5H210.126V71.68H217.226L216.026 72.22C216.026 71.66 215.912 71.1733 215.686 70.76C215.459 70.3467 215.146 70.0267 214.746 69.8C214.346 69.56 213.879 69.44 213.346 69.44C212.812 69.44 212.339 69.56 211.926 69.8C211.526 70.0267 211.212 70.3533 210.986 70.78C210.759 71.1933 210.646 71.6867 210.646 72.26V72.74C210.646 73.3267 210.772 73.8467 211.026 74.3C211.292 74.74 211.659 75.08 212.126 75.32C212.606 75.5467 213.166 75.66 213.806 75.66C214.379 75.66 214.879 75.5733 215.306 75.4C215.746 75.2267 216.146 74.9667 216.506 74.62L218.166 76.42C217.672 76.98 217.052 77.4133 216.306 77.72C215.559 78.0133 214.699 78.16 213.726 78.16ZM233.027 78.16C232.08 78.16 231.267 77.96 230.587 77.56C229.907 77.16 229.387 76.5533 229.027 75.74C228.667 74.9133 228.487 73.8733 228.487 72.62C228.487 71.3533 228.674 70.3133 229.047 69.5C229.434 68.6867 229.967 68.08 230.647 67.68C231.327 67.28 232.12 67.08 233.027 67.08C234.04 67.08 234.947 67.3067 235.747 67.76C236.56 68.2133 237.2 68.8533 237.667 69.68C238.147 70.5067 238.387 71.4867 238.387 72.62C238.387 73.74 238.147 74.7133 237.667 75.54C237.2 76.3667 236.56 77.0133 235.747 77.48C234.947 77.9333 234.04 78.16 233.027 78.16ZM226.667 78V63.16H229.787V69.42L229.587 72.6L229.647 75.8V78H226.667ZM232.487 75.6C233.007 75.6 233.467 75.48 233.867 75.24C234.28 75 234.607 74.66 234.847 74.22C235.1 73.7667 235.227 73.2333 235.227 72.62C235.227 71.9933 235.1 71.46 234.847 71.02C234.607 70.58 234.28 70.24 233.867 70C233.467 69.76 233.007 69.64 232.487 69.64C231.967 69.64 231.5 69.76 231.087 70C230.674 70.24 230.347 70.58 230.107 71.02C229.867 71.46 229.747 71.9933 229.747 72.62C229.747 73.2333 229.867 73.7667 230.107 74.22C230.347 74.66 230.674 75 231.087 75.24C231.5 75.48 231.967 75.6 232.487 75.6ZM245.016 78.16C244.122 78.16 243.322 77.9867 242.616 77.64C241.922 77.2933 241.382 76.7667 240.996 76.06C240.609 75.34 240.416 74.4267 240.416 73.32V67.24H243.536V72.86C243.536 73.7533 243.722 74.4133 244.096 74.84C244.482 75.2533 245.022 75.46 245.716 75.46C246.196 75.46 246.622 75.36 246.996 75.16C247.369 74.9467 247.662 74.6267 247.876 74.2C248.089 73.76 248.196 73.2133 248.196 72.56V67.24H251.316V78H248.356V75.04L248.896 75.9C248.536 76.6467 248.002 77.2133 247.296 77.6C246.602 77.9733 245.842 78.16 245.016 78.16ZM254.206 78V67.24H257.186V70.28L256.766 69.4C257.086 68.64 257.599 68.0667 258.306 67.68C259.013 67.28 259.873 67.08 260.886 67.08V69.96C260.753 69.9467 260.633 69.94 260.526 69.94C260.419 69.9267 260.306 69.92 260.186 69.92C259.333 69.92 258.639 70.1667 258.106 70.66C257.586 71.14 257.326 71.8933 257.326 72.92V78H254.206ZM268.638 78V75.9L268.438 75.44V71.68C268.438 71.0133 268.231 70.4933 267.818 70.12C267.418 69.7467 266.798 69.56 265.958 69.56C265.385 69.56 264.818 69.6533 264.258 69.84C263.711 70.0133 263.245 70.2533 262.858 70.56L261.738 68.38C262.325 67.9667 263.031 67.6467 263.858 67.42C264.685 67.1933 265.525 67.08 266.378 67.08C268.018 67.08 269.291 67.4667 270.198 68.24C271.105 69.0133 271.558 70.22 271.558 71.86V78H268.638ZM265.358 78.16C264.518 78.16 263.798 78.02 263.198 77.74C262.598 77.4467 262.138 77.0533 261.818 76.56C261.498 76.0667 261.338 75.5133 261.338 74.9C261.338 74.26 261.491 73.7 261.798 73.22C262.118 72.74 262.618 72.3667 263.298 72.1C263.978 71.82 264.865 71.68 265.958 71.68H268.818V73.5H266.298C265.565 73.5 265.058 73.62 264.778 73.86C264.511 74.1 264.378 74.4 264.378 74.76C264.378 75.16 264.531 75.48 264.838 75.72C265.158 75.9467 265.591 76.06 266.138 76.06C266.658 76.06 267.125 75.94 267.538 75.7C267.951 75.4467 268.251 75.08 268.438 74.6L268.918 76.04C268.691 76.7333 268.278 77.26 267.678 77.62C267.078 77.98 266.305 78.16 265.358 78.16ZM279.08 78.16C278.067 78.16 277.153 77.9333 276.34 77.48C275.527 77.0133 274.88 76.3667 274.4 75.54C273.933 74.7133 273.7 73.74 273.7 72.62C273.7 71.4867 273.933 70.5067 274.4 69.68C274.88 68.8533 275.527 68.2133 276.34 67.76C277.153 67.3067 278.067 67.08 279.08 67.08C279.987 67.08 280.78 67.28 281.46 67.68C282.14 68.08 282.667 68.6867 283.04 69.5C283.413 70.3133 283.6 71.3533 283.6 72.62C283.6 73.8733 283.42 74.9133 283.06 75.74C282.7 76.5533 282.18 77.16 281.5 77.56C280.833 77.96 280.027 78.16 279.08 78.16ZM279.62 75.6C280.127 75.6 280.587 75.48 281 75.24C281.413 75 281.74 74.66 281.98 74.22C282.233 73.7667 282.36 73.2333 282.36 72.62C282.36 71.9933 282.233 71.46 281.98 71.02C281.74 70.58 281.413 70.24 281 70C280.587 69.76 280.127 69.64 279.62 69.64C279.1 69.64 278.633 69.76 278.22 70C277.807 70.24 277.473 70.58 277.22 71.02C276.98 71.46 276.86 71.9933 276.86 72.62C276.86 73.2333 276.98 73.7667 277.22 74.22C277.473 74.66 277.807 75 278.22 75.24C278.633 75.48 279.1 75.6 279.62 75.6ZM282.44 78V75.8L282.5 72.6L282.3 69.42V63.16H285.42V78H282.44ZM294.908 78V75.9L294.708 75.44V71.68C294.708 71.0133 294.501 70.4933 294.088 70.12C293.688 69.7467 293.068 69.56 292.228 69.56C291.654 69.56 291.088 69.6533 290.528 69.84C289.981 70.0133 289.514 70.2533 289.128 70.56L288.008 68.38C288.594 67.9667 289.301 67.6467 290.128 67.42C290.954 67.1933 291.794 67.08 292.648 67.08C294.288 67.08 295.561 67.4667 296.468 68.24C297.374 69.0133 297.828 70.22 297.828 71.86V78H294.908ZM291.628 78.16C290.788 78.16 290.068 78.02 289.468 77.74C288.868 77.4467 288.408 77.0533 288.088 76.56C287.768 76.0667 287.608 75.5133 287.608 74.9C287.608 74.26 287.761 73.7 288.068 73.22C288.388 72.74 288.888 72.3667 289.568 72.1C290.248 71.82 291.134 71.68 292.228 71.68H295.088V73.5H292.568C291.834 73.5 291.328 73.62 291.048 73.86C290.781 74.1 290.648 74.4 290.648 74.76C290.648 75.16 290.801 75.48 291.108 75.72C291.428 75.9467 291.861 76.06 292.408 76.06C292.928 76.06 293.394 75.94 293.808 75.7C294.221 75.4467 294.521 75.08 294.708 74.6L295.188 76.04C294.961 76.7333 294.548 77.26 293.948 77.62C293.348 77.98 292.574 78.16 291.628 78.16ZM307.191 67.08C308.045 67.08 308.805 67.2533 309.471 67.6C310.151 67.9333 310.685 68.4533 311.071 69.16C311.458 69.8533 311.651 70.7467 311.651 71.84V78H308.531V72.32C308.531 71.4533 308.338 70.8133 307.951 70.4C307.578 69.9867 307.045 69.78 306.351 69.78C305.858 69.78 305.411 69.8867 305.011 70.1C304.625 70.3 304.318 70.6133 304.091 71.04C303.878 71.4667 303.771 72.0133 303.771 72.68V78H300.651V67.24H303.631V70.22L303.071 69.32C303.458 68.6 304.011 68.0467 304.731 67.66C305.451 67.2733 306.271 67.08 307.191 67.08ZM23.55 102.16C22.3234 102.16 21.2434 101.92 20.31 101.44C19.39 100.96 18.6767 100.307 18.17 99.48C17.6634 98.64 17.41 97.6867 17.41 96.62C17.41 95.54 17.6567 94.5867 18.15 93.76C18.6567 92.92 19.3434 92.2667 20.21 91.8C21.0767 91.32 22.0567 91.08 23.15 91.08C24.2034 91.08 25.15 91.3067 25.99 91.76C26.8434 92.2 27.5167 92.84 28.01 93.68C28.5034 94.5067 28.75 95.5 28.75 96.66C28.75 96.78 28.7434 96.92 28.73 97.08C28.7167 97.2267 28.7034 97.3667 28.69 97.5H19.95V95.68H27.05L25.85 96.22C25.85 95.66 25.7367 95.1733 25.51 94.76C25.2834 94.3467 24.97 94.0267 24.57 93.8C24.17 93.56 23.7034 93.44 23.17 93.44C22.6367 93.44 22.1634 93.56 21.75 93.8C21.35 94.0267 21.0367 94.3533 20.81 94.78C20.5834 95.1933 20.47 95.6867 20.47 96.26V96.74C20.47 97.3267 20.5967 97.8467 20.85 98.3C21.1167 98.74 21.4834 99.08 21.95 99.32C22.43 99.5467 22.99 99.66 23.63 99.66C24.2034 99.66 24.7034 99.5733 25.13 99.4C25.57 99.2267 25.97 98.9667 26.33 98.62L27.99 100.42C27.4967 100.98 26.8767 101.413 26.13 101.72C25.3834 102.013 24.5234 102.16 23.55 102.16ZM30.8272 102V91.24H33.8072V94.28L33.3872 93.4C33.7072 92.64 34.2205 92.0667 34.9272 91.68C35.6339 91.28 36.4939 91.08 37.5072 91.08V93.96C37.3739 93.9467 37.2539 93.94 37.1472 93.94C37.0405 93.9267 36.9272 93.92 36.8072 93.92C35.9539 93.92 35.2605 94.1667 34.7272 94.66C34.2072 95.14 33.9472 95.8933 33.9472 96.92V102H30.8272ZM39.3624 102V91.24H42.4824V102H39.3624ZM40.9224 89.74C40.349 89.74 39.8824 89.5733 39.5224 89.24C39.1624 88.9067 38.9824 88.4933 38.9824 88C38.9824 87.5067 39.1624 87.0933 39.5224 86.76C39.8824 86.4267 40.349 86.26 40.9224 86.26C41.4957 86.26 41.9624 86.42 42.3224 86.74C42.6824 87.0467 42.8624 87.4467 42.8624 87.94C42.8624 88.46 42.6824 88.8933 42.3224 89.24C41.9757 89.5733 41.509 89.74 40.9224 89.74ZM48.998 102.16C48.078 102.16 47.1913 102.053 46.338 101.84C45.498 101.613 44.8313 101.333 44.338 101L45.378 98.76C45.8713 99.0667 46.4513 99.32 47.118 99.52C47.798 99.7067 48.4647 99.8 49.118 99.8C49.838 99.8 50.3447 99.7133 50.638 99.54C50.9447 99.3667 51.098 99.1267 51.098 98.82C51.098 98.5667 50.978 98.38 50.738 98.26C50.5113 98.1267 50.2047 98.0267 49.818 97.96C49.4313 97.8933 49.0047 97.8267 48.538 97.76C48.0847 97.6933 47.6247 97.6067 47.158 97.5C46.6913 97.38 46.2647 97.2067 45.878 96.98C45.4913 96.7533 45.178 96.4467 44.938 96.06C44.7113 95.6733 44.598 95.1733 44.598 94.56C44.598 93.88 44.7913 93.28 45.178 92.76C45.578 92.24 46.1513 91.8333 46.898 91.54C47.6447 91.2333 48.538 91.08 49.578 91.08C50.3113 91.08 51.058 91.16 51.818 91.32C52.578 91.48 53.2113 91.7133 53.718 92.02L52.678 94.24C52.158 93.9333 51.6313 93.7267 51.098 93.62C50.578 93.5 50.0713 93.44 49.578 93.44C48.8847 93.44 48.378 93.5333 48.058 93.72C47.738 93.9067 47.578 94.1467 47.578 94.44C47.578 94.7067 47.6913 94.9067 47.918 95.04C48.158 95.1733 48.4713 95.28 48.858 95.36C49.2447 95.44 49.6647 95.5133 50.118 95.58C50.5847 95.6333 51.0513 95.72 51.518 95.84C51.9847 95.96 52.4047 96.1333 52.778 96.36C53.1647 96.5733 53.478 96.8733 53.718 97.26C53.958 97.6333 54.078 98.1267 54.078 98.74C54.078 99.4067 53.878 100 53.478 100.52C53.078 101.027 52.498 101.427 51.738 101.72C50.9913 102.013 50.078 102.16 48.998 102.16ZM48.498 106.64C48.1513 106.64 47.8113 106.6 47.478 106.52C47.158 106.44 46.878 106.34 46.638 106.22L47.118 104.88C47.318 104.973 47.5247 105.047 47.738 105.1C47.9513 105.153 48.178 105.18 48.418 105.18C48.7913 105.18 49.058 105.12 49.218 105C49.378 104.88 49.458 104.727 49.458 104.54C49.458 104.367 49.378 104.227 49.218 104.12C49.0713 104.013 48.8247 103.96 48.478 103.96H47.798L48.318 101.84H49.978L49.698 103C50.298 103.067 50.738 103.253 51.018 103.56C51.298 103.88 51.438 104.247 51.438 104.66C51.438 105.26 51.1713 105.74 50.638 106.1C50.1047 106.46 49.3913 106.64 48.498 106.64ZM61.343 102.16C60.1163 102.16 59.0363 101.92 58.103 101.44C57.183 100.96 56.4697 100.307 55.963 99.48C55.4563 98.64 55.203 97.6867 55.203 96.62C55.203 95.54 55.4497 94.5867 55.943 93.76C56.4497 92.92 57.1363 92.2667 58.003 91.8C58.8697 91.32 59.8497 91.08 60.943 91.08C61.9963 91.08 62.943 91.3067 63.783 91.76C64.6363 92.2 65.3097 92.84 65.803 93.68C66.2963 94.5067 66.543 95.5 66.543 96.66C66.543 96.78 66.5363 96.92 66.523 97.08C66.5097 97.2267 66.4963 97.3667 66.483 97.5H57.743V95.68H64.843L63.643 96.22C63.643 95.66 63.5297 95.1733 63.303 94.76C63.0763 94.3467 62.763 94.0267 62.363 93.8C61.963 93.56 61.4963 93.44 60.963 93.44C60.4297 93.44 59.9563 93.56 59.543 93.8C59.143 94.0267 58.8297 94.3533 58.603 94.78C58.3763 95.1933 58.263 95.6867 58.263 96.26V96.74C58.263 97.3267 58.3897 97.8467 58.643 98.3C58.9097 98.74 59.2763 99.08 59.743 99.32C60.223 99.5467 60.783 99.66 61.423 99.66C61.9963 99.66 62.4963 99.5733 62.923 99.4C63.363 99.2267 63.763 98.9667 64.123 98.62L65.783 100.42C65.2897 100.98 64.6697 101.413 63.923 101.72C63.1763 102.013 62.3163 102.16 61.343 102.16ZM74.9802 102.16C74.0335 102.16 73.2202 101.96 72.5402 101.56C71.8602 101.16 71.3402 100.553 70.9802 99.74C70.6202 98.9133 70.4402 97.8733 70.4402 96.62C70.4402 95.3533 70.6268 94.3133 71.0002 93.5C71.3868 92.6867 71.9202 92.08 72.6002 91.68C73.2802 91.28 74.0735 91.08 74.9802 91.08C75.9935 91.08 76.9002 91.3067 77.7002 91.76C78.5135 92.2133 79.1535 92.8533 79.6202 93.68C80.1002 94.5067 80.3402 95.4867 80.3402 96.62C80.3402 97.74 80.1002 98.7133 79.6202 99.54C79.1535 100.367 78.5135 101.013 77.7002 101.48C76.9002 101.933 75.9935 102.16 74.9802 102.16ZM68.6202 102V87.16H71.7402V93.42L71.5402 96.6L71.6002 99.8V102H68.6202ZM74.4402 99.6C74.9602 99.6 75.4202 99.48 75.8202 99.24C76.2335 99 76.5602 98.66 76.8002 98.22C77.0535 97.7667 77.1802 97.2333 77.1802 96.62C77.1802 95.9933 77.0535 95.46 76.8002 95.02C76.5602 94.58 76.2335 94.24 75.8202 94C75.4202 93.76 74.9602 93.64 74.4402 93.64C73.9202 93.64 73.4535 93.76 73.0402 94C72.6268 94.24 72.3002 94.58 72.0602 95.02C71.8202 95.46 71.7002 95.9933 71.7002 96.62C71.7002 97.2333 71.8202 97.7667 72.0602 98.22C72.3002 98.66 72.6268 99 73.0402 99.24C73.4535 99.48 73.9202 99.6 74.4402 99.6ZM82.4288 102V91.24H85.5488V102H82.4288ZM83.9888 89.74C83.4154 89.74 82.9488 89.5733 82.5888 89.24C82.2288 88.9067 82.0488 88.4933 82.0488 88C82.0488 87.5067 82.2288 87.0933 82.5888 86.76C82.9488 86.4267 83.4154 86.26 83.9888 86.26C84.5621 86.26 85.0288 86.42 85.3888 86.74C85.7488 87.0467 85.9288 87.4467 85.9288 87.94C85.9288 88.46 85.7488 88.8933 85.3888 89.24C85.0421 89.5733 84.5754 89.74 83.9888 89.74ZM88.4444 102V87.16H91.5644V102H88.4444ZM94.46 102V91.24H97.58V102H94.46ZM96.02 89.74C95.4467 89.74 94.98 89.5733 94.62 89.24C94.26 88.9067 94.08 88.4933 94.08 88C94.08 87.5067 94.26 87.0933 94.62 86.76C94.98 86.4267 95.4467 86.26 96.02 86.26C96.5934 86.26 97.06 86.42 97.42 86.74C97.78 87.0467 97.96 87.4467 97.96 87.94C97.96 88.46 97.78 88.8933 97.42 89.24C97.0734 89.5733 96.6067 89.74 96.02 89.74ZM100.476 102V91.24H103.456V94.28L103.036 93.4C103.356 92.64 103.869 92.0667 104.576 91.68C105.282 91.28 106.142 91.08 107.156 91.08V93.96C107.022 93.9467 106.902 93.94 106.796 93.94C106.689 93.9267 106.576 93.92 106.456 93.92C105.602 93.92 104.909 94.1667 104.376 94.66C103.856 95.14 103.596 95.8933 103.596 96.92V102H100.476ZM112.709 102.16C111.789 102.16 110.902 102.053 110.049 101.84C109.209 101.613 108.542 101.333 108.049 101L109.089 98.76C109.582 99.0667 110.162 99.32 110.829 99.52C111.509 99.7067 112.176 99.8 112.829 99.8C113.549 99.8 114.056 99.7133 114.349 99.54C114.656 99.3667 114.809 99.1267 114.809 98.82C114.809 98.5667 114.689 98.38 114.449 98.26C114.222 98.1267 113.916 98.0267 113.529 97.96C113.142 97.8933 112.716 97.8267 112.249 97.76C111.796 97.6933 111.336 97.6067 110.869 97.5C110.402 97.38 109.976 97.2067 109.589 96.98C109.202 96.7533 108.889 96.4467 108.649 96.06C108.422 95.6733 108.309 95.1733 108.309 94.56C108.309 93.88 108.502 93.28 108.889 92.76C109.289 92.24 109.862 91.8333 110.609 91.54C111.356 91.2333 112.249 91.08 113.289 91.08C114.022 91.08 114.769 91.16 115.529 91.32C116.289 91.48 116.922 91.7133 117.429 92.02L116.389 94.24C115.869 93.9333 115.342 93.7267 114.809 93.62C114.289 93.5 113.782 93.44 113.289 93.44C112.596 93.44 112.089 93.5333 111.769 93.72C111.449 93.9067 111.289 94.1467 111.289 94.44C111.289 94.7067 111.402 94.9067 111.629 95.04C111.869 95.1733 112.182 95.28 112.569 95.36C112.956 95.44 113.376 95.5133 113.829 95.58C114.296 95.6333 114.762 95.72 115.229 95.84C115.696 95.96 116.116 96.1333 116.489 96.36C116.876 96.5733 117.189 96.8733 117.429 97.26C117.669 97.6333 117.789 98.1267 117.789 98.74C117.789 99.4067 117.589 100 117.189 100.52C116.789 101.027 116.209 101.427 115.449 101.72C114.702 102.013 113.789 102.16 112.709 102.16ZM119.714 102V91.24H122.834V102H119.714ZM121.274 89.74C120.701 89.74 120.234 89.5733 119.874 89.24C119.514 88.9067 119.334 88.4933 119.334 88C119.334 87.5067 119.514 87.0933 119.874 86.76C120.234 86.4267 120.701 86.26 121.274 86.26C121.847 86.26 122.314 86.42 122.674 86.74C123.034 87.0467 123.214 87.4467 123.214 87.94C123.214 88.46 123.034 88.8933 122.674 89.24C122.327 89.5733 121.861 89.74 121.274 89.74ZM132.27 91.08C133.123 91.08 133.883 91.2533 134.55 91.6C135.23 91.9333 135.763 92.4533 136.15 93.16C136.536 93.8533 136.73 94.7467 136.73 95.84V102H133.61V96.32C133.61 95.4533 133.416 94.8133 133.03 94.4C132.656 93.9867 132.123 93.78 131.43 93.78C130.936 93.78 130.49 93.8867 130.09 94.1C129.703 94.3 129.396 94.6133 129.17 95.04C128.956 95.4667 128.85 96.0133 128.85 96.68V102H125.73V91.24H128.71V94.22L128.15 93.32C128.536 92.6 129.09 92.0467 129.81 91.66C130.53 91.2733 131.35 91.08 132.27 91.08ZM139.558 102V91.24H142.678V102H139.558ZM141.118 89.74C140.544 89.74 140.078 89.5733 139.718 89.24C139.358 88.9067 139.178 88.4933 139.178 88C139.178 87.5067 139.358 87.0933 139.718 86.76C140.078 86.4267 140.544 86.26 141.118 86.26C141.691 86.26 142.158 86.42 142.518 86.74C142.878 87.0467 143.058 87.4467 143.058 87.94C143.058 88.46 142.878 88.8933 142.518 89.24C142.171 89.5733 141.704 89.74 141.118 89.74ZM144.833 102V100.12L151.193 92.6L151.733 93.64H144.973V91.24H154.253V93.12L147.893 100.64L147.333 99.6H154.433V102H144.833Z" fill="white"/>
<circle cx="8.0625" cy="136.062" r="8.0625" fill="white"/>
<circle cx="24.1875" cy="136.062" r="8.0625" fill="white"/>
<circle cx="8.0625" cy="152.188" r="8.0625" fill="white"/>
<circle cx="24.1875" cy="152.188" r="8.0625" fill="white"/>
<circle cx="40.3125" cy="152.188" r="8.0625" fill="white"/>
<circle cx="56.4375" cy="152.188" r="8.0625" fill="white"/>
<circle cx="8.0625" cy="168.312" r="8.0625" fill="white"/>
<circle cx="24.1875" cy="168.312" r="8.0625" fill="white"/>
<circle cx="40.3125" cy="168.312" r="8.0625" fill="white"/>
<circle cx="56.4375" cy="168.312" r="8.0625" fill="white"/>
<circle cx="72.5625" cy="168.312" r="8.0625" fill="white"/>
<circle cx="88.6875" cy="168.312" r="8.0625" fill="white"/>
<circle cx="233.812" cy="168.312" r="8.0625" fill="white"/>
<circle cx="249.938" cy="168.312" r="8.0625" fill="white"/>
<circle cx="8.0625" cy="184.438" r="8.0625" fill="white"/>
<circle cx="24.1875" cy="184.438" r="8.0625" fill="white"/>
<circle cx="40.3125" cy="184.438" r="8.0625" fill="white"/>
<circle cx="56.4375" cy="184.438" r="8.0625" fill="white"/>
<circle cx="72.5625" cy="184.438" r="8.0625" fill="white"/>
<circle cx="88.6875" cy="184.438" r="8.0625" fill="white"/>
<circle cx="104.812" cy="184.438" r="8.0625" fill="white"/>
<circle cx="120.938" cy="184.438" r="8.0625" fill="white"/>
<circle cx="169.312" cy="184.438" r="8.0625" fill="white"/>
<circle cx="185.438" cy="184.438" r="8.0625" fill="white"/>
<circle cx="217.688" cy="184.438" r="8.0625" fill="white"/>
<circle cx="233.812" cy="184.438" r="8.0625" fill="white"/>
<circle cx="249.938" cy="184.438" r="8.0625" fill="white"/>
<circle cx="266.062" cy="184.438" r="8.0625" fill="white"/>
<circle cx="298.312" cy="184.438" r="8.0625" fill="white"/>
<circle cx="314.438" cy="184.438" r="8.0625" fill="white"/>
<circle cx="362.812" cy="184.438" r="8.0625" fill="white"/>
<circle cx="378.938" cy="184.438" r="8.0625" fill="white"/>
<circle cx="8.0625" cy="200.562" r="8.0625" fill="white"/>
<circle cx="24.1875" cy="200.562" r="8.0625" fill="white"/>
<circle cx="40.3125" cy="200.562" r="8.0625" fill="white"/>
<circle cx="56.4375" cy="200.562" r="8.0625" fill="white"/>
<circle cx="72.5625" cy="200.562" r="8.0625" fill="white"/>
<circle cx="88.6875" cy="200.562" r="8.0625" fill="white"/>
<circle cx="104.812" cy="200.562" r="8.0625" fill="white"/>
<circle cx="120.938" cy="200.562" r="8.0625" fill="white"/>
<circle cx="137.062" cy="200.562" r="8.0625" fill="white"/>
<circle cx="217.688" cy="200.562" r="8.0625" fill="white"/>
<circle cx="233.812" cy="200.562" r="8.0625" fill="white"/>
<circle cx="249.938" cy="200.562" r="8.0625" fill="white"/>
<circle cx="266.062" cy="200.562" r="8.0625" fill="white"/>
<circle cx="346.688" cy="200.562" r="8.0625" fill="white"/>
<circle cx="362.812" cy="200.562" r="8.0625" fill="white"/>
<circle cx="378.938" cy="200.562" r="8.0625" fill="white"/>
<circle cx="8.0625" cy="216.688" r="8.0625" fill="white"/>
<circle cx="24.1875" cy="216.688" r="8.0625" fill="white"/>
<circle cx="40.3125" cy="216.688" r="8.0625" fill="white"/>
<circle cx="56.4375" cy="216.688" r="8.0625" fill="white"/>
<circle cx="72.5625" cy="216.688" r="8.0625" fill="white"/>
<circle cx="88.6875" cy="216.688" r="8.0625" fill="white"/>
<circle cx="104.812" cy="216.688" r="8.0625" fill="white"/>
<circle cx="120.938" cy="216.688" r="8.0625" fill="white"/>
<circle cx="137.062" cy="216.688" r="8.0625" fill="white"/>
<circle cx="153.188" cy="216.688" r="8.0625" fill="white"/>
<circle cx="169.312" cy="216.688" r="8.0625" fill="white"/>
<circle cx="233.812" cy="216.688" r="8.0625" fill="white"/>
<circle cx="249.938" cy="216.688" r="8.0625" fill="white"/>
<circle cx="314.438" cy="216.688" r="8.0625" fill="white"/>
<circle cx="330.562" cy="216.688" r="8.0625" fill="white"/>
<circle cx="346.688" cy="216.688" r="8.0625" fill="white"/>
<circle cx="362.812" cy="216.688" r="8.0625" fill="white"/>
<circle cx="378.938" cy="216.688" r="8.0625" fill="white"/>
<circle cx="8.0625" cy="232.812" r="8.0625" fill="white"/>
<circle cx="24.1875" cy="232.812" r="8.0625" fill="white"/>
<circle cx="40.3125" cy="232.812" r="8.0625" fill="white"/>
<circle cx="56.4375" cy="232.812" r="8.0625" fill="white"/>
<circle cx="72.5625" cy="232.812" r="8.0625" fill="white"/>
<circle cx="88.6875" cy="232.812" r="8.0625" fill="white"/>
<circle cx="104.812" cy="232.812" r="8.0625" fill="white"/>
<circle cx="120.938" cy="232.812" r="8.0625" fill="white"/>
<circle cx="137.062" cy="232.812" r="8.0625" fill="white"/>
<circle cx="153.188" cy="232.812" r="8.0625" fill="white"/>
<circle cx="169.312" cy="232.812" r="8.0625" fill="white"/>
<circle cx="185.438" cy="232.812" r="8.0625" fill="white"/>
<circle cx="201.562" cy="232.812" r="8.0625" fill="white"/>
<circle cx="282.188" cy="232.812" r="8.0625" fill="white"/>
<circle cx="298.312" cy="232.812" r="8.0625" fill="white"/>
<circle cx="314.438" cy="232.812" r="8.0625" fill="white"/>
<circle cx="330.562" cy="232.812" r="8.0625" fill="white"/>
<circle cx="346.688" cy="232.812" r="8.0625" fill="white"/>
<circle cx="362.812" cy="232.812" r="8.0625" fill="white"/>
<circle cx="378.938" cy="232.812" r="8.0625" fill="white"/>
<rect x="217.862" y="111.565" width="120.665" height="133.453"/>
<g style="mix-blend-mode:multiply" opacity="0.5">
<rect x="218.45" y="103.475" width="120.842" height="228.86"/>
</g>
<rect x="193.481" y="103" width="126.541" height="253.151"/>
<mask id="mask0_445_964" style="mask-type:alpha" maskUnits="userSpaceOnUse" x="197" y="108" width="112" height="243">
<path d="M225.853 108.773C224.348 108.889 223.027 109.172 221.878 109.626C219.385 110.611 217.348 112.575 216.047 115.247C214.974 117.451 214.426 119.863 214.011 124.204C213.86 125.783 197.915 318.588 197.789 320.36C197.646 322.366 197.646 325.1 197.789 326.331C198.273 330.507 200.072 333.738 202.998 335.687C204.683 336.809 206.539 337.472 209.834 338.131C211.193 338.403 272.621 349.54 274.428 349.842C277.963 350.434 280.084 350.508 281.949 350.104C284.949 349.454 287.286 347.59 288.743 344.686C289.798 342.585 290.352 340.196 290.776 335.932C290.903 334.659 308.166 135.769 308.623 130.31C309.066 125.029 309.048 122.634 308.548 120.307C307.791 116.787 305.786 114.036 302.93 112.603C301.767 112.019 300.353 111.601 298.713 111.355C296.944 111.09 295.757 111.025 287.959 110.76C281.924 110.555 282.249 110.545 281.777 110.96C281.56 111.15 281.352 111.527 281.259 111.898C281.234 111.996 281.152 112.561 281.076 113.153C280.831 115.063 280.523 116.037 279.84 117.058C279.139 118.107 278.305 118.834 277.245 119.324C276.595 119.624 276.043 119.754 275.208 119.8C274.519 119.839 248.592 118.812 246.914 118.679C245.888 118.598 245.4 118.484 244.743 118.173C243.452 117.559 242.526 116.439 242.042 114.903C241.78 114.073 241.721 113.435 241.74 111.651C241.758 110.03 241.757 110.022 241.591 109.731C241.307 109.236 241.113 109.162 239.934 109.096C237.981 108.986 228.929 108.699 227.746 108.709C227.093 108.715 226.241 108.743 225.853 108.773Z" fill="black"/>
</mask>
<g mask="url(#mask0_445_964)">
<rect x="196.296" y="107.957" width="114.2" height="244.724"/>
</g>
<g clip-path="url(#clip1_445_964)">
<path d="M94.678 124H23.5147C23.2553 124 22.999 124 22.7403 124.001C22.5238 124.003 22.3089 124.007 22.0903 124.01C21.6153 124.016 21.1414 124.057 20.6727 124.135C20.2048 124.214 19.7514 124.363 19.3281 124.577C18.9053 124.793 18.5189 125.074 18.1831 125.409C17.8455 125.743 17.564 126.129 17.3496 126.552C17.1346 126.975 16.9855 127.427 16.9075 127.895C16.8287 128.362 16.7864 128.834 16.7807 129.307C16.7742 129.523 16.7735 129.74 16.77 129.957V146.262C16.7735 146.481 16.7742 146.693 16.7807 146.912C16.7864 147.385 16.8287 147.857 16.9075 148.324C16.9853 148.792 17.1344 149.245 17.3496 149.667C17.5639 150.089 17.8454 150.474 18.1831 150.806C18.5177 151.143 18.9042 151.423 19.3281 151.637C19.7514 151.852 20.2047 152.002 20.6727 152.082C21.1415 152.159 21.6153 152.201 22.0903 152.207C22.3089 152.212 22.5238 152.215 22.7403 152.215C22.999 152.216 23.2554 152.216 23.5147 152.216H94.678C94.9322 152.216 95.1906 152.216 95.4448 152.215C95.6604 152.215 95.8814 152.212 96.0969 152.207C96.571 152.201 97.044 152.16 97.5117 152.082C97.9813 152.002 98.4362 151.852 98.8616 151.637C99.285 151.423 99.6713 151.142 100.006 150.806C100.342 150.473 100.624 150.088 100.841 149.667C101.055 149.244 101.203 148.791 101.279 148.324C101.358 147.857 101.402 147.385 101.411 146.912C101.413 146.693 101.413 146.481 101.413 146.262C101.419 146.005 101.419 145.75 101.419 145.49V130.727C101.419 130.468 101.419 130.212 101.413 129.957C101.413 129.74 101.413 129.523 101.411 129.307C101.402 128.834 101.358 128.362 101.279 127.895C101.202 127.428 101.055 126.975 100.841 126.552C100.405 125.704 99.7123 125.013 98.8616 124.577C98.4362 124.364 97.9812 124.214 97.5117 124.135C97.044 124.057 96.5711 124.015 96.0969 124.01C95.8814 124.007 95.6604 124.003 95.4448 124.001C95.1906 124 94.9322 124 94.678 124V124Z" fill="black"/>
<path d="M22.7437 151.599C22.5281 151.599 22.3178 151.596 22.104 151.591C21.661 151.586 21.2191 151.547 20.7818 151.476C20.374 151.406 19.979 151.276 19.6098 151.09C19.244 150.905 18.9103 150.663 18.6216 150.373C18.3287 150.086 18.0848 149.753 17.8997 149.388C17.7125 149.02 17.583 148.626 17.5156 148.219C17.4428 147.781 17.4034 147.339 17.3978 146.896C17.3933 146.747 17.3875 146.252 17.3875 146.252V129.957C17.3875 129.957 17.3937 129.469 17.3978 129.326C17.4032 128.883 17.4424 128.442 17.5149 128.005C17.5824 127.597 17.7121 127.202 17.8994 126.833C18.0838 126.467 18.3263 126.134 18.6175 125.846C18.9083 125.556 19.243 125.312 19.6095 125.125C19.9778 124.94 20.3721 124.81 20.779 124.742C21.2177 124.67 21.6612 124.631 22.1057 124.626L22.744 124.617H95.4412L96.0871 124.626C96.5276 124.631 96.967 124.67 97.4017 124.741C97.8128 124.81 98.2111 124.941 98.5837 125.127C99.3178 125.505 99.9152 126.101 100.292 126.834C100.476 127.201 100.604 127.593 100.671 127.997C100.744 128.438 100.785 128.883 100.794 129.329C100.796 129.529 100.796 129.743 100.796 129.957C100.801 130.221 100.801 130.473 100.801 130.727V145.49C100.801 145.746 100.801 145.996 100.796 146.249C100.796 146.478 100.796 146.688 100.793 146.904C100.785 147.343 100.744 147.779 100.672 148.212C100.606 148.622 100.477 149.019 100.29 149.39C100.104 149.751 99.8611 150.081 99.5716 150.367C99.2826 150.659 98.9483 150.903 98.5817 151.089C98.2101 151.276 97.8123 151.407 97.4017 151.476C96.9645 151.548 96.5225 151.586 96.0795 151.591C95.8723 151.596 95.6553 151.599 95.4447 151.599L94.6779 151.6L22.7437 151.599Z" fill="black"/>
<path d="M34.2912 138.32C34.2988 137.732 34.4556 137.154 34.7471 136.642C35.0385 136.13 35.4551 135.7 35.9582 135.391C35.6386 134.936 35.217 134.562 34.727 134.298C34.2369 134.033 33.6917 133.887 33.1349 133.869C31.947 133.745 30.7954 134.578 30.1901 134.578C29.5731 134.578 28.6411 133.882 27.6375 133.902C26.9883 133.923 26.3557 134.111 25.8012 134.449C25.2467 134.786 24.7892 135.261 24.4734 135.827C23.1053 138.189 24.1258 141.66 25.4363 143.569C26.092 144.504 26.8583 145.548 27.8609 145.511C28.8421 145.471 29.2086 144.887 30.393 144.887C31.5664 144.887 31.9102 145.511 32.9332 145.488C33.9861 145.471 34.6494 144.549 35.2821 143.605C35.7532 142.939 36.1157 142.203 36.3562 141.423C35.7445 141.165 35.2225 140.734 34.8553 140.182C34.4881 139.63 34.2919 138.983 34.2912 138.32Z" fill="white"/>
<path d="M32.3588 132.614C32.9329 131.926 33.2157 131.043 33.1472 130.151C32.2702 130.243 31.46 130.661 30.8782 131.322C30.5938 131.645 30.3759 132.02 30.2371 132.427C30.0982 132.834 30.0412 133.264 30.0692 133.693C30.5079 133.698 30.9418 133.603 31.3384 133.416C31.7351 133.229 32.0839 132.955 32.3588 132.614Z" fill="white"/>
<path d="M46.6942 143.145H43.3459L42.5418 145.512H41.1235L44.295 136.752H45.7685L48.94 145.512H47.4976L46.6942 143.145ZM43.6926 142.052H46.3468L45.0384 138.209H45.0018L43.6926 142.052Z" fill="white"/>
<path d="M55.7892 142.319C55.7892 144.304 54.724 145.579 53.1165 145.579C52.7092 145.6 52.3043 145.507 51.9479 145.309C51.5915 145.111 51.2981 144.818 51.1014 144.462H51.071V147.625H49.7563V139.126H51.0288V140.188H51.053C51.2588 139.833 51.5572 139.541 51.9163 139.342C52.2753 139.144 52.6818 139.046 53.0923 139.059C54.7177 139.059 55.7892 140.34 55.7892 142.319ZM54.438 142.319C54.438 141.026 53.7679 140.176 52.7455 140.176C51.7411 140.176 51.0654 141.044 51.0654 142.319C51.0654 143.606 51.7411 144.468 52.7455 144.468C53.7679 144.468 54.438 143.624 54.438 142.319Z" fill="white"/>
<path d="M62.8383 142.319C62.8383 144.304 61.773 145.579 60.1655 145.579C59.7583 145.6 59.3533 145.507 58.997 145.309C58.6406 145.111 58.3472 144.818 58.1504 144.462H58.12V147.625H56.8054V139.126H58.0779V140.188H58.1021C58.3079 139.833 58.6062 139.541 58.9653 139.342C59.3244 139.144 59.7308 139.046 60.1413 139.059C61.7668 139.059 62.8383 140.34 62.8383 142.319ZM61.487 142.319C61.487 141.026 60.817 140.176 59.7946 140.176C58.7901 140.176 58.1145 141.044 58.1145 142.319C58.1145 143.606 58.7901 144.468 59.7946 144.468C60.817 144.468 61.4871 143.624 61.4871 142.319H61.487Z" fill="white"/>
<path d="M67.4971 143.072C67.5945 143.94 68.4407 144.511 69.5971 144.511C70.7052 144.511 71.5024 143.94 71.5024 143.157C71.5024 142.477 71.0216 142.07 69.8831 141.791L68.7447 141.517C67.1317 141.129 66.3828 140.377 66.3828 139.156C66.3828 137.645 67.7036 136.606 69.5792 136.606C71.4354 136.606 72.7079 137.645 72.7507 139.156H71.4236C71.3442 138.282 70.6195 137.754 69.5605 137.754C68.5015 137.754 67.7768 138.288 67.7768 139.065C67.7768 139.684 68.2397 140.049 69.3719 140.328L70.3397 140.565C72.1421 140.99 72.8909 141.712 72.8909 142.993C72.8909 144.632 71.5818 145.658 69.4997 145.658C67.5516 145.658 66.2363 144.656 66.1514 143.072L67.4971 143.072Z" fill="white"/>
<path d="M75.7281 137.614V139.126H76.946V140.164H75.7281V143.685C75.7281 144.232 75.972 144.486 76.5073 144.486C76.6519 144.484 76.7963 144.474 76.9398 144.456V145.488C76.6991 145.533 76.4544 145.553 76.2096 145.549C74.913 145.549 74.4073 145.063 74.4073 143.824V140.164H73.4761V139.126H74.4073V137.614H75.7281Z" fill="white"/>
<path d="M77.6514 142.319C77.6514 140.31 78.8382 139.047 80.6888 139.047C82.5457 139.047 83.727 140.31 83.727 142.319C83.727 144.334 82.552 145.591 80.6888 145.591C78.8264 145.591 77.6514 144.334 77.6514 142.319ZM82.3875 142.319C82.3875 140.941 81.7541 140.127 80.6888 140.127C79.6236 140.127 78.9908 140.947 78.9908 142.319C78.9908 143.703 79.6236 144.511 80.6888 144.511C81.7541 144.511 82.3875 143.703 82.3875 142.319H82.3875Z" fill="white"/>
<path d="M84.8108 139.126H86.0646V140.213H86.095C86.1799 139.873 86.3793 139.573 86.6599 139.363C86.9404 139.153 87.2849 139.045 87.6355 139.059C87.787 139.058 87.9381 139.075 88.0859 139.108V140.334C87.8947 140.276 87.6952 140.249 87.4953 140.255C87.3043 140.247 87.1139 140.28 86.9372 140.353C86.7604 140.426 86.6015 140.535 86.4714 140.675C86.3412 140.815 86.2429 140.981 86.1832 141.162C86.1235 141.343 86.1038 141.535 86.1254 141.724V145.512H84.8108L84.8108 139.126Z" fill="white"/>
<path d="M94.1471 143.636C93.9703 144.796 92.838 145.591 91.3894 145.591C89.5263 145.591 88.3699 144.347 88.3699 142.35C88.3699 140.346 89.5325 139.047 91.3341 139.047C93.1061 139.047 94.2203 140.261 94.2203 142.197V142.646H89.6969V142.726C89.676 142.961 89.7056 143.198 89.7835 143.42C89.8614 143.643 89.986 143.847 90.149 144.018C90.3119 144.189 90.5095 144.324 90.7286 144.413C90.9477 144.502 91.1833 144.543 91.4198 144.535C91.7305 144.564 92.0422 144.492 92.3087 144.33C92.5752 144.168 92.7821 143.925 92.8988 143.636L94.1471 143.636ZM89.7031 141.73H92.905C92.9168 141.519 92.8847 141.307 92.8107 141.109C92.7366 140.911 92.6222 140.73 92.4747 140.578C92.3272 140.425 92.1498 140.305 91.9535 140.225C91.7572 140.144 91.5463 140.105 91.3341 140.109C91.1201 140.108 90.9078 140.149 90.7097 140.23C90.5116 140.311 90.3316 140.43 90.1799 140.581C90.0283 140.732 89.9081 140.911 89.8263 141.108C89.7444 141.305 89.7026 141.517 89.7031 141.73V141.73Z" fill="white"/>
<path d="M43.5278 130.159C43.8034 130.139 44.08 130.181 44.3375 130.28C44.5951 130.38 44.8272 130.536 45.0172 130.736C45.2072 130.936 45.3503 131.175 45.4362 131.437C45.5221 131.699 45.5486 131.977 45.5139 132.25C45.5139 133.595 44.7851 134.368 43.5278 134.368H42.0032V130.159H43.5278ZM42.6587 133.773H43.4546C43.6515 133.784 43.8486 133.752 44.0315 133.678C44.2144 133.605 44.3784 133.491 44.5118 133.346C44.6451 133.201 44.7444 133.028 44.8023 132.84C44.8602 132.652 44.8753 132.453 44.8465 132.259C44.8732 132.065 44.8566 131.868 44.7978 131.681C44.739 131.494 44.6395 131.323 44.5064 131.179C44.3734 131.035 44.2101 130.922 44.0283 130.849C43.8464 130.775 43.6505 130.743 43.4546 130.754H42.6587V133.773Z" fill="white"/>
<path d="M46.2544 132.778C46.2344 132.569 46.2583 132.359 46.3247 132.16C46.3911 131.961 46.4985 131.778 46.6399 131.623C46.7813 131.468 46.9537 131.344 47.146 131.259C47.3383 131.174 47.5463 131.13 47.7566 131.13C47.9669 131.13 48.1748 131.174 48.3671 131.259C48.5594 131.344 48.7318 131.468 48.8733 131.623C49.0147 131.778 49.1221 131.961 49.1884 132.16C49.2548 132.359 49.2788 132.569 49.2587 132.778C49.2792 132.987 49.2555 133.198 49.1893 133.397C49.1231 133.597 49.0158 133.78 48.8743 133.935C48.7328 134.091 48.5603 134.215 48.3678 134.3C48.1753 134.385 47.9671 134.429 47.7566 134.429C47.546 134.429 47.3378 134.385 47.1453 134.3C46.9528 134.215 46.7803 134.091 46.6388 133.935C46.4974 133.78 46.3901 133.597 46.3239 133.397C46.2577 133.198 46.234 132.987 46.2544 132.778ZM48.6121 132.778C48.6121 132.09 48.302 131.687 47.7576 131.687C47.2112 131.687 46.9038 132.09 46.9038 132.778C46.9038 133.472 47.2112 133.872 47.7576 133.872C48.302 133.872 48.6122 133.47 48.6122 132.778H48.6121Z" fill="white"/>
<path d="M53.2523 134.368H52.6002L51.9419 132.028H51.8922L51.2366 134.368H50.5907L49.7126 131.191H50.3503L50.9209 133.615H50.9679L51.6227 131.191H52.2258L52.8807 133.615H52.9304L53.4983 131.191H54.1269L53.2523 134.368Z" fill="white"/>
<path d="M54.8655 131.191H55.4706V131.696H55.5176C55.5973 131.515 55.7317 131.363 55.9021 131.261C56.0725 131.16 56.2704 131.114 56.4682 131.13C56.6231 131.118 56.7788 131.142 56.9235 131.198C57.0682 131.255 57.1984 131.343 57.3042 131.456C57.4101 131.57 57.4891 131.706 57.5352 131.854C57.5813 132.002 57.5934 132.158 57.5707 132.311V134.368H56.9421V132.469C56.9421 131.958 56.7196 131.705 56.2547 131.705C56.1495 131.7 56.0444 131.718 55.9468 131.757C55.8491 131.796 55.7611 131.856 55.6889 131.933C55.6167 132.009 55.5618 132.1 55.5282 132.2C55.4946 132.299 55.483 132.405 55.4941 132.51V134.368H54.8655L54.8655 131.191Z" fill="white"/>
<path d="M58.5723 129.951H59.2009V134.368H58.5723V129.951Z" fill="white"/>
<path d="M60.0747 132.778C60.0547 132.57 60.0787 132.359 60.1451 132.16C60.2115 131.961 60.3188 131.778 60.4603 131.623C60.6017 131.468 60.7741 131.344 60.9665 131.259C61.1588 131.174 61.3668 131.13 61.5771 131.13C61.7873 131.13 61.9953 131.174 62.1876 131.259C62.38 131.344 62.5524 131.468 62.6938 131.623C62.8353 131.778 62.9426 131.961 63.009 132.16C63.0754 132.359 63.0994 132.57 63.0794 132.778C63.0998 132.987 63.0761 133.198 63.0099 133.397C62.9436 133.597 62.8363 133.78 62.6948 133.935C62.5533 134.091 62.3808 134.215 62.1883 134.3C61.9958 134.385 61.7876 134.429 61.5771 134.429C61.3665 134.429 61.1583 134.385 60.9658 134.3C60.7733 134.215 60.6007 134.091 60.4593 133.935C60.3178 133.78 60.2105 133.597 60.1442 133.397C60.078 133.198 60.0543 132.987 60.0747 132.778ZM62.4324 132.778C62.4324 132.09 62.1223 131.687 61.5779 131.687C61.0315 131.687 60.7241 132.09 60.7241 132.778C60.7241 133.472 61.0315 133.872 61.5779 133.872C62.1223 133.872 62.4324 133.47 62.4324 132.778H62.4324Z" fill="white"/>
<path d="M63.7412 133.47C63.7412 132.898 64.1681 132.568 64.9259 132.521L65.7888 132.472V132.198C65.7888 131.862 65.5663 131.673 65.1366 131.673C64.7857 131.673 64.5426 131.801 64.4728 132.026H63.8642C63.9284 131.48 64.4431 131.13 65.1657 131.13C65.9642 131.13 66.4146 131.527 66.4146 132.198V134.368H65.8095V133.921H65.7598C65.6588 134.082 65.517 134.212 65.3489 134.3C65.1809 134.387 64.9925 134.429 64.803 134.42C64.6693 134.434 64.5341 134.42 64.4062 134.378C64.2784 134.337 64.1606 134.269 64.0606 134.18C63.9606 134.09 63.8805 133.981 63.8254 133.858C63.7704 133.736 63.7417 133.604 63.7412 133.47ZM65.7888 133.198V132.933L65.0109 132.982C64.5723 133.011 64.3733 133.16 64.3733 133.44C64.3733 133.726 64.622 133.893 64.964 133.893C65.0642 133.903 65.1654 133.893 65.2616 133.863C65.3578 133.833 65.447 133.784 65.524 133.72C65.6009 133.655 65.664 133.575 65.7095 133.486C65.755 133.396 65.782 133.298 65.7888 133.198Z" fill="white"/>
<path d="M67.2407 132.778C67.2407 131.775 67.7581 131.139 68.5629 131.139C68.762 131.13 68.9596 131.177 69.1325 131.276C69.3055 131.374 69.4467 131.52 69.5397 131.696H69.5867V129.951H70.2153V134.368H69.613V133.866H69.5632C69.4631 134.041 69.3169 134.184 69.1406 134.282C68.9643 134.38 68.7645 134.428 68.5629 134.42C67.7526 134.42 67.2407 133.784 67.2407 132.778ZM67.8901 132.778C67.8901 133.452 68.2086 133.857 68.7412 133.857C69.271 133.857 69.5985 133.446 69.5985 132.781C69.5985 132.119 69.2676 131.702 68.7412 131.702C68.212 131.702 67.8901 132.11 67.8901 132.778H67.8901Z" fill="white"/>
<path d="M72.8164 132.778C72.7964 132.569 72.8204 132.359 72.8867 132.16C72.9531 131.961 73.0605 131.778 73.2019 131.623C73.3433 131.468 73.5157 131.344 73.708 131.259C73.9003 131.174 74.1083 131.13 74.3186 131.13C74.5289 131.13 74.7368 131.174 74.9291 131.259C75.1215 131.344 75.2938 131.468 75.4353 131.623C75.5767 131.778 75.6841 131.961 75.7505 132.16C75.8168 132.359 75.8408 132.569 75.8208 132.778C75.8412 132.987 75.8175 133.198 75.7513 133.397C75.6851 133.597 75.5778 133.78 75.4363 133.935C75.2949 134.091 75.1223 134.215 74.9298 134.3C74.7373 134.385 74.5291 134.429 74.3186 134.429C74.1081 134.429 73.8999 134.385 73.7074 134.3C73.5149 134.215 73.3423 134.091 73.2009 133.935C73.0594 133.78 72.9521 133.597 72.8859 133.397C72.8197 133.198 72.796 132.987 72.8164 132.778ZM75.1742 132.778C75.1742 132.09 74.864 131.687 74.3196 131.687C73.7732 131.687 73.4658 132.09 73.4658 132.778C73.4658 133.472 73.7732 133.872 74.3196 133.872C74.864 133.872 75.1742 133.47 75.1742 132.778Z" fill="white"/>
<path d="M76.6641 131.191H77.2692V131.696H77.3162C77.3959 131.515 77.5303 131.363 77.7007 131.261C77.8711 131.16 78.0689 131.114 78.2667 131.13C78.4217 131.118 78.5774 131.142 78.7221 131.198C78.8668 131.255 78.9969 131.343 79.1028 131.456C79.2087 131.57 79.2876 131.706 79.3338 131.854C79.3799 132.002 79.392 132.158 79.3693 132.311V134.368H78.7406V132.469C78.7406 131.958 78.5182 131.705 78.0533 131.705C77.9481 131.7 77.843 131.718 77.7453 131.757C77.6477 131.796 77.5597 131.856 77.4875 131.933C77.4152 132.009 77.3604 132.1 77.3268 132.2C77.2932 132.299 77.2816 132.405 77.2927 132.51V134.368H76.6641V131.191Z" fill="white"/>
<path d="M82.9216 130.401V131.206H83.6117V131.734H82.9216V133.367C82.9216 133.7 83.0591 133.846 83.372 133.846C83.4521 133.845 83.5322 133.841 83.6117 133.831V134.353C83.4988 134.374 83.3845 134.384 83.2698 134.385C82.5707 134.385 82.2923 134.14 82.2923 133.528V131.734H81.7866V131.206H82.2923V130.401H82.9216Z" fill="white"/>
<path d="M84.4702 129.951H85.0933V131.702H85.1431C85.2266 131.519 85.3647 131.366 85.5385 131.264C85.7123 131.162 85.9134 131.117 86.1143 131.133C86.2685 131.124 86.4226 131.15 86.5657 131.208C86.7088 131.266 86.8373 131.355 86.9421 131.468C87.0469 131.581 87.1253 131.716 87.1719 131.862C87.2184 132.009 87.2319 132.164 87.2113 132.317V134.368H86.582V132.472C86.582 131.964 86.3451 131.707 85.9009 131.707C85.7929 131.699 85.6842 131.713 85.5825 131.751C85.4808 131.788 85.3885 131.847 85.3121 131.924C85.2357 132.001 85.177 132.093 85.1402 132.195C85.1034 132.296 85.0893 132.405 85.0989 132.513V134.368H84.4702L84.4702 129.951Z" fill="white"/>
<path d="M90.877 133.51C90.7916 133.801 90.6065 134.052 90.3542 134.22C90.1019 134.388 89.7983 134.462 89.4967 134.429C89.2869 134.435 89.0783 134.395 88.8856 134.312C88.6928 134.229 88.5204 134.105 88.3804 133.949C88.2404 133.793 88.1362 133.609 88.0748 133.408C88.0135 133.208 87.9966 132.997 88.0253 132.79C87.9974 132.582 88.0146 132.37 88.0757 132.169C88.1369 131.968 88.2406 131.783 88.3799 131.626C88.5192 131.468 88.6907 131.343 88.8829 131.257C89.0751 131.172 89.2835 131.128 89.494 131.13C90.3803 131.13 90.915 131.734 90.915 132.731V132.95H88.6657V132.985C88.6558 133.102 88.6705 133.219 88.7088 133.33C88.7471 133.44 88.8081 133.542 88.888 133.627C88.9679 133.713 89.0648 133.781 89.1726 133.827C89.2804 133.873 89.3967 133.897 89.514 133.895C89.6644 133.913 89.8167 133.886 89.9517 133.818C90.0866 133.749 90.198 133.642 90.2718 133.51L90.877 133.51ZM88.6657 132.487H90.2746C90.2825 132.38 90.268 132.273 90.2319 132.172C90.1959 132.072 90.1391 131.979 90.0653 131.902C89.9914 131.825 89.9021 131.763 89.8031 131.722C89.7042 131.681 89.5977 131.661 89.4905 131.664C89.3818 131.662 89.2739 131.683 89.1732 131.724C89.0724 131.764 88.981 131.825 88.9041 131.902C88.8272 131.978 88.7665 132.07 88.7256 132.17C88.6846 132.271 88.6643 132.378 88.6657 132.487H88.6657Z" fill="white"/>
</g>
<g clip-path="url(#clip2_445_964)">
<path d="M108.473 163.75H20.2971C18.3491 163.75 16.77 165.33 16.77 167.278V188.44C16.77 190.388 18.3491 191.967 20.2971 191.967H108.473C110.421 191.967 112 190.388 112 188.44V167.278C112 165.33 110.421 163.75 108.473 163.75Z" fill="black"/>
<path d="M50.2205 170.974C50.2321 171.232 50.1912 171.491 50.1003 171.733C50.0094 171.976 49.8703 172.197 49.6915 172.385C49.4911 172.591 49.2493 172.754 48.9818 172.861C48.7144 172.968 48.4274 173.017 48.1396 173.005C47.8501 173.012 47.5624 172.959 47.2943 172.85C47.0261 172.74 46.7832 172.577 46.5806 172.37C46.1696 171.95 45.9395 171.385 45.9395 170.797C45.9395 170.209 46.1696 169.645 46.5806 169.224C46.8949 168.917 47.2929 168.71 47.7246 168.628C48.1564 168.547 48.6026 168.595 49.0072 168.766C49.2616 168.87 49.4885 169.032 49.6703 169.238L49.2965 169.612C49.1564 169.444 48.9789 169.31 48.778 169.222C48.5772 169.133 48.3586 169.093 48.1396 169.104C47.8631 169.106 47.5913 169.176 47.3479 169.307C47.1045 169.438 46.8969 169.627 46.7434 169.857C46.5898 170.087 46.4949 170.351 46.467 170.626C46.439 170.901 46.4789 171.179 46.5831 171.435C46.6873 171.691 46.8526 171.918 47.0647 172.096C47.2767 172.273 47.529 172.396 47.7994 172.453C48.0699 172.511 48.3504 172.501 48.6162 172.425C48.8821 172.349 49.1253 172.209 49.3247 172.018C49.5401 171.782 49.6651 171.477 49.6774 171.157H48.1396V170.649H50.1923C50.2084 170.757 50.2178 170.865 50.2205 170.974Z" fill="white" stroke="white" stroke-width="0.0606802" stroke-miterlimit="10"/>
<path d="M53.4512 169.21H51.5466V170.551H53.2819V171.058H51.5466V172.399H53.4512V172.921H50.9963V168.688H53.4512V169.21Z" fill="white" stroke="white" stroke-width="0.0606802" stroke-miterlimit="10"/>
<path d="M55.7649 172.921H55.2217V169.21H54.0366V168.688H56.9782V169.21H55.7649V172.921Z" fill="white" stroke="white" stroke-width="0.0606802" stroke-miterlimit="10"/>
<path d="M59.0522 172.921V168.688H59.5954V172.921H59.0522Z" fill="white" stroke="white" stroke-width="0.0606802" stroke-miterlimit="10"/>
<path d="M62.0078 172.921H61.4646V169.21H60.2795V168.688H63.1858V169.21H62.0078V172.921Z" fill="white" stroke="white" stroke-width="0.0606802" stroke-miterlimit="10"/>
<path d="M68.6951 172.371C68.4913 172.574 68.2494 172.736 67.9831 172.847C67.7168 172.957 67.4314 173.014 67.1432 173.014C66.8549 173.014 66.5695 172.957 66.3032 172.847C66.0369 172.736 65.795 172.574 65.5913 172.371C65.1925 171.947 64.9705 171.387 64.9705 170.805C64.9705 170.223 65.1925 169.662 65.5913 169.239C65.7906 169.029 66.0318 168.863 66.2991 168.753C66.5664 168.642 66.854 168.589 67.1432 168.597C67.432 168.592 67.7186 168.647 67.9855 168.757C68.2524 168.867 68.4939 169.031 68.6951 169.239C68.8979 169.445 69.0573 169.69 69.164 169.959C69.2706 170.228 69.3222 170.515 69.3158 170.805C69.3251 171.094 69.2748 171.383 69.168 171.652C69.0612 171.921 68.9002 172.166 68.6951 172.371ZM65.9934 172.018C66.1436 172.17 66.3227 172.291 66.52 172.374C66.7174 172.456 66.9292 172.499 67.1432 172.499C67.3571 172.499 67.5689 172.456 67.7663 172.374C67.9637 172.291 68.1427 172.17 68.293 172.018C68.5974 171.687 68.7663 171.254 68.7663 170.805C68.7663 170.355 68.5974 169.922 68.293 169.591C68.1427 169.439 67.9637 169.318 67.7663 169.236C67.5689 169.153 67.3571 169.111 67.1432 169.111C66.9292 169.111 66.7174 169.153 66.52 169.236C66.3227 169.318 66.1436 169.439 65.9934 169.591C65.689 169.922 65.52 170.355 65.52 170.805C65.52 171.254 65.689 171.687 65.9934 172.018Z" fill="white" stroke="white" stroke-width="0.0606802" stroke-miterlimit="10"/>
<path d="M70.0847 172.921V168.688H70.7407L72.8005 171.982V171.164V168.688H73.3437V172.921H72.7794L70.6279 169.471V170.282V172.921H70.0847Z" fill="white" stroke="white" stroke-width="0.0606802" stroke-miterlimit="10"/>
<path d="M64.8364 179.093C64.2421 179.095 63.6615 179.272 63.1681 179.603C62.6747 179.935 62.2907 180.405 62.0645 180.955C61.8384 181.504 61.7803 182.109 61.8976 182.691C62.0149 183.274 62.3024 183.809 62.7236 184.228C63.1448 184.647 63.681 184.932 64.2642 185.047C64.8473 185.161 65.4514 185.1 66 184.872C66.5485 184.643 67.017 184.257 67.346 183.762C67.675 183.267 67.8499 182.685 67.8485 182.091C67.8543 181.695 67.7802 181.301 67.6307 180.934C67.4812 180.567 67.2593 180.233 66.9782 179.953C66.6972 179.674 66.3627 179.453 65.9948 179.306C65.6268 179.158 65.2329 179.085 64.8364 179.093ZM64.8364 183.911C64.4721 183.937 64.1086 183.852 63.7931 183.668C63.4776 183.484 63.2247 183.21 63.0673 182.88C62.9099 182.551 62.8552 182.181 62.9104 181.82C62.9657 181.459 63.1282 181.123 63.3769 180.856C63.6256 180.589 63.949 180.402 64.3051 180.321C64.6611 180.24 65.0334 180.268 65.3734 180.401C65.7134 180.534 66.0055 180.767 66.2116 181.068C66.4178 181.369 66.5285 181.726 66.5294 182.091C66.5408 182.322 66.5057 182.554 66.4262 182.771C66.3468 182.989 66.2245 183.189 66.0668 183.358C65.909 183.528 65.7188 183.664 65.5075 183.759C65.2962 183.854 65.068 183.906 64.8364 183.911ZM58.262 179.093C57.6677 179.095 57.0871 179.272 56.5937 179.603C56.1003 179.935 55.7163 180.405 55.4901 180.955C55.264 181.504 55.2059 182.109 55.3232 182.691C55.4405 183.274 55.728 183.809 56.1492 184.228C56.5705 184.647 57.1066 184.932 57.6898 185.047C58.273 185.161 58.877 185.1 59.4256 184.872C59.9741 184.643 60.4426 184.257 60.7716 183.762C61.1006 183.267 61.2755 182.685 61.2741 182.091C61.2799 181.695 61.2058 181.301 61.0563 180.934C60.9068 180.567 60.6849 180.233 60.4038 179.953C60.1228 179.674 59.7883 179.453 59.4204 179.306C59.0524 179.158 58.6585 179.085 58.262 179.093ZM58.262 183.911C57.8977 183.937 57.5342 183.852 57.2187 183.668C56.9032 183.484 56.6503 183.21 56.4929 182.88C56.3355 182.551 56.2808 182.181 56.336 181.82C56.3913 181.459 56.5538 181.123 56.8025 180.856C57.0512 180.589 57.3747 180.402 57.7307 180.321C58.0867 180.24 58.459 180.268 58.799 180.401C59.139 180.534 59.4311 180.767 59.6372 181.068C59.8434 181.369 59.9541 181.726 59.955 182.091C59.9664 182.322 59.9313 182.554 59.8518 182.771C59.7724 182.989 59.6501 183.189 59.4924 183.358C59.3346 183.528 59.1444 183.664 58.9331 183.759C58.7218 183.854 58.4936 183.906 58.262 183.911ZM50.4461 180.017V181.287H53.4935C53.4457 181.885 53.1971 182.449 52.7881 182.888C52.4824 183.2 52.1147 183.443 51.7089 183.604C51.303 183.764 50.868 183.838 50.432 183.819C49.534 183.819 48.6728 183.463 48.0378 182.828C47.4028 182.193 47.0461 181.331 47.0461 180.433C47.0461 179.535 47.4028 178.674 48.0378 178.039C48.6728 177.404 49.534 177.047 50.432 177.047C51.2929 177.035 52.1242 177.362 52.7457 177.957L53.6416 177.062C53.2212 176.646 52.722 176.318 52.1733 176.098C51.6246 175.877 51.0374 175.768 50.4461 175.778C49.819 175.753 49.1934 175.856 48.6069 176.079C48.0203 176.302 47.4848 176.641 47.0325 177.076C46.5802 177.511 46.2203 178.033 45.9745 178.611C45.7287 179.188 45.6021 179.809 45.6021 180.437C45.6021 181.064 45.7287 181.686 45.9745 182.263C46.2203 182.841 46.5802 183.362 47.0325 183.797C47.4848 184.233 48.0203 184.572 48.6069 184.795C49.1934 185.018 49.819 185.121 50.4461 185.096C51.0495 185.12 51.6512 185.016 52.2117 184.792C52.7721 184.567 53.2787 184.226 53.698 183.791C54.4388 182.977 54.8335 181.907 54.7985 180.807C54.801 180.543 54.7798 180.278 54.735 180.017H50.4461ZM82.4081 181.005C82.2242 180.464 81.8801 179.991 81.4216 179.65C80.9631 179.308 80.4117 179.114 79.8404 179.093C79.4546 179.092 79.0727 179.171 78.7183 179.323C78.3639 179.476 78.0447 179.7 77.7802 179.981C77.5158 180.262 77.3117 180.594 77.1808 180.957C77.0498 181.32 76.9947 181.706 77.0188 182.091C77.0128 182.735 77.2152 183.364 77.5959 183.883C77.9766 184.402 78.5151 184.785 79.131 184.973C79.7469 185.161 80.4071 185.145 81.013 184.927C81.6189 184.709 82.138 184.3 82.4928 183.763L81.4699 183.058C81.3175 183.312 81.1012 183.522 80.8426 183.666C80.584 183.811 80.292 183.886 79.9956 183.883C79.6899 183.895 79.3875 183.815 79.1281 183.653C78.8688 183.49 78.6646 183.253 78.5425 182.973L82.5563 181.315L82.4081 181.005ZM78.3168 182.006C78.3025 181.787 78.332 181.568 78.4037 181.36C78.4754 181.152 78.5878 180.961 78.7343 180.798C78.8808 180.634 79.0584 180.501 79.2569 180.407C79.4553 180.313 79.6705 180.26 79.8898 180.25C80.1171 180.236 80.3434 180.29 80.5404 180.404C80.7374 180.518 80.8964 180.688 80.9973 180.892L78.3168 182.006ZM75.0578 184.913H76.3769V176.095H75.0578V184.913ZM72.8992 179.763H72.8499C72.6528 179.539 72.4096 179.36 72.1369 179.238C71.8642 179.116 71.5684 179.055 71.2697 179.058C70.4989 179.095 69.7719 179.428 69.2396 179.987C68.7072 180.545 68.4103 181.288 68.4103 182.059C68.4103 182.831 68.7072 183.573 69.2396 184.132C69.7719 184.691 70.4989 185.023 71.2697 185.061C71.5688 185.067 71.8655 185.007 72.1387 184.885C72.4118 184.763 72.6547 184.582 72.8499 184.355H72.8992V184.786C72.8992 185.936 72.2855 186.549 71.298 186.549C70.9681 186.542 70.6478 186.437 70.3777 186.247C70.1077 186.058 69.9001 185.792 69.7813 185.484L68.6386 185.957C68.8498 186.487 69.2172 186.941 69.692 187.259C70.1669 187.576 70.7269 187.742 71.298 187.734C72.8428 187.734 74.1196 186.824 74.1196 184.609V179.269H72.8992V179.763ZM71.3826 183.911C70.9204 183.882 70.4866 183.678 70.1695 183.341C69.8524 183.003 69.6759 182.558 69.6759 182.095C69.6759 181.632 69.8524 181.186 70.1695 180.848C70.4866 180.511 70.9204 180.307 71.3826 180.278C71.6085 180.288 71.8301 180.343 72.0343 180.44C72.2385 180.537 72.421 180.675 72.5711 180.844C72.7211 181.013 72.8356 181.21 72.9078 181.425C72.9799 181.639 73.0082 181.866 72.9909 182.091C73.0102 182.317 72.9833 182.545 72.912 182.761C72.8408 182.976 72.7265 183.175 72.5761 183.345C72.4258 183.515 72.2425 183.653 72.0374 183.75C71.8322 183.848 71.6095 183.902 71.3826 183.911ZM88.5875 176.095H85.4273V184.913H86.7464V181.569H88.5875C88.9634 181.596 89.3409 181.545 89.6964 181.42C90.0519 181.295 90.3777 181.098 90.6536 180.841C90.9295 180.584 91.1496 180.273 91.3 179.927C91.4505 179.582 91.5282 179.209 91.5282 178.832C91.5282 178.455 91.4505 178.082 91.3 177.737C91.1496 177.391 90.9295 177.08 90.6536 176.823C90.3777 176.567 90.0519 176.369 89.6964 176.244C89.3409 176.119 88.9634 176.068 88.5875 176.095ZM88.5875 180.328H86.7464V177.323H88.6157C88.8139 177.323 89.0103 177.362 89.1934 177.437C89.3765 177.513 89.543 177.625 89.6831 177.765C89.8233 177.905 89.9345 178.071 90.0104 178.254C90.0862 178.438 90.1253 178.634 90.1253 178.832C90.1253 179.03 90.0862 179.227 90.0104 179.41C89.9345 179.593 89.8233 179.759 89.6831 179.9C89.543 180.04 89.3765 180.151 89.1934 180.227C89.0103 180.303 88.8139 180.342 88.6157 180.342L88.5875 180.328ZM96.7279 179.065C96.2475 179.035 95.769 179.147 95.3515 179.387C94.934 179.626 94.5959 179.983 94.3789 180.412L95.5428 180.899C95.6604 180.687 95.8369 180.513 96.051 180.4C96.265 180.286 96.5075 180.236 96.7491 180.257C96.9165 180.237 97.0862 180.251 97.2482 180.298C97.4102 180.345 97.5612 180.423 97.6926 180.529C97.8239 180.635 97.9328 180.766 98.0131 180.914C98.0933 181.062 98.1432 181.225 98.1599 181.393V181.477C97.7357 181.254 97.2635 181.138 96.7843 181.139C95.5287 181.139 94.2449 181.844 94.2449 183.128C94.2573 183.401 94.3244 183.669 94.4423 183.915C94.5601 184.161 94.7263 184.382 94.931 184.563C95.1356 184.744 95.3745 184.881 95.6335 184.968C95.8925 185.055 96.1663 185.089 96.4387 185.068C96.7697 185.086 97.0996 185.016 97.3946 184.865C97.6897 184.714 97.9392 184.487 98.1175 184.207H98.1599V184.913H99.4296V181.52C99.4296 179.975 98.2586 179.079 96.7561 179.079L96.7279 179.065ZM96.5657 183.897C96.1354 183.897 95.5358 183.678 95.5358 183.149C95.5358 182.444 96.2835 182.204 96.9466 182.204C97.3656 182.194 97.7798 182.296 98.1458 182.5C98.1015 182.883 97.9198 183.237 97.6345 183.497C97.3491 183.756 96.9794 183.903 96.5939 183.911L96.5657 183.897ZM104.057 179.269L102.548 183.093H102.505L100.939 179.269H99.5284L101.877 184.616L100.537 187.586H101.913L105.524 179.269H104.057ZM92.2062 184.913H93.5183V176.095H92.2062V184.913Z" fill="white"/>
<path d="M24.1344 169.069C23.9019 169.344 23.7833 169.697 23.8028 170.057V185.66C23.7788 186.02 23.898 186.375 24.1344 186.648L24.1838 186.704L32.9238 177.964V177.753L24.1838 169.02L24.1344 169.069Z" fill="url(#paint0_linear_445_964)"/>
<path d="M35.816 180.878L32.9238 177.965V177.753L35.816 174.84L35.8795 174.882L39.343 176.843C40.3306 177.4 40.3306 178.317 39.343 178.882L35.8936 180.843L35.816 180.878Z" fill="url(#paint1_linear_445_964)"/>
<path d="M35.9007 180.835L32.9239 177.859L24.1345 186.648C24.3339 186.825 24.589 186.928 24.8557 186.937C25.1224 186.946 25.3839 186.861 25.5947 186.697L35.9007 180.835Z" fill="url(#paint2_linear_445_964)"/>
<path d="M35.9007 174.882L25.5947 169.027C25.3852 168.861 25.124 168.774 24.8569 168.782C24.5898 168.79 24.3341 168.892 24.1345 169.069L32.9239 177.859L35.9007 174.882Z" fill="url(#paint3_linear_445_964)"/>
<path opacity="0.2" d="M35.8161 180.772L25.5947 186.592C25.3915 186.745 25.1439 186.828 24.8893 186.828C24.6347 186.828 24.3871 186.745 24.1839 186.592L24.1345 186.641L24.1839 186.697C24.3871 186.851 24.6347 186.934 24.8893 186.934C25.1439 186.934 25.3915 186.851 25.5947 186.697L35.9007 180.835L35.8161 180.772Z" fill="black"/>
<path opacity="0.12" d="M24.1345 186.549C23.9079 186.27 23.7969 185.914 23.8241 185.555V185.66C23.8001 186.021 23.9193 186.375 24.1557 186.648L24.205 186.599L24.1345 186.549Z" fill="black"/>
<path opacity="0.12" d="M39.343 178.776L35.8159 180.772L35.8794 180.835L39.343 178.874C39.5474 178.788 39.7248 178.648 39.8563 178.469C39.9879 178.29 40.0689 178.08 40.0907 177.859C40.0466 178.059 39.9559 178.247 39.8261 178.406C39.6962 178.566 39.5307 178.692 39.343 178.776Z" fill="black"/>
<path opacity="0.25" d="M25.5947 169.126L39.3431 176.942C39.5309 177.025 39.6963 177.152 39.8262 177.311C39.9561 177.47 40.0467 177.658 40.0908 177.859C40.069 177.638 39.9881 177.427 39.8565 177.248C39.7249 177.069 39.5476 176.929 39.3431 176.843L25.5947 169.027C24.6142 168.463 23.803 168.928 23.803 170.057V170.163C23.8241 169.034 24.6142 168.568 25.5947 169.126Z" fill="white"/>
</g>
<path d="M54.0406 31.4699C54.0406 32.859 53.5036 33.9375 52.4297 34.7056C51.3557 35.4737 49.9996 35.8586 48.3649 35.8586C46.5537 35.8586 44.9191 35.4537 43.4592 34.6457V32.7646C45.3505 33.8159 47.0743 34.3424 48.6289 34.3424C49.5882 34.3424 50.3928 34.1463 51.0408 33.756C51.6888 33.3656 52.0128 32.7646 52.0128 31.9565C52.0128 31.2684 51.7416 30.7 51.2028 30.2479C50.6622 29.7958 49.8175 29.3891 48.6689 29.0241L47.757 28.7209C46.1078 28.1689 44.9792 27.6115 44.3712 27.0522C43.7632 26.493 43.4592 25.7612 43.4592 24.8588C43.4592 23.457 43.9835 22.3748 45.0301 21.614C46.0768 20.8532 47.3656 20.4719 48.8928 20.4719C50.2034 20.4719 51.5814 20.7624 53.0286 21.3417V23.0612C51.2301 22.3476 49.7975 21.9899 48.7308 21.9899C47.8261 21.9899 47.058 22.1751 46.43 22.5455C45.802 22.9159 45.487 23.4988 45.487 24.2941C45.487 24.9151 45.7164 25.3726 46.1769 25.6686C46.6357 25.9646 47.5349 26.3368 48.8728 26.7817L49.8048 27.0649C51.3047 27.5497 52.386 28.1562 53.0486 28.8843C53.7112 29.6124 54.0425 30.4749 54.0425 31.4717L54.0406 31.4699Z" fill="white"/>
<path d="M58.2977 22.755H56.3718V20.834H58.2977V22.755ZM58.2977 35.4944H56.3718V24.776H58.2977V35.4925V35.4944Z" fill="white"/>
<path d="M60.5642 28.3954C60.5642 27.9632 60.6425 27.5402 60.7972 27.1207C60.9519 26.7031 61.1886 26.2909 61.5071 25.8878C61.8239 25.4829 62.2771 25.1561 62.8651 24.9073C63.453 24.6586 64.1393 24.5333 64.922 24.5333C65.8012 24.5333 66.5639 24.6949 67.2119 25.0181C67.9692 24.2101 68.8193 23.8052 69.7658 23.8052V25.2614C69.1305 25.2614 68.5826 25.3831 68.1239 25.6246C68.8939 26.3654 69.2798 27.2896 69.2798 28.3954C69.2798 28.8675 69.1961 29.3251 69.0268 29.7699C68.8575 30.2148 68.6081 30.6288 68.2768 31.0137C67.9455 31.3986 67.4886 31.7055 66.908 31.9343C66.3273 32.1631 65.6647 32.2775 64.922 32.2775C64.4214 32.2775 63.9554 32.2175 63.524 32.0959C63.2801 32.3247 63.16 32.5753 63.16 32.844C63.16 33.1817 63.3183 33.4268 63.6369 33.5812C63.9536 33.7355 64.4578 33.8808 65.1477 34.0151L67.0336 34.3783C67.3448 34.4328 67.6051 34.4872 67.8145 34.5399C68.0238 34.5944 68.2732 34.6852 68.5644 34.8123C68.8557 34.9412 69.0923 35.0846 69.2743 35.2462C69.4564 35.4078 69.6147 35.6239 69.7513 35.8926C69.886 36.1614 69.9533 36.4646 69.9533 36.8023C69.9533 38.5418 68.1767 39.4116 64.6217 39.4116C63.149 39.4116 61.8311 39.2572 60.668 38.9467V37.269C62.3299 37.7265 63.9791 37.9571 65.6137 37.9571C67.2484 37.9571 68.0456 37.6194 68.0456 36.9458C68.0456 36.8641 68.0329 36.7842 68.0056 36.7025C67.9783 36.6207 67.9382 36.5499 67.8836 36.49C67.829 36.4301 67.7762 36.3756 67.7216 36.3284C67.667 36.2812 67.596 36.2376 67.5087 36.1977C67.4213 36.1577 67.3466 36.1232 67.2866 36.096C67.2265 36.0688 67.1446 36.0452 67.0427 36.0252C66.9407 36.0052 66.8697 35.987 66.8297 35.9743C66.7896 35.9616 66.6804 35.9398 66.5057 35.9144L64.5998 35.5513C64.2885 35.4968 64.0319 35.4441 63.8298 35.3897C63.6278 35.3352 63.3711 35.248 63.0598 35.1264C62.7486 35.0047 62.5028 34.8704 62.3208 34.7215C62.1388 34.5726 61.9731 34.371 61.8239 34.115C61.6746 33.859 61.6 33.5685 61.6 33.2453C61.6 32.6261 61.8639 32.0868 62.39 31.6274C61.8093 31.2915 61.3597 30.8285 61.0411 30.242C60.7226 29.6555 60.5642 29.0382 60.5642 28.3918V28.3954ZM64.922 30.8212C65.7867 30.8212 66.3782 30.6088 66.6968 30.1839C67.0135 29.759 67.1737 29.1635 67.1737 28.3936C67.1737 27.6237 67.0081 27.0281 66.6768 26.6032C66.3455 26.1784 65.7612 25.9659 64.9238 25.9659C64.0865 25.9659 63.4548 26.1911 63.1509 26.6432C62.8469 27.0953 62.694 27.6782 62.694 28.3918C62.694 29.1744 62.8523 29.7735 63.1709 30.1912C63.4876 30.6088 64.0737 30.8176 64.9238 30.8176L64.922 30.8212Z" fill="white"/>
<path d="M78.2837 28.4765C78.2837 28.1406 78.2764 27.8701 78.2637 27.6685C78.2491 27.467 78.22 27.2436 78.1727 27.0003C78.1253 26.757 78.0471 26.5718 77.9397 26.4447C77.8323 26.3176 77.683 26.205 77.4937 26.1106C77.3044 26.0162 77.0677 25.969 76.7838 25.969C76.1612 25.969 75.5878 26.1687 75.0599 26.5664C74.5321 26.964 74.0806 27.4997 73.702 28.1733V35.4926H71.7761V24.776H73.702V26.4738C74.796 25.1791 76.0666 24.5327 77.5137 24.5327C77.8923 24.5327 78.2273 24.5836 78.5167 24.6852C78.8079 24.7869 79.0464 24.9086 79.2357 25.0484C79.425 25.19 79.5834 25.3952 79.7126 25.6657C79.8401 25.9363 79.9383 26.1651 80.0057 26.3539C80.073 26.5428 80.1204 26.8187 80.1477 27.1837C80.175 27.5469 80.1914 27.821 80.1986 28.0026C80.2059 28.1842 80.2096 28.4638 80.2096 28.8415V35.4944H78.2837V28.4783V28.4765Z" fill="white"/>
<path d="M87.0835 24.5339C87.6242 24.5339 88.1029 24.5775 88.5234 24.6646C88.9421 24.7518 89.2861 24.8607 89.5573 24.9878C89.8267 25.1168 90.0579 25.302 90.2472 25.5435C90.4365 25.7868 90.5785 26.0047 90.6732 26.2008C90.7678 26.3969 90.8388 26.6656 90.8862 27.0088C90.9335 27.3519 90.9608 27.6334 90.9681 27.8476C90.9754 28.0637 90.979 28.367 90.979 28.7573V35.4901H89.0531V34.0739C87.9318 35.1797 86.7559 35.7316 85.5254 35.7316C84.6334 35.7316 83.9162 35.4556 83.3774 34.9018C82.8368 34.3499 82.5674 33.6417 82.5674 32.7792C82.5674 31.6734 83.0607 30.8182 84.0473 30.2118C84.668 29.8341 85.3779 29.5817 86.1752 29.4528C86.9725 29.3239 87.9318 29.2549 89.0531 29.2403V28.4323C89.0531 28.0274 89.0367 27.7115 89.0021 27.4827C88.9676 27.2539 88.8875 27.0051 88.7582 26.7346C88.629 26.4659 88.4033 26.2698 88.0793 26.1481C87.7552 26.0265 87.3366 25.9665 86.8214 25.9665C85.7129 25.9665 84.5315 26.2298 83.2737 26.7546V25.2784C84.4223 24.779 85.6928 24.5303 87.0854 24.5303L87.0835 24.5339ZM89.0495 32.7429V30.397C88.4943 30.397 88.0483 30.4079 87.7116 30.4278C87.373 30.4478 86.9889 30.5059 86.5557 30.6003C86.1224 30.6947 85.7584 30.8364 85.4617 31.0252C84.8136 31.4428 84.4878 31.9966 84.4878 32.683C84.4878 33.1678 84.6425 33.56 84.9538 33.856C85.2651 34.1519 85.6837 34.3008 86.2098 34.3008C87.1418 34.3008 88.0884 33.7815 89.0477 32.7429H89.0495Z" fill="white"/>
<path d="M95.7401 35.4939H93.8142V19.9238H95.7401V35.4939Z" fill="white"/>
<path d="M110.396 35.4944H108.368L106.828 31.4089H100.645L99.1448 35.4944H97.4629L102.835 20.834H104.862L110.396 35.4944ZM106.26 29.8928L103.686 23.0982L101.193 29.8928H106.26Z" fill="white"/>
<path d="M114.045 35.4939H112.119V19.9238H114.045V35.4939Z" fill="white"/>
<path d="M119.008 35.4939H117.083V19.9238H119.008V35.4939Z" fill="white"/>
<path d="M38.1968 27.4554C38.1968 28.543 38.0329 29.6307 37.6998 30.6783C37.658 30.8091 37.6143 30.9416 37.567 31.0705C37.5433 31.1359 37.5196 31.2013 37.4941 31.2666C37.445 31.3956 37.3922 31.5245 37.3376 31.6516C37.3121 31.717 37.2848 31.7805 37.2539 31.8441C37.2266 31.9076 37.1974 31.9693 37.1665 32.0329C37.1082 32.16 37.0445 32.2853 36.979 32.4088C36.9462 32.4705 36.9135 32.5322 36.8789 32.594C36.8479 32.6539 36.8152 32.712 36.7806 32.7701C36.7769 32.7774 36.7733 32.7846 36.7697 32.7901C36.7369 32.8464 36.7023 32.9045 36.6677 32.9607C36.6313 33.0207 36.5949 33.0806 36.5567 33.1405C36.4657 33.2876 36.3692 33.431 36.2709 33.5727C36.2472 33.6072 36.2236 33.6398 36.1999 33.6725L28.7258 26.217C28.3817 25.8739 27.9321 25.7014 27.4825 25.7014C27.0329 25.7014 26.5851 25.8739 26.241 26.217C25.897 26.5602 25.7241 27.0087 25.7241 27.4554C25.7241 27.9021 25.897 28.3524 26.241 28.6955L33.8153 36.2509L28.6074 41.4476L27.4825 42.5697L21.7394 36.841L19.9082 35.0125C18.8634 33.9685 18.077 32.7628 17.5546 31.4773C17.0321 30.1899 16.77 28.8226 16.77 27.4554C16.77 25.1385 17.52 22.8234 19.0199 20.9023L21.2971 23.172C20.3997 24.4558 19.9519 25.9556 19.9519 27.4554C19.9519 29.3783 20.6873 31.3011 22.1581 32.7683L27.4825 38.0793L29.3155 36.2509L28.0086 34.949L26.3575 33.3021L25.4001 32.3452L23.9893 30.9398C23.0246 29.9775 22.5422 28.7173 22.5422 27.4554C22.5422 26.1934 23.0246 24.9351 23.9893 23.971C24.9559 23.0086 26.2192 22.5274 27.4825 22.5274C28.7458 22.5274 30.0109 23.0086 30.9756 23.971L34.9949 27.9801C35.0094 27.8058 35.0149 27.6315 35.0149 27.4554C35.0149 26.3224 34.76 25.1893 34.2485 24.1489L36.5858 21.8175C36.9116 22.3368 37.1865 22.8779 37.4122 23.4335C37.9365 24.7209 38.1968 26.0881 38.1968 27.4554Z" fill="white"/>
<path d="M23.1184 21.333L20.8467 19.0669C22.7853 17.5345 25.1335 16.77 27.4835 16.77C30.1775 16.77 32.8698 17.7759 34.9467 19.7951L32.6987 22.0375C31.2424 20.6412 29.362 19.944 27.4835 19.944C25.9526 19.944 24.4199 20.407 23.1184 21.333Z" fill="#DF5CF0"/>
<path d="M351.25 10.75L353.332 25.8127L361.88 13.1267L357.085 27.5828L370.405 19.7862L359.681 30.7725L375.136 29.4095L360.608 34.75L375.136 40.0905L359.681 38.7275L370.405 49.7138L357.085 41.9172L361.88 56.3733L353.332 43.6873L351.25 58.75L349.168 43.6873L340.62 56.3733L345.415 41.9172L332.095 49.7138L342.819 38.7275L327.364 40.0905L341.892 34.75L327.364 29.4095L342.819 30.7725L332.095 19.7862L345.415 27.5828L340.62 13.1267L349.168 25.8127L351.25 10.75Z" fill="white"/>
</g>
<defs>
<linearGradient id="paint0_linear_445_964" x1="32.1478" y1="169.894" x2="20.3111" y2="181.731" gradientUnits="userSpaceOnUse">
<stop stop-color="#00A0FF"/>
<stop offset="0.01" stop-color="#00A1FF"/>
<stop offset="0.26" stop-color="#00BEFF"/>
<stop offset="0.51" stop-color="#00D2FF"/>
<stop offset="0.76" stop-color="#00DFFF"/>
<stop offset="1" stop-color="#00E3FF"/>
</linearGradient>
<linearGradient id="paint1_linear_445_964" x1="40.6339" y1="177.859" x2="23.5701" y2="177.859" gradientUnits="userSpaceOnUse">
<stop stop-color="#FFE000"/>
<stop offset="0.41" stop-color="#FFBD00"/>
<stop offset="0.78" stop-color="#FFA500"/>
<stop offset="1" stop-color="#FF9C00"/>
</linearGradient>
<linearGradient id="paint2_linear_445_964" x1="34.2853" y1="179.481" x2="18.2303" y2="195.529" gradientUnits="userSpaceOnUse">
<stop stop-color="#FF3A44"/>
<stop offset="1" stop-color="#C31162"/>
</linearGradient>
<linearGradient id="paint3_linear_445_964" x1="21.9195" y1="163.877" x2="29.0865" y2="171.044" gradientUnits="userSpaceOnUse">
<stop stop-color="#32A071"/>
<stop offset="0.07" stop-color="#2DA771"/>
<stop offset="0.48" stop-color="#15CF74"/>
<stop offset="0.8" stop-color="#06E775"/>
<stop offset="1" stop-color="#00F076"/>
</linearGradient>
<clipPath id="clip0_445_964">
<rect width="386" height="225" rx="20" fill="white"/>
</clipPath>
<clipPath id="clip1_445_964">
<rect width="84.6489" height="28.2163" fill="white" transform="translate(16.77 124)"/>
</clipPath>
<clipPath id="clip2_445_964">
<rect width="95.23" height="28.2163" fill="white" transform="translate(16.77 163.75)"/>
</clipPath>
</defs>
</svg>
