<svg width="40" height="40" viewBox="0 0 40 40" fill="none" xmlns="http://www.w3.org/2000/svg">
<g id="twitter (5) 1" clip-path="url(#clip0_140_305)">
<g id="Layer 2">
<g id="Color Icon">
<g id="04.Twitter">
<path id="Background" d="M36.8421 0H3.15789C1.41384 0 0 1.41384 0 3.15789V36.8421C0 38.5862 1.41384 40 3.15789 40H36.8421C38.5862 40 40 38.5862 40 36.8421V3.15789C40 1.41384 38.5862 0 36.8421 0Z" fill="#03A9F4"/>
<path id="Icon" d="M32.9554 11.9657C31.9809 12.3913 30.9501 12.674 29.8948 12.8052C31.0072 12.1455 31.8388 11.1005 32.2317 9.86832C31.1905 10.4863 30.0513 10.9215 28.8633 11.1552C28.1353 10.3766 27.1898 9.83514 26.1499 9.60119C25.1101 9.36723 24.0238 9.45161 23.0325 9.84336C22.0412 10.2351 21.1908 10.9161 20.5918 11.7977C19.9927 12.6794 19.6729 13.7209 19.6738 14.7867C19.6701 15.1936 19.7115 15.5996 19.7975 15.9973C17.6842 15.8935 15.6167 15.345 13.7298 14.3878C11.843 13.4305 10.1793 12.086 8.84747 10.442C8.16289 11.6115 7.9508 12.9983 8.25455 14.3189C8.5583 15.6396 9.35495 16.7944 10.4817 17.5473C9.64069 17.5246 8.81751 17.2998 8.08168 16.892V16.9499C8.08405 18.1758 8.50836 19.3634 9.28329 20.3133C10.0582 21.2631 11.1365 21.9173 12.3369 22.1657C11.8827 22.285 11.4145 22.3435 10.9448 22.3394C10.6066 22.3456 10.2688 22.3156 9.93694 22.2499C10.2809 23.3042 10.943 24.226 11.8322 24.8886C12.7215 25.5511 13.7941 25.9219 14.9027 25.9499C13.0241 27.4183 10.7082 28.2159 8.32379 28.2157C7.89894 28.2193 7.47432 28.1947 7.05273 28.142C9.48397 29.7095 12.3179 30.5378 15.2106 30.5262C24.9869 30.5262 30.3317 22.4288 30.3317 15.4104C30.3317 15.1762 30.3317 14.9499 30.3133 14.7236C31.3541 13.9724 32.2495 13.0378 32.9554 11.9657Z" fill="white"/>
</g>
</g>
</g>
</g>
<defs>
<clipPath id="clip0_140_305">
<rect width="40" height="40" fill="white"/>
</clipPath>
</defs>
</svg>
