<svg width="10" height="11" viewBox="0 0 10 11" fill="none" xmlns="http://www.w3.org/2000/svg">
<g id="star (2) 1" clip-path="url(#clip0_66_1919)">
<path id="Vector" d="M9.97393 4.08476C9.90847 3.88227 9.72887 3.73846 9.51639 3.71931L6.63011 3.45723L5.4888 0.785882C5.40465 0.590106 5.21299 0.463379 5.00005 0.463379C4.78711 0.463379 4.59545 0.590106 4.5113 0.786339L3.36999 3.45723L0.483257 3.71931C0.271154 3.73891 0.0920116 3.88227 0.0261682 4.08476C-0.0396751 4.28725 0.0211327 4.50935 0.181583 4.64935L2.36326 6.5627L1.71994 9.39656C1.67286 9.60493 1.75374 9.82031 1.92662 9.94528C2.01955 10.0124 2.12827 10.0466 2.23791 10.0466C2.33244 10.0466 2.42621 10.0211 2.51036 9.97076L5.00005 8.48277L7.48882 9.97076C7.67094 10.0803 7.90052 10.0703 8.07302 9.94528C8.24598 9.81993 8.32678 9.60447 8.27971 9.39656L7.63638 6.5627L9.81806 4.64973C9.97851 4.50935 10.0398 4.28763 9.97393 4.08476Z" fill="#FFC107"/>
</g>
<defs>
<clipPath id="clip0_66_1919">
<rect width="10" height="10" fill="white" transform="translate(0 0.248779)"/>
</clipPath>
</defs>
</svg>
