<svg width="22" height="21" viewBox="0 0 22 21" fill="none" xmlns="http://www.w3.org/2000/svg">
<g clip-path="url(#clip0_63_759)">
<path d="M21.0711 4.53006C20.3523 4.84855 19.5802 5.06374 18.7685 5.16101C19.606 4.65986 20.2326 3.87111 20.5314 2.94194C19.7445 3.40933 18.8833 3.73832 17.9852 3.91461C17.3813 3.26978 16.5813 2.84237 15.7096 2.69875C14.8379 2.55513 13.9431 2.70332 13.1642 3.12034C12.3853 3.53735 11.7659 4.19984 11.4021 5.00495C11.0384 5.81007 10.9506 6.71277 11.1524 7.57289C9.55796 7.49284 7.99819 7.07842 6.5743 6.35654C5.15041 5.63466 3.89422 4.62144 2.88725 3.38265C2.54294 3.97659 2.34496 4.6652 2.34496 5.39858C2.34458 6.05879 2.50716 6.70889 2.81828 7.29119C3.1294 7.87349 3.57945 8.37 4.12848 8.73666C3.49175 8.7164 2.86906 8.54435 2.31225 8.23483V8.28647C2.31219 9.21244 2.63249 10.1099 3.2188 10.8266C3.80512 11.5433 4.62134 12.0351 5.52896 12.2185C4.93828 12.3783 4.319 12.4019 3.71789 12.2873C3.97397 13.0841 4.47279 13.7808 5.14451 14.28C5.81623 14.7791 6.62723 15.0557 7.46398 15.0711C6.04356 16.1861 4.28935 16.791 2.48355 16.7883C2.16367 16.7884 1.84406 16.7697 1.52637 16.7324C3.35936 17.9109 5.4931 18.5364 7.67228 18.534C15.0491 18.534 19.0818 12.4242 19.0818 7.12529C19.0818 6.95314 19.0775 6.77926 19.0698 6.60711C19.8542 6.03984 20.5313 5.33738 21.0693 4.53265L21.0711 4.53006Z" fill="#15141F"/>
</g>
<defs>
<clipPath id="clip0_63_759">
<rect width="20.6585" height="20.6585" fill="white" transform="translate(0.719482 0.280396)"/>
</clipPath>
</defs>
</svg>
