<svg width="73" height="41" viewBox="0 0 73 41" fill="none" xmlns="http://www.w3.org/2000/svg">
<g id="Frame" clip-path="url(#clip0_146_3540)">
<g id="Group 10498">
<path id="Path 64484" d="M71.1585 1.42896V40.9985H1.45703V23.3033L12.6011 12.0229L15.1254 12.7109L18.78 17.1165L19.9977 18.3552H21.2987L25.6876 16.1524L31.5958 12.7109L38.6868 10.7264L40.7824 12.0163L41.4746 13.4336C41.4746 13.4336 41.7998 14.4358 41.912 14.454C42.0723 14.6316 42.2715 14.7689 42.493 14.855C42.7145 14.9411 42.9524 14.9736 43.1884 14.9501C44.0256 14.8393 44.4275 14.4325 44.9022 14.454C45.1182 14.4754 45.336 14.4518 45.5428 14.3847C45.7496 14.3176 45.9408 14.2084 46.1048 14.0637C46.651 13.6933 47.7829 12.7059 47.7829 12.7059L56.7107 6.20668C56.7107 6.20668 59.4129 6.49608 59.9803 7.46022C60.5477 8.42436 62.6347 8.85765 62.6347 8.85765C62.9819 8.82495 63.3314 8.82495 63.6786 8.85765C64.3825 8.91884 71.1585 1.42896 71.1585 1.42896Z" fill="url(#paint0_linear_146_3540)"/>
<path id="Path" d="M1.73438 23.3099L11.3958 13.1145C11.6687 12.8256 11.9986 12.5989 12.3639 12.4491C12.7291 12.2994 13.1214 12.23 13.5149 12.2456C13.9084 12.2612 14.294 12.3615 14.6466 12.5398C14.9993 12.718 15.311 12.9702 15.5609 13.2798L18.9504 17.492C19.3783 18.0241 19.9819 18.3799 20.6485 18.4931C21.3151 18.6063 21.9994 18.4691 22.5741 18.1072L29.8458 13.5345C30.0351 13.4158 30.2375 13.3203 30.4489 13.2501L37.55 10.9001C37.9049 10.7823 38.2794 10.7383 38.6514 10.7707C39.0234 10.8031 39.3853 10.9112 39.7154 11.0886C40.0456 11.266 40.3372 11.5091 40.5731 11.8034C40.8091 12.0977 40.9846 12.4373 41.0891 12.8019V12.8019C41.2142 13.2372 41.4399 13.6356 41.7476 13.9638C42.0552 14.292 42.4355 14.5404 42.8569 14.6883C43.2783 14.8361 43.7285 14.8791 44.1696 14.8136C44.6107 14.7481 45.03 14.576 45.3923 14.3118L55.7707 6.7359C56.2578 6.38029 56.8446 6.19389 57.444 6.20431C58.0435 6.21474 58.6237 6.42145 59.0985 6.79379L61.2378 8.47235C61.7743 8.89348 62.4434 9.10128 63.1197 9.05683C63.7959 9.01239 64.433 8.71877 64.9119 8.23091L71.2862 1.74487" stroke="#00D87C" stroke-width="1.5" stroke-linecap="round" stroke-linejoin="round"/>
</g>
</g>
<defs>
<linearGradient id="paint0_linear_146_3540" x1="36.3078" y1="1.42896" x2="36.3078" y2="40.9985" gradientUnits="userSpaceOnUse">
<stop stop-color="#00D87C" stop-opacity="0.31"/>
<stop offset="1" stop-color="#00D87C" stop-opacity="0"/>
</linearGradient>
<clipPath id="clip0_146_3540">
<rect width="73" height="41" fill="white" transform="translate(0.00976562)"/>
</clipPath>
</defs>
</svg>
