<svg width="400" height="400" viewBox="0 0 400 400" fill="none" xmlns="http://www.w3.org/2000/svg">
<path d="M199.999 357.333C286.893 357.333 357.333 286.893 357.333 200C357.333 113.107 286.893 42.6667 199.999 42.6667C113.107 42.6667 42.666 113.107 42.666 200C42.666 286.893 113.107 357.333 199.999 357.333Z" fill="#052C52" fill-opacity="0.25"/>
<g filter="url(#filter0_d_647_2070)">
<mask id="mask0_647_2070" style="mask-type:alpha" maskUnits="userSpaceOnUse" x="42" y="42" width="316" height="316">
<path d="M199.999 357.333C286.893 357.333 357.333 286.893 357.333 200C357.333 113.107 286.893 42.6667 199.999 42.6667C113.107 42.6667 42.666 113.107 42.666 200C42.666 286.893 113.107 357.333 199.999 357.333Z" fill="url(#paint0_linear_647_2070)"/>
</mask>
<g mask="url(#mask0_647_2070)">
<g filter="url(#filter1_dd_647_2070)">
<path d="M290.205 132.871H109.795C104.003 132.871 99.3066 137.567 99.3066 143.36V363.627C99.3066 369.419 104.003 374.115 109.795 374.115H290.205C295.997 374.115 300.693 369.419 300.693 363.627V143.36C300.693 137.567 295.997 132.871 290.205 132.871Z" fill="white"/>
</g>
</g>
</g>
<path d="M181.121 153.849H126.578C123.103 153.849 120.285 156.667 120.285 160.142C120.285 163.618 123.103 166.436 126.578 166.436H181.121C184.596 166.436 187.414 163.618 187.414 160.142C187.414 156.667 184.596 153.849 181.121 153.849Z" fill="#052C52" fill-opacity="0.25"/>
<path d="M181.121 241.955H126.578C123.103 241.955 120.285 244.773 120.285 248.249C120.285 251.725 123.103 254.542 126.578 254.542H181.121C184.596 254.542 187.414 251.725 187.414 248.249C187.414 244.773 184.596 241.955 181.121 241.955Z" fill="#052C52" fill-opacity="0.25"/>
<path d="M269.227 185.315H130.774C126.14 185.315 122.383 189.072 122.383 193.707V214.684C122.383 219.319 126.14 223.075 130.774 223.075H269.227C273.862 223.075 277.619 219.319 277.619 214.684V193.707C277.619 189.072 273.862 185.315 269.227 185.315Z" stroke="#005AFF" stroke-width="2"/>
<path d="M269.227 271.325H130.774C124.981 271.325 120.285 276.021 120.285 281.813V298.595C120.285 304.389 124.981 309.085 130.774 309.085H269.227C275.019 309.085 279.715 304.389 279.715 298.595V281.813C279.715 276.021 275.019 271.325 269.227 271.325Z" fill="#052C52" fill-opacity="0.25"/>
<path d="M223.075 227.271C228.868 227.271 233.564 222.575 233.564 216.782C233.564 210.989 228.868 206.293 223.075 206.293C217.282 206.293 212.586 210.989 212.586 216.782C212.586 222.575 217.282 227.271 223.075 227.271Z" fill="#052C52" fill-opacity="0.25"/>
<path d="M231.271 261.612C229.593 261.612 228.026 261.612 226.599 261.522C224.842 261.403 223.152 260.802 221.714 259.784C220.277 258.767 219.148 257.373 218.451 255.755L209.601 238.263C208.952 237.508 208.628 236.526 208.699 235.532C208.771 234.539 209.232 233.613 209.983 232.958C210.598 232.464 211.365 232.198 212.154 232.205C212.735 232.222 213.305 232.365 213.826 232.623C214.346 232.882 214.804 233.25 215.169 233.703L219.188 239.189L219.249 239.26V218.419C219.249 217.385 219.659 216.393 220.391 215.662C221.122 214.931 222.113 214.52 223.147 214.52C224.182 214.52 225.173 214.931 225.904 215.662C226.635 216.393 227.046 217.385 227.046 218.419V232.054C227.001 231.552 227.061 231.047 227.222 230.569C227.383 230.092 227.641 229.653 227.981 229.281C228.321 228.909 228.734 228.613 229.195 228.409C229.657 228.206 230.155 228.101 230.659 228.101C231.162 228.101 231.661 228.206 232.122 228.409C232.583 228.613 232.996 228.909 233.336 229.281C233.676 229.653 233.935 230.092 234.095 230.569C234.257 231.047 234.316 231.552 234.271 232.054V234.897C234.226 234.395 234.285 233.889 234.446 233.412C234.607 232.934 234.866 232.496 235.206 232.124C235.546 231.752 235.959 231.455 236.42 231.252C236.881 231.049 237.379 230.943 237.883 230.943C238.387 230.943 238.885 231.049 239.346 231.252C239.807 231.455 240.221 231.752 240.561 232.124C240.901 232.496 241.159 232.934 241.32 233.412C241.481 233.889 241.541 234.395 241.496 234.897V237.087C241.45 236.585 241.51 236.079 241.671 235.602C241.832 235.125 242.091 234.686 242.43 234.314C242.77 233.942 243.184 233.645 243.645 233.442C244.106 233.239 244.604 233.134 245.108 233.134C245.612 233.134 246.11 233.239 246.571 233.442C247.032 233.645 247.446 233.942 247.786 234.314C248.125 234.686 248.384 235.125 248.545 235.602C248.706 236.079 248.766 236.585 248.721 237.087V250.38C248.649 254.469 246.801 261.362 240.3 261.362C239.828 261.383 235.83 261.614 231.279 261.614L231.271 261.612Z" fill="#005AFF" stroke="white"/>
<path fill-rule="evenodd" clip-rule="evenodd" d="M200 104C200 96.6362 193.732 90.6666 186 90.6666C193.732 90.6666 200 84.697 200 77.3333C200 84.697 206.268 90.6666 214 90.6666C206.268 90.6666 200 96.6362 200 104Z" fill="white"/>
<path fill-rule="evenodd" clip-rule="evenodd" d="M200 72.6667C201.105 72.6667 202 73.5622 202 74.6667V77.3334C202 83.5016 207.279 88.6667 214 88.6667C215.105 88.6667 216 89.5622 216 90.6667C216 91.7712 215.105 92.6667 214 92.6667C207.279 92.6667 202 97.8318 202 104V106.667C202 107.771 201.105 108.667 200 108.667C198.895 108.667 198 107.771 198 106.667V104C198 97.8318 192.721 92.6667 186 92.6667C184.895 92.6667 184 91.7712 184 90.6667C184 89.5622 184.895 88.6667 186 88.6667C192.721 88.6667 198 83.5016 198 77.3334V74.6667C198 73.5622 198.895 72.6667 200 72.6667ZM200 84.7696C198.569 87.2374 196.449 89.2782 193.901 90.6667C196.449 92.0552 198.569 94.096 200 96.5638C201.431 94.096 203.551 92.0552 206.099 90.6667C203.551 89.2782 201.431 87.2374 200 84.7696Z" fill="#005AFF"/>
<path fill-rule="evenodd" clip-rule="evenodd" d="M149 104C149 96.6362 143.18 90.6666 136 90.6666C143.18 90.6666 149 84.697 149 77.3333C149 84.697 154.82 90.6666 162 90.6666C154.82 90.6666 149 96.6362 149 104Z" fill="#1E97CD"/>
<path fill-rule="evenodd" clip-rule="evenodd" d="M149 72.6667C150.105 72.6667 151 73.5622 151 74.6667V77.3334C151 83.6406 155.972 88.6667 162 88.6667C163.105 88.6667 164 89.5622 164 90.6667C164 91.7712 163.105 92.6667 162 92.6667C155.972 92.6667 151 97.6928 151 104V106.667C151 107.771 150.105 108.667 149 108.667C147.895 108.667 147 107.771 147 106.667V104C147 97.6928 142.028 92.6667 136 92.6667C134.895 92.6667 134 91.7712 134 90.6667C134 89.5622 134.895 88.6667 136 88.6667C142.028 88.6667 147 83.6406 147 77.3334V74.6667C147 73.5622 147.895 72.6667 149 72.6667ZM149 84.9851C147.668 87.3456 145.738 89.3136 143.416 90.6667C145.738 92.0198 147.668 93.9878 149 96.3483C150.332 93.9878 152.262 92.0198 154.584 90.6667C152.262 89.3136 150.332 87.3456 149 84.9851Z" fill="white"/>
<path fill-rule="evenodd" clip-rule="evenodd" d="M251 104C251 96.6362 245.18 90.6666 238 90.6666C245.18 90.6666 251 84.697 251 77.3333C251 84.697 256.82 90.6666 264 90.6666C256.82 90.6666 251 96.6362 251 104Z" fill="#1E97CD"/>
<path fill-rule="evenodd" clip-rule="evenodd" d="M251 72.6667C252.105 72.6667 253 73.5622 253 74.6667V77.3334C253 83.6406 257.972 88.6667 264 88.6667C265.105 88.6667 266 89.5622 266 90.6667C266 91.7712 265.105 92.6667 264 92.6667C257.972 92.6667 253 97.6928 253 104V106.667C253 107.771 252.105 108.667 251 108.667C249.895 108.667 249 107.771 249 106.667V104C249 97.6928 244.028 92.6667 238 92.6667C236.895 92.6667 236 91.7712 236 90.6667C236 89.5622 236.895 88.6667 238 88.6667C244.028 88.6667 249 83.6406 249 77.3334V74.6667C249 73.5622 249.895 72.6667 251 72.6667ZM251 84.9851C249.668 87.3456 247.738 89.3136 245.416 90.6667C247.738 92.0198 249.668 93.9878 251 96.3483C252.332 93.9878 254.262 92.0198 256.584 90.6667C254.262 89.3136 252.332 87.3456 251 84.9851Z" fill="white"/>
<defs>
<filter id="filter0_d_647_2070" x="93.3066" y="123.871" width="213.387" height="236.462" filterUnits="userSpaceOnUse" color-interpolation-filters="sRGB">
<feFlood flood-opacity="0" result="BackgroundImageFix"/>
<feColorMatrix in="SourceAlpha" type="matrix" values="0 0 0 0 0 0 0 0 0 0 0 0 0 0 0 0 0 0 127 0" result="hardAlpha"/>
<feOffset dy="-3"/>
<feGaussianBlur stdDeviation="3"/>
<feColorMatrix type="matrix" values="0 0 0 0 0.788235 0 0 0 0 0.803922 0 0 0 0 0.85098 0 0 0 0.349 0"/>
<feBlend mode="normal" in2="BackgroundImageFix" result="effect1_dropShadow_647_2070"/>
<feBlend mode="normal" in="SourceGraphic" in2="effect1_dropShadow_647_2070" result="shape"/>
</filter>
<filter id="filter1_dd_647_2070" x="83.3066" y="128.871" width="233.387" height="273.243" filterUnits="userSpaceOnUse" color-interpolation-filters="sRGB">
<feFlood flood-opacity="0" result="BackgroundImageFix"/>
<feColorMatrix in="SourceAlpha" type="matrix" values="0 0 0 0 0 0 0 0 0 0 0 0 0 0 0 0 0 0 127 0" result="hardAlpha"/>
<feOffset dy="4"/>
<feGaussianBlur stdDeviation="3"/>
<feComposite in2="hardAlpha" operator="out"/>
<feColorMatrix type="matrix" values="0 0 0 0 0.0627451 0 0 0 0 0.0941176 0 0 0 0 0.156863 0 0 0 0.03 0"/>
<feBlend mode="normal" in2="BackgroundImageFix" result="effect1_dropShadow_647_2070"/>
<feColorMatrix in="SourceAlpha" type="matrix" values="0 0 0 0 0 0 0 0 0 0 0 0 0 0 0 0 0 0 127 0" result="hardAlpha"/>
<feOffset dy="12"/>
<feGaussianBlur stdDeviation="8"/>
<feComposite in2="hardAlpha" operator="out"/>
<feColorMatrix type="matrix" values="0 0 0 0 0.0627451 0 0 0 0 0.0941176 0 0 0 0 0.156863 0 0 0 0.08 0"/>
<feBlend mode="normal" in2="effect1_dropShadow_647_2070" result="effect2_dropShadow_647_2070"/>
<feBlend mode="normal" in="SourceGraphic" in2="effect2_dropShadow_647_2070" result="shape"/>
</filter>
<linearGradient id="paint0_linear_647_2070" x1="199.999" y1="42.6667" x2="199.999" y2="357.333" gradientUnits="userSpaceOnUse">
<stop stop-color="#E3ECFA"/>
<stop offset="1" stop-color="#DAE7FF"/>
</linearGradient>
</defs>
</svg>
